SplineFontDB: 3.2
FontName: SeriousShannsLightItalic
FullName: Serious Shanns Light Italic
FamilyName: Serious Shanns Light Italic
Weight: Light
Copyright: https://github.com/kaBeech/serious-sans/blob/main/LICENSE
Version: 6.0.0
ItalicAngle: -11.8
UnderlinePosition: 0
UnderlineWidth: 0
Ascent: 800
Descent: 200
InvalidEm: 0
sfntRevision: 0x00001999
LayerCount: 2
Layer: 0 0 "Back" 1
Layer: 1 0 "Fore" 0
XUID: [1021 329 -1817886000 6804199]
StyleMap: 0x0040
FSType: 4
OS2Version: 3
OS2_WeightWidthSlopeOnly: 0
OS2_UseTypoMetrics: 0
CreationTime: 1532631502
ModificationTime: 315532800
PfmFamily: 81
TTFWeight: 300
TTFWidth: 5
LineGap: 0
VLineGap: 0
Panose: 0 0 0 0 0 0 0 0 0 0
OS2TypoAscent: 613
OS2TypoAOffset: 0
OS2TypoDescent: -188
OS2TypoDOffset: 0
OS2TypoLinegap: 98
OS2WinAscent: 778
OS2WinAOffset: 0
OS2WinDescent: 308
OS2WinDOffset: 0
HheadAscent: 796
HheadAOffset: 0
HheadDescent: -317
HheadDOffset: 0
OS2SubXSize: 317
OS2SubYSize: 293
OS2SubXOff: 0
OS2SubYOff: 37
OS2SupXSize: 317
OS2SupYSize: 293
OS2SupXOff: 0
OS2SupYOff: 171
OS2StrikeYSize: 0
OS2StrikeYPos: 132
OS2CapHeight: 576
OS2XHeight: 485
OS2Vendor: 'NONE'
OS2CodePages: 00000001.00000000
OS2UnicodeRanges: 00000001.00000000.00000000.00000000
MarkAttachClasses: 1
DEI: 91125
LangName: 1033 "" "" "Normal" "FontForge 2.0 : Serious Shanns Light Italic : 11-6-2024" "" "Version 0.1.2"
Encoding: UnicodeBmp
Compacted: 1
UnicodeInterp: none
NameList: AGL For New Fonts
DisplaySize: -48
AntiAlias: 1
FitToEm: 0
WinInfo: 64 16 4
BeginPrivate: 8
BlueValues 32 [-39 -6 490 521 685 718 765 769]
OtherBlues 11 [-304 -292]
BlueScale 9 0.0291667
BlueShift 1 3
StdHW 4 [67]
StdVW 4 [65]
StemSnapH 23 [61 62 63 65 67 94 130]
StemSnapV 14 [40 58 65 125]
EndPrivate
BeginChars: 65537 122

StartChar: .notdef
Encoding: 65536 -1 0
Width: 650
GlyphClass: 1
Flags: HMW
HStem: 688 20G<321.348 644.348 321.348 321.348>
LayerCount: 2
Fore
SplineSet
303.34765625 737 m 1
 676.34765625 737 l 1
 447.34765625 -255 l 1
 74.34765625 -255 l 1
 303.34765625 737 l 1
644.34765625 708 m 1
 321.34765625 708 l 1
 105.34765625 -226 l 1
 429.34765625 -226 l 1
 644.34765625 708 l 1
EndSplineSet
Validated: 1
EndChar

StartChar: exclam
Encoding: 33 33 11
Width: 650
GlyphClass: 2
Flags: HMW
HStem: -13 130<304.281 367.281>
VStem: 270.781 131<27.5 80.5>
LayerCount: 2
Fore
SplineSet
421.78125 274 m 0
 417.78125 262 411.78125 253 402.78125 247 c 0
 393.78125 241 385.78125 237 376.78125 237 c 2
 373.78125 237 l 2
 364.78125 237 358.78125 240 355.78125 245 c 0
 353.78125 247 352.78125 250 352.78125 254 c 0
 352.78125 258 353.78125 264 355.78125 272 c 0
 358.78125 281 361.78125 290 365.78125 300 c 0
 369.78125 310 372.78125 318 374.78125 325 c 0
 376.78125 332 379.78125 347 385.78125 371 c 0
 391.78125 395 397.78125 423 403.78125 454 c 0
 409.78125 485 415.78125 515 422.78125 544 c 0
 429.78125 573 434.78125 593 436.78125 603 c 0
 438.78125 613 444.78125 634 453.78125 668 c 0
 462.78125 702 467.78125 724 469.78125 732 c 0
 473.78125 747 480.78125 759 488.78125 766 c 0
 496.78125 773 506.78125 777 516.78125 777 c 2
 519.78125 777 l 2
 527.78125 777 533.78125 775 536.78125 771 c 0
 538.78125 769 539.78125 764 539.78125 759 c 0
 539.78125 754 537.78125 748 536.78125 742 c 0
 535.78125 736 523.78125 691 502.78125 609 c 0
 481.78125 527 465.78125 462 454.78125 411 c 0
 443.78125 360 436.78125 330 433.78125 320 c 0
 430.78125 310 425.78125 295 421.78125 274 c 0
401.78125 75 m 0
 401.78125 70 400.78125 64 399.78125 57 c 0
 395.78125 39 387.78125 24 372.78125 11 c 0
 357.78125 -2 339.78125 -10 318.78125 -12 c 0
 316.78125 -12 313.78125 -13 311.78125 -13 c 0
 296.78125 -13 285.78125 -7 278.78125 3 c 0
 272.78125 12 270.78125 22 270.78125 33 c 0
 270.78125 38 271.78125 44 272.78125 51 c 0
 277.78125 68 286.78125 83 303.78125 96 c 0
 322.78125 110 340.78125 117 359.78125 117 c 0
 374.78125 117 387.78125 112 394.78125 102 c 0
 399.78125 95 401.78125 86 401.78125 75 c 0
EndSplineSet
Validated: 1
EndChar

StartChar: quotedbl
Encoding: 34 34 12
Width: 650
GlyphClass: 2
Flags: HMW
HStem: 448 323<331.546 420.046 336.046 420.046 414.046 485.046 414.046 486.046>
LayerCount: 2
Fore
SplineSet
420.045898438 771 m 2
 428.045898438 771 435.045898438 769 441.045898438 765 c 0
 442.045898438 763 444.045898438 760 445.045898438 756 c 0
 446.045898438 752 446.045898438 748 445.045898438 741 c 0
 439.045898438 714 428.045898438 669 412.045898438 607 c 0
 396.045898438 545 385.045898438 502 377.045898438 479 c 0
 373.045898438 468 367.045898438 461 359.045898438 456 c 0
 351.045898438 451 344.045898438 448 337.045898438 448 c 2
 336.045898438 448 l 2
 327.045898438 448 319.045898438 452 313.045898438 457 c 0
 311.045898438 459 309.045898438 462 309.045898438 466 c 0
 309.045898438 470 310.045898438 474 311.045898438 478 c 0
 322.045898438 512 333.045898438 556 344.045898438 609 c 0
 355.045898438 662 364.045898438 706 371.045898438 741 c 0
 372.045898438 748 375.045898438 753 378.045898438 757 c 0
 381.045898438 762 385.045898438 765 389.045898438 766 c 0
 398.045898438 769 407.045898438 771 414.045898438 771 c 2
 420.045898438 771 l 2
562.045898438 607 m 0
 547.045898438 545 535.045898438 502 527.045898438 479 c 0
 523.045898438 468 517.045898438 461 509.045898438 456 c 0
 501.045898438 451 493.045898438 448 486.045898438 448 c 2
 485.045898438 448 l 2
 476.045898438 448 468.045898438 452 462.045898438 457 c 0
 460.045898438 459 459.045898438 463 459.045898438 466 c 0
 459.045898438 469 460.045898438 473 461.045898438 478 c 0
 471.045898438 512 482.045898438 556 493.045898438 609 c 0
 504.045898438 662 513.045898438 706 520.045898438 741 c 0
 521.045898438 748 524.045898438 753 528.045898438 757 c 0
 532.045898438 761 535.045898438 765 539.045898438 766 c 0
 548.045898438 769 556.045898438 771 563.045898438 771 c 2
 569.045898438 771 l 2
 574.045898438 771 578.045898438 771 581.045898438 770 c 0
 584.045898438 769 588.045898438 767 591.045898438 765 c 0
 594.045898438 763 595.045898438 758 595.045898438 751 c 0
 595.045898438 743 584.045898438 695 562.045898438 607 c 0
EndSplineSet
Validated: 524289
EndChar

StartChar: numbersign
Encoding: 35 35 13
Width: 650
GlyphClass: 2
Flags: HMW
HStem: 205 57<503.476 541.476 480.476 560.476> 457 60<404.476 514.476 380.476 538.476 404.476 622.476 404.476 579.476>
LayerCount: 2
Fore
SplineSet
284.475585938 203 m 1
 275.475585938 203 l 1
 243.475585938 126 221.475585938 74 209.475585938 47 c 0
 202.475585938 36 193.475585938 26 180.475585938 18 c 0
 171.475585938 13 163.475585938 10 157.475585938 10 c 0
 155.475585938 10 151.475585938 11 149.475585938 12 c 0
 145.475585938 12 143.475585938 14 142.475585938 16 c 0
 140.475585938 20 138.475585938 26 138.475585938 34 c 0
 138.475585938 44 140.475585938 55 146.475585938 67 c 0
 155.475585938 86 177.475585938 131 208.475585938 202 c 1
 161.475585938 202 l 2
 149.475585938 202 141.475585938 204 137.475585938 208 c 0
 135.475585938 210 132.475585938 214 132.475585938 217 c 0
 132.475585938 218 133.475585938 221 133.475585938 223 c 0
 135.475585938 232 140.475585938 241 147.475585938 247 c 0
 154.475585938 253 166.475585938 257 179.475585938 257 c 0
 184.475585938 257 191.475585938 258 201.475585938 258 c 0
 211.475585938 258 220.475585938 260 231.475585938 260 c 1
 313.475585938 456 l 1
 294.475585938 456 l 1
 256.475585938 455 l 1
 252.475585938 455 l 2
 242.475585938 455 235.475585938 457 232.475585938 461 c 0
 230.475585938 464 229.475585938 468 229.475585938 473 c 2
 229.475585938 480 l 2
 230.475585938 489 235.475585938 497 243.475585938 503 c 0
 251.475585938 509 261.475585938 514 274.475585938 514 c 2
 275.475585938 514 l 2
 287.475585938 514 306.475585938 515 330.475585938 515 c 2
 337.475585938 515 l 1
 403.475585938 677 l 2
 410.475585938 692 420.475585938 702 429.475585938 707 c 0
 436.475585938 710 441.475585938 712 446.475585938 712 c 0
 448.475585938 712 453.475585938 711 455.475585938 711 c 0
 464.475585938 709 470.475585938 705 472.475585938 698 c 0
 473.475585938 696 474.475585938 692 474.475585938 689 c 0
 474.475585938 683 471.475585938 675 467.475585938 666 c 2
 404.475585938 517 l 1
 538.475585938 517 l 1
 599.475585938 670 l 2
 606.475585938 685 614.475585938 695 624.475585938 700 c 0
 630.475585938 703 636.475585938 705 642.475585938 705 c 0
 644.475585938 705 647.475585938 704 650.475585938 704 c 0
 659.475585938 702 666.475585938 698 668.475585938 691 c 0
 668.475585938 689 669.475585938 686 669.475585938 684 c 0
 669.475585938 677 668.475585938 669 663.475585938 659 c 0
 650.475585938 633 630.475585938 586 604.475585938 519 c 1
 623.475585938 519 l 1
 633.475585938 519 l 2
 644.475585938 519 654.475585938 515 659.475585938 509 c 0
 664.475585938 504 666.475585938 500 666.475585938 495 c 0
 666.475585938 494 665.475585938 492 665.475585938 491 c 0
 663.475585938 482 657.475585938 473 650.475585938 467 c 0
 643.475585938 461 634.475585938 457 622.475585938 457 c 2
 579.475585938 457 l 1
 503.475585938 262 l 1
 560.475585938 262 l 2
 570.475585938 262 576.475585938 260 577.475585938 258 c 0
 579.475585938 254 580.475585938 248 579.475585938 239 c 0
 577.475585938 228 571.475585938 219 566.475585938 214 c 0
 560.475585938 208 552.475585938 205 541.475585938 205 c 2
 480.475585938 205 l 1
 449.475585938 124 428.475585938 70 416.475585938 43 c 0
 409.475585938 31 399.475585938 22 387.475585938 16 c 0
 379.475585938 12 372.475585938 10 366.475585938 10 c 0
 364.475585938 10 359.475585938 11 356.475585938 12 c 0
 350.475585938 13 347.475585938 18 346.475585938 25 c 0
 346.475585938 28 345.475585938 32 345.475585938 34 c 0
 345.475585938 43 348.475585938 52 353.475585938 63 c 0
 366.475585938 90 386.475585938 137 413.475585938 204 c 1
 394.475585938 204 l 1
 284.475585938 203 l 1
514.475585938 457 m 1
 380.475585938 457 l 1
 298.475585938 261 l 1
 336.475585938 262 380.475585938 263 428.475585938 263 c 2
 436.475585938 263 l 1
 461.475585938 323 487.475585938 387 514.475585938 457 c 1
EndSplineSet
Validated: 524289
EndChar

StartChar: dollar
Encoding: 36 36 14
Width: 650
GlyphClass: 2
Flags: HMW
HStem: -17 60<269.847 303.847 279.847 303.847 283.847 303.847>
VStem: 248.847 63 514.847 69<235 287>
LayerCount: 2
Fore
SplineSet
225.84765625 -8 m 0
 208.84765625 -2 195.84765625 4 184.84765625 13 c 0
 163.84765625 31 149.84765625 52 142.84765625 76 c 0
 141.84765625 82 140.84765625 89 140.84765625 95 c 0
 140.84765625 101 142.84765625 107 144.84765625 112 c 0
 148.84765625 121 154.84765625 127 163.84765625 131 c 0
 170.84765625 134 176.84765625 137 179.84765625 137 c 0
 182.84765625 137 186.84765625 138 187.84765625 138 c 2
 192.84765625 138 l 2
 193.84765625 138 195.84765625 135 197.84765625 133 c 0
 199.84765625 131 203.84765625 125 206.84765625 118 c 0
 215.84765625 96 226.84765625 77 241.84765625 64 c 0
 256.84765625 50 276.84765625 43 301.84765625 43 c 2
 303.84765625 43 l 1
 311.84765625 43 l 1
 338.84765625 161 361.84765625 268 381.84765625 365 c 1
 370.84765625 366 361.84765625 368 355.84765625 369 c 0
 349.84765625 370 343.84765625 371 339.84765625 371 c 0
 321.84765625 373 306.84765625 378 293.84765625 387 c 0
 280.84765625 396 270.84765625 406 263.84765625 419 c 0
 253.84765625 438 248.84765625 458 248.84765625 480 c 0
 248.84765625 487 249.84765625 494 251.84765625 503 c 0
 256.84765625 526 264.84765625 548 275.84765625 569 c 0
 285.84765625 590 298.84765625 610 314.84765625 628 c 0
 330.84765625 646 350.84765625 661 372.84765625 674 c 0
 394.84765625 687 419.84765625 697 446.84765625 702 c 2
 453.84765625 704 l 1
 458.84765625 725 464.84765625 747 469.84765625 769 c 0
 472.84765625 784 477.84765625 795 483.84765625 803 c 0
 489.84765625 811 495.84765625 815 504.84765625 815 c 2
 506.84765625 815 l 2
 513.84765625 815 518.84765625 814 520.84765625 811 c 0
 522.84765625 808 523.84765625 803 523.84765625 797 c 0
 523.84765625 791 521.84765625 785 520.84765625 778 c 2
 506.84765625 711 l 1
 519.84765625 710 l 2
 532.84765625 710 550.84765625 706 572.84765625 700 c 0
 594.84765625 694 610.84765625 689 621.84765625 684 c 0
 628.84765625 681 633.84765625 676 635.84765625 670 c 0
 635.84765625 668 636.84765625 664 636.84765625 660 c 0
 636.84765625 656 634.84765625 651 632.84765625 644 c 0
 631.84765625 639 629.84765625 634 625.84765625 631 c 0
 621.84765625 628 617.84765625 626 614.84765625 626 c 2
 605.84765625 626 l 2
 599.84765625 626 593.84765625 627 587.84765625 629 c 0
 582.84765625 630 576.84765625 634 569.84765625 638 c 0
 562.84765625 642 553.84765625 646 542.84765625 649 c 0
 531.84765625 652 517.84765625 655 502.84765625 655 c 2
 493.84765625 656 l 1
 480.84765625 596 462.84765625 518 441.84765625 421 c 1
 453.84765625 419 l 2
 477.84765625 415 497.84765625 408 514.84765625 399 c 0
 532.84765625 389 545.84765625 378 555.84765625 366 c 0
 565.84765625 354 572.84765625 341 576.84765625 326 c 0
 580.84765625 311 583.84765625 295 583.84765625 279 c 0
 583.84765625 263 581.84765625 247 576.84765625 227 c 0
 569.84765625 198 559.84765625 170 543.84765625 144 c 0
 527.84765625 118 510.84765625 96 490.84765625 76 c 0
 470.84765625 56 449.84765625 40 426.84765625 26 c 0
 403.84765625 12 379.84765625 1 354.84765625 -6 c 2
 348.84765625 -8 l 1
 339.84765625 -52 333.84765625 -82 331.84765625 -96 c 0
 327.84765625 -107 321.84765625 -117 313.84765625 -123 c 0
 305.84765625 -129 297.84765625 -132 288.84765625 -132 c 2
 287.84765625 -132 l 2
 285.84765625 -132 282.84765625 -131 280.84765625 -131 c 0
 277.84765625 -129 275.84765625 -125 275.84765625 -118 c 0
 275.84765625 -113 276.84765625 -106 278.84765625 -97 c 0
 283.84765625 -81 289.84765625 -54 297.84765625 -17 c 1
 283.84765625 -17 l 1
 279.84765625 -17 l 2
 259.84765625 -17 242.84765625 -14 225.84765625 -8 c 0
325.84765625 468 m 0
 338.84765625 450 357.84765625 437 383.84765625 429 c 2
 394.84765625 426 l 1
 406.84765625 480 422.84765625 555 442.84765625 651 c 1
 424.84765625 645 l 2
 396.84765625 636 372.84765625 623 352.84765625 603 c 0
 332.84765625 583 319.84765625 560 314.84765625 533 c 0
 312.84765625 526 311.84765625 520 311.84765625 513 c 0
 311.84765625 496 316.84765625 481 325.84765625 468 c 0
514.84765625 241 m 0
 514.84765625 253 512.84765625 266 507.84765625 281 c 0
 503.84765625 294 495.84765625 306 483.84765625 317 c 0
 471.84765625 328 456.84765625 338 437.84765625 346 c 2
 425.84765625 352 l 1
 422.84765625 338 l 1
 422.84765625 338 411.84765625 287 390.84765625 188 c 0
 378.84765625 133 368.84765625 88 360.84765625 53 c 1
 380.84765625 62 l 2
 412.84765625 76 440.84765625 95 464.84765625 120 c 0
 488.84765625 145 503.84765625 173 510.84765625 205 c 0
 512.84765625 217 514.84765625 229 514.84765625 241 c 0
EndSplineSet
Validated: 524289
EndChar

StartChar: percent
Encoding: 37 37 15
Width: 650
GlyphClass: 2
Flags: HMW
HStem: -16 52<415.432 450.932 423.932 450.932> 184 49<478.432 479.432> 444 51<283.432 317.932 291.932 317.932> 645 48<347.432 351.932>
VStem: 226.932 41<522.5 546.5> 358.932 41<63.5 86.5> 389.932 41<589.5 628> 520.932 35<99 143> 520.932 45<129.5 169>
LayerCount: 2
Fore
SplineSet
249.932617188 461 m 0xfa
 238.932617188 472 230.932617188 486 228.932617188 503 c 0
 227.932617188 510 226.932617188 518 226.932617188 527 c 0
 226.932617188 536 227.932617188 548 230.932617188 561 c 0
 239.932617188 600 255.932617188 631 278.932617188 656 c 0
 301.932617188 681 330.932617188 693 363.932617188 693 c 0
 389.932617188 693 408.932617188 683 420.932617188 664 c 0
 427.932617188 653 430.932617188 638 430.932617188 618 c 0
 430.932617188 601 427.932617188 581 421.932617188 559 c 0
 412.932617188 521 396.932617188 493 375.932617188 473 c 0
 354.932617188 453 327.932617188 444 292.932617188 444 c 2
 291.932617188 444 l 2
 274.932617188 444 260.932617188 450 249.932617188 461 c 0xfa
126.932617188 12 m 0
 148.932617188 44 192.932617188 104 257.932617188 192 c 2
 452.932617188 470 l 2
 518.932617188 563 564.932617188 629 590.932617188 670 c 0
 598.932617188 680 607.932617188 686 617.932617188 688 c 0
 620.932617188 688 624.932617188 689 626.932617188 689 c 0
 631.932617188 689 635.932617188 687 640.932617188 684 c 0
 643.932617188 683 645.932617188 681 646.932617188 680 c 0
 647.932617188 679 648.932617188 675 648.932617188 673 c 0
 648.932617188 665 644.932617188 654 633.932617188 641 c 0
 600.932617188 600 524.932617188 497 406.932617188 330 c 0
 291.932617188 163 212.932617188 51 170.932617188 -9 c 0
 161.932617188 -21 153.932617188 -29 146.932617188 -34 c 0
 141.932617188 -37 136.932617188 -39 132.932617188 -39 c 0
 128.932617188 -39 125.932617188 -38 122.932617188 -36 c 0
 119.932617188 -34 115.932617188 -31 114.932617188 -29 c 0
 113.932617188 -27 112.932617188 -24 112.932617188 -21 c 0
 112.932617188 -12 117.932617188 -1 126.932617188 12 c 0
315.932617188 495 m 2
 317.932617188 495 l 2
 334.932617188 495 348.932617188 501 359.932617188 514 c 0
 370.932617188 527 379.932617188 543 385.932617188 563 c 0
 387.932617188 574 389.932617188 585 389.932617188 594 c 0
 389.932617188 605 388.932617188 615 383.932617188 623 c 0
 374.932617188 638 361.932617188 645 341.932617188 645 c 0
 324.932617188 645 309.932617188 638 297.932617188 623 c 0
 286.932617188 610 277.932617188 592 271.932617188 570 c 0
 269.932617188 560 267.932617188 551 267.932617188 542 c 0
 267.932617188 533 268.932617188 526 271.932617188 519 c 0
 278.932617188 505 293.932617188 497 315.932617188 495 c 2
381.932617188 1 m 0
 370.932617188 12 363.932617188 26 360.932617188 43 c 0
 359.932617188 50 358.932617188 59 358.932617188 68 c 0xfc80
 358.932617188 77 360.932617188 88 362.932617188 101 c 0
 370.932617188 140 387.932617188 171 410.932617188 196 c 0
 433.932617188 221 461.932617188 233 494.932617188 233 c 0
 507.932617188 233 519.932617188 231 528.932617188 226 c 0
 538.932617188 221 547.932617188 214 554.932617188 204 c 0
 561.932617188 194 565.932617188 179 565.932617188 159 c 0
 565.932617188 142 562.932617188 122 555.932617188 100 c 1xfd
 555.932617188 99 l 1
 544.932617188 61 528.932617188 32 507.932617188 12 c 0
 486.932617188 -7 459.932617188 -16 426.932617188 -16 c 2
 423.932617188 -16 l 2
 406.932617188 -16 392.932617188 -10 381.932617188 1 c 0
447.932617188 36 m 2
 450.932617188 36 l 2
 466.932617188 36 480.932617188 42 491.932617188 55 c 0
 502.932617188 68 511.932617188 83 516.932617188 103 c 0
 518.932617188 114 520.932617188 125 520.932617188 134 c 0
 520.932617188 152 516.932617188 165 505.932617188 174 c 0
 496.932617188 181 485.932617188 184 472.932617188 184 c 0
 455.932617188 184 441.932617188 176 429.932617188 162 c 0
 417.932617188 149 408.932617188 131 403.932617188 110 c 0
 401.932617188 100 399.932617188 91 399.932617188 82 c 0
 399.932617188 73 401.932617188 66 404.932617188 59 c 0
 411.932617188 45 425.932617188 37 447.932617188 36 c 2
EndSplineSet
Validated: 524289
EndChar

StartChar: ampersand
Encoding: 38 38 16
Width: 650
GlyphClass: 2
Flags: HMW
HStem: -29 69 657 55
VStem: 123.865 71<105.001 142.501> 301.866 64<541.001 542.001> 468.866 71<8.00098 34>
LayerCount: 2
Fore
SplineSet
535.866210938 5 m 0
 530.866210938 -11 523.866210938 -20.9990234375 515.866210938 -23.9990234375 c 0
 510.866210938 -25.9990234375 506.866210938 -27.9990234375 502.866210938 -27.9990234375 c 0
 497.866210938 -27.9990234375 493.866210938 -25.9990234375 489.866210938 -23.9990234375 c 0
 480.866210938 -17.9990234375 473.866210938 -6.9990234375 468.866210938 8.0009765625 c 0
 468.866210938 12.0009765625 466.866210938 22.0009765625 464.866210938 38.0009765625 c 0
 462.866210938 54.0009765625 460.866210938 65.0009765625 458.866210938 73.0009765625 c 2
 453.866210938 97.0009765625 l 1
 437.866210938 79.0009765625 l 2
 435.866210938 77.0009765625 430.866210938 70.0009765625 422.866210938 62.0009765625 c 2
 404.866210938 44.0009765625 l 2
 385.866210938 25.0009765625 372.866210938 13.0009765625 364.866210938 8.0009765625 c 0
 358.866210938 4.0009765625 350.866210938 0.0009765625 341.866210938 -5.9990234375 c 0
 332.866210938 -11.9990234375 323.866210938 -16.9990234375 315.866210938 -18.9990234375 c 0
 307.866210938 -20.9990234375 298.866210938 -23.9990234375 287.866210938 -25.9990234375 c 0
 276.866210938 -27.9990234375 266.866210938 -28.9990234375 256.866210938 -28.9990234375 c 0
 224.866210938 -28.9990234375 197.866210938 -19.9990234375 175.866210938 -2.9990234375 c 0
 153.866210938 14.0009765625 137.866210938 37.0009765625 129.866210938 66.0009765625 c 0
 125.866210938 81.0009765625 123.866210938 97.0009765625 123.866210938 113.000976562 c 0
 123.866210938 129.000976562 125.866210938 145.000976562 129.866210938 162.000976562 c 0
 157.866210938 284.000976562 222.866210938 367.000976562 326.866210938 411.000976562 c 2
 337.866210938 416.000976562 l 1
 321.866210938 460.000976562 312.866210938 486.000976562 310.866210938 491.000976562 c 0
 308.866210938 497.000976562 306.866210938 505.000976562 304.866210938 513.000976562 c 0
 302.866210938 521.000976562 301.866210938 528.000976562 301.866210938 533.000976562 c 0
 301.866210938 551.000976562 303.866210938 569.000976562 307.866210938 587.000976562 c 0
 312.866210938 609.000976562 323.866210938 632.000976562 341.866210938 653.000976562 c 0
 350.866210938 664.000976562 361.866210938 675.000976562 373.866210938 683.000976562 c 0
 385.866210938 691.000976562 400.866210938 698.000976562 418.866210938 704.000976562 c 0
 436.866210938 710.000976562 454.866210938 712.000976562 475.866210938 712.000976562 c 0
 492.866210938 712.000976562 508.866210938 710.000976562 522.866210938 704.000976562 c 0
 536.866210938 698.000976562 548.866210938 690.000976562 558.866210938 680.000976562 c 0
 568.866210938 670.000976562 574.866210938 657.000976562 578.866210938 640.000976562 c 0
 580.754882812 631.974609375 581.751953125 623.279296875 581.751953125 614.020507812 c 0
 581.751953125 603.668945312 580.505859375 592.61328125 577.866210938 581 c 0
 572.866210938 561 565.866210938 542 556.866210938 525 c 0
 547.866210938 508 538.866210938 493 528.866210938 481 c 0
 518.866210938 469 506.866210938 458 492.866210938 447 c 0
 478.866210938 436 465.866210938 427 454.866210938 421 c 0
 443.866210938 415 431.866210938 409 416.866210938 402 c 2
 407.866210938 397 l 1
 410.866210938 387 l 2
 417.866210938 366 429.866210938 335 446.866210938 294 c 0
 463.866210938 253 474.866210938 227 479.866210938 214 c 2
 487.866210938 191 l 1
 502.866210938 213 514.866210938 232 522.866210938 244 c 0
 530.866210938 256 537.866210938 266 542.866210938 273 c 0
 547.866210938 280 551.866210938 286 553.866210938 289 c 0
 567.866210938 305 578.866210938 315 587.866210938 318 c 0
 589.866210938 319 593.866210938 320 595.866210938 320 c 0
 599.866210938 320 603.866210938 318 608.866210938 316 c 0
 613.866210938 313 615.866210938 307 615.866210938 300 c 0
 615.866210938 287 608.866210938 272 597.866210938 255 c 0
 593.866210938 249 581.866210938 236 561.866210938 215 c 0
 541.866210938 194 522.866210938 174 505.866210938 153 c 1
 510.866210938 137 517.866210938 116 524.866210938 93 c 0
 531.866210938 70 535.866210938 55 536.866210938 50 c 0
 537.866210938 45 539.866210938 38 539.866210938 30 c 0
 539.866210938 22 537.866210938 14 535.866210938 5 c 0
454.866210938 657.000976562 m 0
 429.866210938 657.000976562 409.866210938 648.000976562 394.866210938 631.000976562 c 0
 382.866210938 617.000976562 373.866210938 598.000976562 368.866210938 575.000976562 c 0
 366.866210938 566.000976562 365.866210938 556.000976562 365.866210938 546.000976562 c 0
 365.866210938 536.000976562 366.866210938 526.000976562 368.866210938 515.000976562 c 0
 371.866210938 493.000976562 378.866210938 474.000976562 387.866210938 458.000976562 c 2
 392.866210938 450.000976562 l 1
 402.866210938 453.000976562 l 2
 417.866210938 458.000976562 431.866210938 463.000976562 442.866210938 468.000976562 c 0
 453.866210938 473.000976562 464.866210938 480.000976562 475.866210938 489.000976562 c 0
 486.866210938 498.000976562 496.866210938 508.000976562 503.866210938 521.000976562 c 0
 510.866210938 534.000976562 516.866210938 550.000976562 520.866210938 567.000976562 c 0
 522.866210938 576.000976562 524.866210938 585.000976562 524.866210938 593.000976562 c 0
 524.866210938 610.000976562 519.866210938 623.000976562 510.866210938 634.000976562 c 0
 496.866210938 649.000976562 477.866210938 657.000976562 454.866210938 657.000976562 c 0
207.866210938 82.0009765625 m 0
 222.866210938 54.0009765625 247.866210938 40.0009765625 280.866210938 40.0009765625 c 0
 295.866210938 40.0009765625 312.866210938 43.0009765625 332.866210938 49.0009765625 c 0
 339.866210938 51.0009765625 347.866210938 56.0009765625 355.866210938 61.0009765625 c 0
 363.866210938 66.0009765625 368.866210938 69.0009765625 373.866210938 72.0009765625 c 0
 378.866210938 75.0009765625 383.866210938 80.0009765625 390.866210938 87.0009765625 c 0
 397.866210938 94.0009765625 403.866210938 99.0009765625 405.866210938 102.000976562 c 0
 407.866210938 105.000976562 412.866210938 109.000976562 418.866210938 116.000976562 c 0
 424.866210938 123.000976562 428.866210938 127.000976562 429.866210938 128.000976562 c 2
 434.866210938 133.000976562 l 1
 428.866210938 163.000976562 423.866210938 186.000976562 419.866210938 201.000976562 c 0
 414.866210938 217.000976562 404.866210938 242.000976562 390.866210938 277.000976562 c 0
 376.866210938 312.000976562 366.866210938 337.000976562 360.866210938 354.000976562 c 2
 355.866210938 366.000976562 l 1
 343.866210938 361.000976562 l 2
 322.866210938 352.000976562 303.866210938 341.000976562 286.866210938 327.000976562 c 0
 269.866210938 313.000976562 255.866210938 298.000976562 244.866210938 282.000976562 c 0
 233.866210938 266.000976562 224.866210938 249.000976562 217.866210938 232.000976562 c 0
 210.866210938 215.000976562 205.866210938 197.000976562 200.866210938 177.000976562 c 0
 196.866210938 162.000976562 194.866210938 149.000976562 194.866210938 136.000976562 c 0
 194.866210938 115.000976562 198.866210938 97.0009765625 207.866210938 82.0009765625 c 0
EndSplineSet
Validated: 524289
EndChar

StartChar: quotesingle
Encoding: 39 39 17
Width: 650
GlyphClass: 2
Flags: HMW
HStem: 458 302<412.354 491.354 412.354 491.354>
LayerCount: 2
Fore
SplineSet
492.353515625 760 m 2
 500.353515625 760 507.353515625 758 513.353515625 754 c 0
 514.353515625 753 516.353515625 750 517.353515625 746 c 0
 518.353515625 742 517.353515625 737 516.353515625 730 c 0
 510.353515625 704 501.353515625 663 487.353515625 608 c 0
 473.353515625 553 462.353515625 513 454.353515625 490 c 0
 450.353515625 479 444.353515625 470 436.353515625 465 c 0
 428.353515625 460 421.353515625 458 414.353515625 458 c 2
 412.353515625 458 l 2
 402.353515625 459 394.353515625 463 389.353515625 468 c 0
 387.353515625 470 386.353515625 473 386.353515625 477 c 0
 386.353515625 481 387.353515625 484 388.353515625 489 c 0
 398.353515625 524 408.353515625 563 418.353515625 609 c 0
 428.353515625 655 437.353515625 696 444.353515625 731 c 0
 444.353515625 737 446.353515625 743 450.353515625 747 c 0
 454.353515625 751 458.353515625 754 462.353515625 755 c 0
 471.353515625 758 479.353515625 760 486.353515625 760 c 2
 491.353515625 760 l 1
 492.353515625 760 l 2
EndSplineSet
Validated: 524289
EndChar

StartChar: parenleft
Encoding: 40 40 18
Width: 650
GlyphClass: 2
Flags: HMW
HStem: -119 60<364.692 407.192> 745 57<572.692 605.692>
VStem: 237.192 71<140.5 147.5>
LayerCount: 2
Fore
SplineSet
403.192382812 -59 m 0
 411.192382812 -59 416.192382812 -61 418.192382812 -64 c 0
 419.192382812 -65 421.192382812 -67 421.192382812 -71 c 0
 421.192382812 -75 419.192382812 -81 418.192382812 -90 c 0
 416.192382812 -98 412.192382812 -104 404.192382812 -110 c 0
 396.192382812 -116 389.192382812 -119 383.192382812 -119 c 0
 346.192382812 -119 315.192382812 -105 291.192382812 -76 c 0
 266.192382812 -45 250.192382812 -3 242.192382812 52 c 0
 239.192382812 77 237.192382812 103 237.192382812 130 c 0
 237.192382812 165 239.192382812 203 245.192382812 244 c 0
 252.192382812 293 268.192382812 356 292.192382812 433 c 0
 316.192382812 510 342.192382812 574 371.192382812 623 c 0
 384.192382812 644 399.192382812 666 417.192382812 687 c 0
 435.192382812 708 454.192382812 727 475.192382812 744 c 0
 496.192382812 761 518.192382812 775 540.192382812 786 c 0
 562.192382812 797 582.192382812 802 602.192382812 802 c 0
 609.192382812 802 614.192382812 801 616.192382812 799 c 0
 618.192382812 797 620.192382812 793 620.192382812 788 c 0
 620.192382812 785 620.192382812 781 619.192382812 776 c 0
 617.192382812 765 612.192382812 757 605.192382812 752 c 0
 598.192382812 747 591.192382812 745 582.192382812 745 c 0
 563.192382812 745 546.192382812 740 528.192382812 729 c 0
 510.192382812 718 493.192382812 703 478.192382812 685 c 0
 449.192382812 651 424.192382812 609 402.192382812 558 c 0
 385.192382812 523 368.192382812 475 351.192382812 414 c 0
 334.192382812 353 323.192382812 304 317.192382812 268 c 0
 311.192382812 232 308.192382812 197 308.192382812 164 c 0
 308.192382812 117 313.192382812 76 322.192382812 41 c 0
 329.192382812 12 340.192382812 -11 353.192382812 -29 c 0
 368.192382812 -49 384.192382812 -59 403.192382812 -59 c 0
EndSplineSet
Validated: 524289
EndChar

StartChar: parenright
Encoding: 41 41 19
Width: 650
GlyphClass: 2
Flags: HMW
HStem: -119 60<206.056 210.056> 745 57<388.056 418.056>
VStem: 490.556 65<551.5 571>
LayerCount: 2
Fore
SplineSet
555.555664062 571 m 0
 555.555664062 532 551.555664062 488 544.555664062 438 c 0
 533.555664062 361 519.555664062 298 503.555664062 250 c 0
 480.555664062 177 452.555664062 113 418.555664062 57 c 0
 384.555664062 1 348.555664062 -42 308.555664062 -73 c 0
 268.555664062 -104 229.555664062 -119 190.555664062 -119 c 0
 185.555664062 -119 180.555664062 -117 176.555664062 -112 c 0
 174.555664062 -110 173.555664062 -106 173.555664062 -102 c 2
 173.555664062 -96 l 2
 176.555664062 -81 181.555664062 -71 187.555664062 -66 c 0
 193.555664062 -61 201.555664062 -59 210.555664062 -59 c 0
 227.555664062 -59 247.555664062 -50 269.555664062 -31 c 0
 290.555664062 -14 310.555664062 10 331.555664062 38 c 0
 352.555664062 66 371.555664062 99 391.555664062 139 c 0
 411.555664062 179 426.555664062 218 439.555664062 259 c 0
 451.555664062 297 463.555664062 348 474.555664062 410 c 0
 485.555664062 472 490.555664062 522 490.555664062 560 c 0
 490.555664062 582 489.555664062 603 486.555664062 624 c 0
 483.555664062 645 478.555664062 663 471.555664062 682 c 0
 464.555664062 701 454.555664062 716 440.555664062 728 c 0
 426.555664062 740 410.555664062 745 391.555664062 745 c 0
 384.555664062 745 378.555664062 747 374.555664062 751 c 0
 372.555664062 753 371.555664062 755 371.555664062 759 c 0
 371.555664062 763 372.555664062 768 373.555664062 773 c 0
 374.555664062 778 377.555664062 784 380.555664062 788 c 0
 383.555664062 792 386.555664062 795 388.555664062 796 c 0
 395.555664062 800 401.555664062 802 408.555664062 802 c 0
 427.555664062 802 445.555664062 797 462.555664062 787 c 0
 479.555664062 777 493.555664062 764 505.555664062 747 c 0
 517.555664062 730 528.555664062 711 536.555664062 690 c 0
 544.555664062 669 550.555664062 648 552.555664062 627 c 0
 554.555664062 610 555.555664062 592 555.555664062 571 c 0
EndSplineSet
Validated: 524289
EndChar

StartChar: asterisk
Encoding: 42 42 20
Width: 650
GlyphClass: 2
Flags: HMW
HStem: 305 80<196.901 219.401> 313 71<585.401 605.901> 319 52<488.901 498.901 447.401 516.401>
VStem: 315.401 62 415.401 66<145 173>
LayerCount: 2
Fore
SplineSet
441.400390625 129 m 0x98
 434.400390625 129 428.400390625 131 423.400390625 134 c 0
 421.400390625 135 418.400390625 137 417.400390625 139 c 0
 416.400390625 141 415.400390625 144 415.400390625 146 c 0
 414.400390625 173 407.400390625 213 394.400390625 264 c 2
 387.400390625 290 l 1
 372.400390625 268 l 2
 328.400390625 206 300.400390625 165 289.400390625 145 c 0
 286.400390625 139 281.400390625 134 276.400390625 131 c 0
 271.400390625 129 265.400390625 126 260.400390625 126 c 2
 254.400390625 126 l 2
 252.400390625 126 248.400390625 126 244.400390625 127 c 0
 240.400390625 128 235.400390625 130 233.400390625 132 c 0
 231.400390625 134 228.400390625 137 227.400390625 141 c 0
 226.400390625 145 225.400390625 148 225.400390625 151 c 2
 225.400390625 159 l 2
 225.400390625 166 229.400390625 173 235.400390625 182 c 2
 339.400390625 312 l 1
 312.400390625 311 l 2
 261.400390625 307 223.400390625 305 199.400390625 305 c 0
 194.400390625 305 189.400390625 307 186.400390625 308 c 0
 183.400390625 309 180.400390625 312 178.400390625 315 c 0
 175.400390625 320 173.400390625 325 173.400390625 331 c 2
 175.400390625 341 l 2
 175.400390625 346 177.400390625 351 179.400390625 356 c 0
 186.400390625 369 193.400390625 378 202.400390625 382 c 0
 207.400390625 384 211.400390625 385 216.400390625 385 c 2
 219.400390625 385 l 2
 247.400390625 383 294.400390625 379 361.400390625 374 c 1
 355.400390625 391 l 2
 340.400390625 440 326.400390625 477 315.400390625 503 c 0
 313.400390625 509 312.400390625 515 312.400390625 521 c 0
 312.400390625 527 313.400390625 534 315.400390625 540 c 0
 319.400390625 551 325.400390625 559 333.400390625 562 c 0
 339.400390625 566 345.400390625 568 351.400390625 568 c 0
 356.400390625 568 362.400390625 566 367.400390625 562 c 0
 372.400390625 558 376.400390625 552 377.400390625 545 c 0
 380.400390625 529 391.400390625 483 411.400390625 406 c 1
 427.400390625 426 l 2
 462.400390625 471 490.400390625 509 510.400390625 540 c 0
 515.400390625 549 522.400390625 556 529.400390625 560 c 0
 536.400390625 564 543.400390625 566 548.400390625 566 c 0
 553.400390625 566 558.400390625 564 561.400390625 561 c 2
 562.400390625 561 l 2
 564.400390625 560 567.400390625 557 568.400390625 552 c 0
 568.400390625 550 569.400390625 546 569.400390625 543 c 0
 569.400390625 530 565.400390625 518 555.400390625 507 c 0
 528.400390625 476 496.400390625 437 461.400390625 390 c 2
 447.400390625 371 l 1x38
 471.400390625 371 l 2
 526.400390625 371 567.400390625 375 593.400390625 382 c 0
 597.400390625 383 601.400390625 384 603.400390625 384 c 0x58
 608.400390625 384 612.400390625 381 614.400390625 378 c 0
 618.400390625 373 621.400390625 367 621.400390625 362 c 0
 621.400390625 357 619.400390625 350 615.400390625 341 c 0
 608.400390625 328 601.400390625 319 593.400390625 315 c 0
 591.400390625 314 588.400390625 313 586.400390625 313 c 0
 584.400390625 313 582.400390625 314 581.400390625 314 c 0
 565.400390625 317 537.400390625 319 495.400390625 319 c 0x38
 482.400390625 319 463.400390625 318 438.400390625 318 c 1
 479.400390625 187 l 2
 480.400390625 182 481.400390625 176 481.400390625 170 c 0
 481.400390625 164 480.400390625 159 478.400390625 154 c 0
 475.400390625 145 470.400390625 138 464.400390625 134 c 0
 458.400390625 130 450.400390625 129 441.400390625 129 c 0x98
EndSplineSet
Validated: 524289
EndChar

StartChar: plus
Encoding: 43 43 21
Width: 650
GlyphClass: 2
Flags: HMW
HStem: 370 59<359.64 388.64 359.64 388.64>
LayerCount: 2
Fore
SplineSet
265.639648438 369 m 2
 254.639648438 369 246.639648438 371 244.639648438 376 c 0
 242.639648438 379 240.639648438 383 240.639648438 388 c 0
 240.639648438 390 241.639648438 394 241.639648438 397 c 0
 243.639648438 407 248.639648438 415 255.639648438 422 c 0
 262.639648438 428 270.639648438 431 281.639648438 431 c 2
 284.639648438 431 l 2
 327.639648438 430 358.639648438 429 378.639648438 429 c 2
 388.639648438 429 l 1
 397.639648438 469 406.639648438 508 413.639648438 547 c 0
 414.639648438 557 418.639648438 565 423.639648438 570 c 0
 430.639648438 577 439.639648438 580 451.639648438 580 c 2
 454.639648438 580 l 2
 461.639648438 580 467.639648438 578 471.639648438 575 c 0
 472.639648438 574 473.639648438 571 473.639648438 567 c 0
 473.639648438 563 472.639648438 559 470.639648438 553 c 0
 459.639648438 514 449.639648438 472 438.639648438 427 c 1
 556.639648438 427 l 2
 566.639648438 427 572.639648438 425 573.639648438 423 c 0
 574.639648438 421 576.639648438 418 576.639648438 413 c 0
 576.639648438 406 574.639648438 398 571.639648438 391 c 0
 569.639648438 387 566.639648438 383 563.639648438 379 c 0
 558.639648438 373 551.639648438 370 542.639648438 370 c 2
 542.639648438 370 540.639648438 371 538.639648438 371 c 0
 528.639648438 371 514.639648438 372 494.639648438 372 c 0
 474.639648438 372 451.639648438 371 424.639648438 371 c 1
 419.639648438 347 413.639648438 323 408.639648438 298 c 0
 403.639648438 273 399.639648438 258 398.639648438 253 c 0
 395.639648438 240 390.639648438 232 385.639648438 227 c 0
 379.639648438 223 372.639648438 220 364.639648438 220 c 0
 357.639648438 220 352.639648438 221 349.639648438 223 c 0
 346.639648438 225 345.639648438 229 345.639648438 235 c 0
 345.639648438 239 345.639648438 243 346.639648438 248 c 2
 374.639648438 370 l 1
 359.639648438 370 l 1
 265.639648438 369 l 2
EndSplineSet
Validated: 524289
EndChar

StartChar: comma
Encoding: 44 44 22
Width: 650
GlyphClass: 2
Flags: HMW
VStem: 201.297 234
LayerCount: 2
Fore
SplineSet
201.296875 -185 m 2
 201.296875 -182 l 2
 201.296875 -176 204.296875 -169 211.296875 -161 c 0
 229.296875 -140 258.296875 -95 297.296875 -27 c 0
 336.296875 41 361.296875 89 372.296875 116 c 0
 374.296875 123 380.296875 129 386.296875 133 c 0
 392.296875 137 398.296875 139 403.296875 139 c 2
 404.296875 139 l 2
 410.296875 139 416.296875 138 421.296875 137 c 0
 426.296875 135 431.296875 131 433.296875 125 c 0
 434.296875 123 435.296875 120 435.296875 117 c 0
 435.296875 114 433.296875 108 431.296875 101 c 0
 418.296875 68 393.296875 19 357.296875 -48 c 0
 321.296875 -115 296.296875 -157 282.296875 -172 c 0
 270.296875 -185 257.296875 -195 242.296875 -200 c 0
 234.296875 -202 227.296875 -204 221.296875 -204 c 0
 218.296875 -204 214.296875 -203 212.296875 -202 c 0
 209.296875 -201 206.296875 -198 204.296875 -196 c 0
 202.296875 -193 201.296875 -189 201.296875 -185 c 2
EndSplineSet
Validated: 524289
EndChar

StartChar: hyphen
Encoding: 45 45 23
Width: 650
GlyphClass: 2
Flags: HMW
HStem: 255 62<267.372 307.372> 264 56<476.872 504.372>
LayerCount: 2
Fore
SplineSet
289.872070312 317 m 0x80
 324.872070312 317 366.872070312 317 415.872070312 318 c 0
 464.872070312 319 492.872070312 320 499.872070312 320 c 0x40
 508.872070312 320 514.872070312 318 516.872070312 316 c 0
 518.872070312 312 519.872070312 306 518.872070312 298 c 0
 516.872070312 287 510.872070312 278 505.872070312 273 c 0
 499.872070312 267 491.872070312 264 480.872070312 264 c 0
 472.872070312 264 440.872070312 262 385.872070312 259 c 0
 330.872070312 256 291.872070312 255 270.872070312 255 c 0
 263.872070312 255 257.872070312 256 254.872070312 258 c 0
 251.872070312 260 250.872070312 264 250.872070312 270 c 0
 250.872070312 274 251.872070312 278 252.872070312 283 c 0
 253.872070312 294 257.872070312 303 262.872070312 308 c 0
 269.872070312 314 278.872070312 317 289.872070312 317 c 0x80
EndSplineSet
Validated: 524289
EndChar

StartChar: period
Encoding: 46 46 24
Width: 650
GlyphClass: 2
Flags: HMW
HStem: -2 130<305.475 369.475 312.975 369.475>
VStem: 272.975 131<37.5 90.5>
LayerCount: 2
Fore
SplineSet
403.974609375 85 m 0
 403.974609375 80 402.974609375 74 401.974609375 68 c 0
 397.974609375 49 389.974609375 34 374.974609375 21 c 0
 359.974609375 8 341.974609375 0 320.974609375 -2 c 2
 312.974609375 -2 l 2
 297.974609375 -2 287.974609375 3 280.974609375 13 c 0
 275.974609375 22 272.974609375 32 272.974609375 43 c 0
 272.974609375 49 273.974609375 55 274.974609375 61 c 0
 278.974609375 79 289.974609375 94 306.974609375 107 c 0
 325.974609375 121 342.974609375 128 361.974609375 128 c 0
 376.974609375 128 388.974609375 123 395.974609375 113 c 0
 400.974609375 105 403.974609375 96 403.974609375 85 c 0
EndSplineSet
Validated: 1
EndChar

StartChar: slash
Encoding: 47 47 25
Width: 650
GlyphClass: 2
Flags: W
LayerCount: 2
Fore
SplineSet
91.94140625 -31 m 0
 91.94140625 -28 92.94140625 -24 92.94140625 -20 c 0
 94.94140625 -3 102.94140625 12 113.94140625 27 c 0
 241.94140625 187 351.94140625 329 444.94140625 454 c 0
 503.94140625 530 566.94140625 617 633.94140625 714 c 0
 640.94140625 723 646.94140625 730 654.94140625 734 c 0
 662.94140625 738 669.94140625 741 675.94140625 741 c 0
 681.94140625 741 686.94140625 739 692.94140625 737 c 0
 698.94140625 733 702.94140625 727 702.94140625 719 c 0
 702.94140625 710 695.94140625 698 686.94140625 683 c 0
 662.94140625 649 598.94140625 566 493.94140625 433 c 0
 388.94140625 300 324.94140625 218 301.94140625 185 c 0
 286.94140625 164 262.94140625 129 228.94140625 80 c 0
 194.94140625 31 173.94140625 1 165.94140625 -10 c 0
 152.94140625 -27 137.94140625 -38 122.94140625 -45 c 0
 115.94140625 -47 110.94140625 -49 106.94140625 -49 c 0
 102.94140625 -49 98.94140625 -48 96.94140625 -46 c 2
 95.94140625 -46 l 2
 93.94140625 -44 91.94140625 -38 91.94140625 -31 c 0
EndSplineSet
Validated: 524289
EndChar

StartChar: zero
Encoding: 48 48 26
Width: 650
GlyphClass: 2
Flags: HMW
HStem: -12 60<311.334 311.834> 649 57<470.334 471.334>
VStem: 163.334 77<133.5 211>
LayerCount: 2
Fore
SplineSet
174.333984375 211 m 0
 175.333984375 218 178.333984375 235 184.333984375 261 c 0
 190.333984375 287 195.333984375 308 199.333984375 324 c 0
 203.333984375 340 209.333984375 361 216.333984375 388 c 0
 223.333984375 415 230.333984375 438 236.333984375 458 c 0
 242.333984375 478 250.333984375 500 260.333984375 522 c 0
 270.333984375 544 279.333984375 565 288.333984375 582 c 0
 310.333984375 623 338.333984375 653 373.333984375 674 c 0
 408.333984375 695 448.333984375 706 492.333984375 706 c 0
 514.333984375 706 535.333984375 702 553.333984375 693 c 0
 571.333984375 684 586.333984375 671 598.333984375 655 c 0
 610.333984375 639 618.333984375 618 623.333984375 591 c 0
 625.333984375 578 626.333984375 564 626.333984375 548 c 0
 626.333984375 532 624.333984375 516 622.333984375 496 c 0
 617.333984375 463 609.333984375 425 600.333984375 383 c 0
 591.333984375 341 580.333984375 298 568.333984375 256 c 0
 556.333984375 214 545.333984375 181 534.333984375 159 c 0
 514.333984375 117 494.333984375 82 474.333984375 57 c 0
 465.333984375 45 457.333984375 34 446.333984375 26 c 0
 435.333984375 18 425.333984375 11 415.333984375 6 c 0
 405.333984375 1 394.333984375 -3 382.333984375 -5 c 0
 370.333984375 -7 358.333984375 -10 346.333984375 -11 c 0
 334.333984375 -12 320.333984375 -12 303.333984375 -12 c 0
 278.333984375 -12 255.333984375 -7 234.333984375 3 c 0
 213.333984375 13 198.333984375 27 186.333984375 46 c 0
 174.333984375 65 166.333984375 88 164.333984375 116 c 0
 164.333984375 123 163.333984375 130 163.333984375 137 c 0
 163.333984375 159 167.333984375 184 174.333984375 211 c 0
376.333984375 616 m 0
 353.333984375 594 332.333984375 559 312.333984375 511 c 0
 305.333984375 494 298.333984375 473 292.333984375 451 c 0
 286.333984375 429 279.333984375 402 272.333984375 370 c 0
 265.333984375 338 260.333984375 315 258.333984375 302 c 2
 244.333984375 232 l 2
 244.333984375 230 242.333984375 226 242.333984375 221 c 0
 242.333984375 216 240.333984375 212 240.333984375 210 c 2
 225.333984375 160 l 1
 261.333984375 198 l 1
 363.333984375 321 458.333984375 447 549.333984375 576 c 1
 554.333984375 581 l 1
 551.333984375 588 l 2
 542.333984375 608 530.333984375 622 514.333984375 633 c 0
 499.333984375 644 481.333984375 649 461.333984375 649 c 0
 428.333984375 649 399.333984375 638 376.333984375 616 c 0
364.333984375 53 m 0
 377.333984375 56 391.333984375 61 404.333984375 70 c 0
 431.333984375 86 454.333984375 117 475.333984375 162 c 0
 479.333984375 171 486.333984375 194 496.333984375 230 c 0
 507.333984375 266 519.333984375 307 531.333984375 354 c 0
 543.333984375 401 551.333984375 446 558.333984375 489 c 2
 566.333984375 542 l 1
 536.333984375 498 l 1
 443.333984375 352 346.333984375 230 242.333984375 131 c 1
 237.333984375 127 l 1
 238.333984375 120 l 2
 243.333984375 93 254.333984375 74 271.333984375 62 c 0
 284.333984375 53 301.333984375 48 321.333984375 48 c 0
 337.333984375 48 351.333984375 50 364.333984375 53 c 0
EndSplineSet
Validated: 524289
EndChar

StartChar: one
Encoding: 49 49 27
Width: 650
GlyphClass: 2
Flags: HMW
HStem: 3 67
LayerCount: 2
Fore
SplineSet
535.346679688 47 m 2
 535.346679688 40 l 2
 533.346679688 29 528.346679688 21 521.346679688 14 c 0
 514.346679688 7 503.346679688 3 488.346679688 3 c 0
 285.346679688 5 170.346679688 7 148.346679688 7 c 0
 139.346679688 7 134.346679688 9 132.346679688 13 c 0
 130.346679688 16 128.346679688 19 128.346679688 23 c 0
 128.346679688 27 130.346679688 31 130.346679688 35 c 0
 132.346679688 46 135.346679688 55 142.346679688 62 c 0
 149.346679688 69 158.346679688 72 169.346679688 72 c 0
 197.346679688 72 245.346679688 71 312.346679688 70 c 1
 319.346679688 103 325.346679688 129 327.346679688 146 c 0
 327.346679688 151 330.346679688 168 336.346679688 197 c 2
 350.346679688 262 l 2
 352.346679688 275 359.346679688 300 367.346679688 336 c 0
 375.346679688 372 382.346679688 399 386.346679688 417 c 0
 401.346679688 481 416.346679688 549 436.346679688 620 c 1
 409.346679688 598 l 2
 362.346679688 558 328.346679688 534 308.346679688 525 c 0
 306.346679688 524 304.346679688 523 302.346679688 523 c 0
 298.346679688 523 293.346679688 527 289.346679688 532 c 0
 284.346679688 539 283.346679688 545 283.346679688 551 c 0
 283.346679688 553 284.346679688 555 284.346679688 557 c 0
 285.346679688 566 288.346679688 574 293.346679688 581 c 0
 298.346679688 588 305.346679688 595 316.346679688 604 c 0
 335.346679688 619 354.346679688 636 375.346679688 653 c 2
 422.346679688 692 l 2
 433.346679688 699 443.346679688 705 452.346679688 710 c 0
 461.346679688 715 468.346679688 718 473.346679688 718 c 0
 482.346679688 718 491.346679688 713 500.346679688 704 c 0
 507.346679688 697 512.346679688 691 512.346679688 686 c 2
 512.346679688 685 l 1
 512.346679688 685 498.346679688 633 471.346679688 529 c 0
 444.346679688 430 429.346679688 373 426.346679688 357 c 0
 412.346679688 290 400.346679688 234 391.346679688 190 c 0
 386.346679688 165 378.346679688 124 369.346679688 67 c 1
 394.346679688 67 428.346679688 66 468.346679688 65 c 0
 490.346679688 65 505.346679688 64 511.346679688 64 c 0
 517.346679688 64 523.346679688 63 526.346679688 62 c 0
 529.346679688 61 532.346679688 59 532.346679688 58 c 0
 534.346679688 56 535.346679688 52 535.346679688 47 c 2
EndSplineSet
Validated: 524289
EndChar

StartChar: two
Encoding: 50 50 28
Width: 650
GlyphClass: 2
Flags: HMW
HStem: -5 59 0 64<490.989 496.989> 650 60<470.489 482.489>
VStem: 562.989 68<578.5 582>
LayerCount: 2
Fore
SplineSet
312.989257812 -5 m 0xb0
 285.989257812 -6 256.989257812 -7 225.989257812 -7 c 0
 194.989257812 -7 170.989257812 -6 153.989257812 -4 c 0
 149.989257812 -4 147.989257812 -1 145.989257812 1 c 0
 142.989257812 5 139.989257812 12 139.989257812 23 c 0
 139.989257812 38 144.989257812 57 149.989257812 81 c 0
 156.989257812 108 167.989257812 137 185.989257812 167 c 0
 203.989257812 197 226.989257812 227 255.989257812 256 c 0
 282.989257812 284 309.989257812 307 338.989257812 324 c 0
 407.989257812 365 454.989257812 393 475.989257812 409 c 0
 504.989257812 431 526.989257812 456 539.989257812 482 c 0
 546.989257812 496 553.989257812 514 558.989257812 536 c 0
 560.989257812 549 562.989257812 560 562.989257812 571 c 0
 562.989257812 593 556.989257812 610 544.989257812 623 c 0
 527.989257812 641 499.989257812 650 464.989257812 650 c 0
 440.989257812 650 417.989257812 642 392.989257812 625 c 0
 367.989257812 608 347.989257812 590 331.989257812 569 c 0
 318.989257812 553 308.989257812 544 302.989257812 544 c 2
 298.989257812 544 l 2
 297.989257812 544 295.989257812 544 293.989257812 545 c 0
 291.989257812 546 286.989257812 549 281.989257812 551 c 0
 276.989257812 554 275.989257812 559 275.989257812 566 c 0
 275.989257812 572 281.989257812 584 290.989257812 603 c 0
 297.989257812 615 307.989257812 627 320.989257812 639 c 0
 333.989257812 651 348.989257812 662 365.989257812 673 c 0
 382.989257812 684 401.989257812 693 421.989257812 700 c 0
 441.989257812 707 460.989257812 710 479.989257812 710 c 0
 541.989257812 710 583.989257812 695 608.989257812 664 c 0
 623.989257812 645 630.989257812 620 630.989257812 588 c 0
 630.989257812 569 628.989257812 548 623.989257812 525 c 0
 610.989257812 472 587.989257812 430 555.989257812 398 c 0
 531.989257812 374 493.989257812 347 442.989257812 318 c 0
 426.989257812 308 406.989257812 296 379.989257812 281 c 0
 349.989257812 265 322.989257812 246 300.989257812 223 c 0
 278.989257812 200 261.989257812 176 248.989257812 151 c 0
 235.989257812 127 223.989257812 101 215.989257812 73 c 2
 211.989257812 58 l 1
 258.989257812 56 298.989257812 54 331.989257812 54 c 0
 356.989257812 54 375.989257812 55 391.989257812 56 c 0
 407.989257812 57 420.989257812 58 431.989257812 59 c 0
 442.989257812 60 461.989257812 62 490.989257812 64 c 2x70
 499.989257812 64 l 2
 503.989257812 64 507.989257812 65 511.989257812 65 c 0
 515.989257812 65 519.989257812 64 521.989257812 64 c 0
 522.989257812 63 524.989257812 61 526.989257812 60 c 2
 526.989257812 56 l 1
 526.989257812 52 l 2
 526.989257812 45 524.989257812 37 521.989257812 29 c 0
 518.989257812 21 512.989257812 14 506.989257812 8 c 0
 502.989257812 3 498.989257812 0 494.989257812 0 c 0
 454.989257812 0 395.989257812 -1 312.989257812 -5 c 0xb0
EndSplineSet
Validated: 524289
EndChar

StartChar: three
Encoding: 51 51 29
Width: 650
GlyphClass: 2
Flags: HMW
HStem: -12 60<320.957 342.957> 330 76<350.957 371.457> 650 60<448.957 462.957>
VStem: 488.457 74<214.5 271> 550.457 69<584.5 585.5>
LayerCount: 2
Fore
SplineSet
555.45703125 201 m 0xf0
 540.45703125 136 510.45703125 84 466.45703125 45 c 0
 424.45703125 7 373.45703125 -12 312.45703125 -12 c 0
 293.45703125 -12 275.45703125 -9 257.45703125 -2 c 0
 239.45703125 4 224.45703125 12 211.45703125 22 c 0
 198.45703125 32 187.45703125 44 178.45703125 56 c 0
 169.45703125 68 163.45703125 80 161.45703125 91 c 0
 160.45703125 96 159.45703125 101 159.45703125 107 c 0
 159.45703125 113 161.45703125 119 163.45703125 125 c 0
 168.45703125 135 174.45703125 142 182.45703125 146 c 0
 190.45703125 150 197.45703125 152 202.45703125 152 c 0
 204.45703125 152 207.45703125 151 209.45703125 151 c 0
 216.45703125 149 221.45703125 143 226.45703125 132 c 0
 235.45703125 110 249.45703125 90 269.45703125 73 c 0
 287.45703125 56 308.45703125 48 333.45703125 48 c 0
 369.45703125 48 401.45703125 60 429.45703125 84 c 0
 457.45703125 108 476.45703125 140 484.45703125 179 c 0
 486.45703125 194 488.45703125 208 488.45703125 221 c 0
 488.45703125 248 482.45703125 271 467.45703125 289 c 0
 445.45703125 316 402.45703125 330 340.45703125 330 c 0
 337.45703125 330 333.45703125 332 331.45703125 333 c 0
 329.45703125 334 326.45703125 337 324.45703125 341 c 0
 321.45703125 346 319.45703125 352 319.45703125 359 c 0
 319.45703125 361 320.45703125 365 320.45703125 368 c 0
 322.45703125 380 327.45703125 389 333.45703125 396 c 0
 339.45703125 403 346.45703125 406 355.45703125 406 c 0
 404.45703125 406 445.45703125 418 478.45703125 442 c 0
 514.45703125 466 537.45703125 501 546.45703125 546 c 0
 548.45703125 557 550.45703125 566 550.45703125 575 c 0xe8
 550.45703125 596 543.45703125 612 528.45703125 625 c 0
 508.45703125 642 481.45703125 650 444.45703125 650 c 0
 432.45703125 650 419.45703125 647 405.45703125 642 c 0
 400.45703125 640 394.45703125 636 388.45703125 632 c 0
 382.45703125 628 377.45703125 624 374.45703125 622 c 0
 371.45703125 620 367.45703125 614 361.45703125 608 c 2
 348.45703125 595 l 2
 346.45703125 593 342.45703125 587 337.45703125 580 c 0
 326.45703125 567 317.45703125 560 310.45703125 558 c 0
 308.45703125 558 306.45703125 557 304.45703125 557 c 0
 299.45703125 557 295.45703125 559 290.45703125 562 c 0
 288.45703125 564 285.45703125 566 284.45703125 568 c 0
 283.45703125 570 283.45703125 574 283.45703125 577 c 0
 283.45703125 588 288.45703125 600 297.45703125 615 c 0
 312.45703125 640 333.45703125 662 359.45703125 680 c 0
 372.45703125 689 388.45703125 697 405.45703125 702 c 0
 422.45703125 707 439.45703125 710 458.45703125 710 c 0
 522.45703125 710 568.45703125 695 594.45703125 666 c 0
 611.45703125 648 619.45703125 624 619.45703125 593 c 0
 619.45703125 576 616.45703125 556 611.45703125 535 c 0
 607.45703125 516 601.45703125 500 593.45703125 485 c 0
 585.45703125 470 576.45703125 458 566.45703125 448 c 0
 556.45703125 438 545.45703125 429 532.45703125 421 c 0
 519.45703125 413 507.45703125 408 495.45703125 403 c 0
 484.45703125 398 472.45703125 394 459.45703125 392 c 2
 411.45703125 381 l 1
 459.45703125 368 l 2
 480.45703125 363 497.45703125 356 511.45703125 348 c 0
 525.45703125 340 537.45703125 330 546.45703125 317 c 0
 557.45703125 302 562.45703125 283 562.45703125 259 c 0
 562.45703125 242 560.45703125 222 555.45703125 201 c 0xf0
EndSplineSet
Validated: 524289
EndChar

StartChar: four
Encoding: 52 52 30
Width: 650
GlyphClass: 2
Flags: HMW
HStem: 236 55<353.087 457.587 444.587 445.587>
VStem: 401.587 50 401.587 63<17 62 19 62>
LayerCount: 2
Fore
SplineSet
408.586914062 -1 m 0xa0
 403.586914062 5 401.586914062 11 401.586914062 17 c 2
 401.586914062 19 l 1
 406.586914062 40 414.586914062 78 425.586914062 134 c 2
 445.586914062 236 l 1
 393.586914062 236 l 2
 312.586914062 236 252.586914062 232 211.586914062 223 c 0
 207.586914062 223 203.586914062 222 200.586914062 222 c 0
 197.586914062 222 193.586914062 222 191.586914062 223 c 0
 187.586914062 225 184.586914062 228 182.586914062 231 c 0
 180.586914062 238 178.586914062 246 178.586914062 255 c 0
 178.586914062 260 180.586914062 266 181.586914062 274 c 0
 182.586914062 282 185.586914062 290 189.586914062 297 c 0
 200.586914062 315 223.586914062 345 260.586914062 387 c 0
 295.586914062 429 337.586914062 480 387.586914062 542 c 0
 437.586914062 604 475.586914062 650 499.586914062 679 c 0
 509.586914062 690 519.586914062 699 529.586914062 705 c 0
 539.586914062 711 548.586914062 713 555.586914062 713 c 2
 556.586914062 713 l 1
 562.586914062 713 l 2
 569.586914062 713 576.586914062 711 581.586914062 708 c 0
 586.586914062 705 588.586914062 699 588.586914062 691 c 2
 588.586914062 691 587.586914062 689 587.586914062 688 c 0
 586.586914062 665 580.586914062 629 571.586914062 581 c 0
 562.586914062 533 554.586914062 491 547.586914062 458 c 2
 511.586914062 291 l 1
 532.586914062 291 549.586914062 290 562.586914062 290 c 0
 572.586914062 290 578.586914062 287 580.586914062 285 c 0
 582.586914062 281 582.586914062 275 581.586914062 267 c 0
 579.586914062 256 574.586914062 247 569.586914062 242 c 0
 563.586914062 235 555.586914062 232 543.586914062 232 c 0
 531.586914062 232 516.586914062 233 499.586914062 234 c 1
 477.586914062 129 464.586914062 69 464.586914062 55 c 0
 464.586914062 36 459.586914062 20 451.586914062 7 c 0xc0
 444.586914062 -5 436.586914062 -11 427.586914062 -11 c 0
 420.586914062 -11 414.586914062 -8 408.586914062 -1 c 0xa0
526.586914062 640 m 1
 498.586914062 610 l 1
 389.586914062 481 311.586914062 380 265.586914062 308 c 2
 251.586914062 287 l 1
 276.586914062 289 l 2
 308.586914062 291 347.586914062 292 391.586914062 292 c 0
 409.586914062 292 431.586914062 291 457.586914062 291 c 1
 486.586914062 423 506.586914062 526 519.586914062 600 c 2
 526.586914062 640 l 1
EndSplineSet
Validated: 524289
EndChar

StartChar: five
Encoding: 53 53 31
Width: 650
GlyphClass: 2
Flags: HMW
HStem: -6 60<309.027 326.027> 433 64<430.527 491.027> 633 62<598.027 656.027 640.527 656.027> 639 61
VStem: 523.527 70<327 379.5>
LayerCount: 2
Fore
SplineSet
586.526367188 299 m 0xd8
 575.526367188 250 559.526367188 207 539.526367188 168 c 0
 520.526367188 129 498.526367188 97 475.526367188 72 c 0
 452.526367188 47 426.526367188 27 398.526367188 14 c 0
 370.526367188 1 341.526367188 -6 310.526367188 -6 c 0
 286.526367188 -6 263.526367188 -3 243.526367188 3 c 0
 222.526367188 9 206.526367188 17 194.526367188 26 c 0
 182.526367188 35 174.526367188 45 167.526367188 56 c 0
 160.526367188 67 154.526367188 78 151.526367188 89 c 0
 150.526367188 96 150.526367188 102 150.526367188 108 c 0
 150.526367188 114 150.526367188 121 152.526367188 126 c 0
 156.526367188 134 163.526367188 140 172.526367188 145 c 0
 183.526367188 150 191.526367188 152 195.526367188 152 c 0
 196.526367188 152 198.526367188 151 200.526367188 151 c 0
 202.526367188 151 205.526367188 150 206.526367188 148 c 0
 208.526367188 144 211.526367188 138 214.526367188 131 c 0
 225.526367188 103 241.526367188 83 262.526367188 70 c 0
 279.526367188 59 298.526367188 54 319.526367188 54 c 0
 364.526367188 54 406.526367188 75 442.526367188 117 c 0
 477.526367188 159 502.526367188 213 517.526367188 282 c 0
 521.526367188 302 523.526367188 319 523.526367188 335 c 0
 523.526367188 356 519.526367188 374 512.526367188 389 c 0
 505.526367188 405 495.526367188 417 480.526367188 424 c 0
 468.526367188 430 454.526367188 433 438.526367188 433 c 0
 422.526367188 433 405.526367188 430 388.526367188 426 c 0
 378.526367188 424 366.526367188 418 350.526367188 409 c 0
 346.526367188 407 340.526367188 403 333.526367188 398 c 0
 326.526367188 393 321.526367188 389 319.526367188 387 c 0
 317.526367188 385 308.526367188 376 293.526367188 363 c 0
 282.526367188 354 269.526367188 348 255.526367188 347 c 0
 254.526367188 347 253.526367188 346 252.526367188 346 c 0
 247.526367188 346 242.526367188 348 237.526367188 350 c 0
 230.526367188 353 227.526367188 364 227.526367188 383 c 0
 227.526367188 396 229.526367188 412 233.526367188 432 c 0
 237.526367188 452 242.526367188 473 248.526367188 494 c 0
 254.526367188 515 261.526367188 538 268.526367188 563 c 0
 275.526367188 588 279.526367188 606 281.526367188 619 c 1
 280.526367188 623 l 2
 278.526367188 627 277.526367188 632 277.526367188 638 c 0
 277.526367188 640 278.526367188 644 278.526367188 646 c 0
 278.526367188 656 281.526367188 665 285.526367188 673 c 0
 289.526367188 681 293.526367188 687 299.526367188 692 c 0
 305.526367188 697 311.526367188 700 316.526367188 700 c 0
 337.526367188 700 385.526367188 699 463.526367188 698 c 0
 544.526367188 697 607.526367188 696 651.526367188 696 c 0
 652.526367188 696 654.526367188 695 655.526367188 695 c 0xe8
 656.526367188 695 657.526367188 693 657.526367188 692 c 0
 659.526367188 687 661.526367188 682 661.526367188 676 c 2
 661.526367188 672 l 2
 661.526367188 664 658.526367188 657 656.526367188 650 c 0
 655.526367188 647 653.526367188 644 652.526367188 642 c 0
 651.526367188 640 649.526367188 637 647.526367188 636 c 0
 645.526367188 635 643.526367188 633 641.526367188 633 c 0
 639.526367188 633 635.526367188 631 632.526367188 631 c 2
 625.526367188 631 l 2
 624.526367188 631 620.526367188 632 615.526367188 632 c 0
 610.526367188 632 605.526367188 633 600.526367188 633 c 0
 595.526367188 633 582.526367188 634 561.526367188 636 c 0
 540.526367188 638 521.526367188 640 505.526367188 641 c 0
 489.526367188 642 468.526367188 643 439.526367188 643 c 0
 410.526367188 643 376.526367188 641 339.526367188 639 c 1
 336.526367188 626 331.526367188 604 323.526367188 572 c 0
 315.526367188 540 310.526367188 517 307.526367188 502 c 0
 304.526367188 487 298.526367188 454 288.526367188 403 c 1
 313.526367188 430 l 2
 333.526367188 450 356.526367188 465 385.526367188 478 c 0
 414.526367188 491 446.526367188 497 479.526367188 497 c 0
 502.526367188 497 522.526367188 492 538.526367188 482 c 0
 556.526367188 473 567.526367188 459 576.526367188 442 c 0
 587.526367188 421 593.526367188 395 593.526367188 364 c 0
 593.526367188 343 591.526367188 321 586.526367188 299 c 0xd8
EndSplineSet
Validated: 524289
EndChar

StartChar: six
Encoding: 54 54 32
Width: 650
GlyphClass: 2
Flags: HMW
HStem: -10 60<306.332 340.832> 405 64<404.332 471.332>
VStem: 172.832 58<186.5 192> 515.832 71<299 358>
LayerCount: 2
Fore
SplineSet
574.83203125 248 m 0
 566.83203125 213 552.83203125 178 533.83203125 146 c 0
 514.83203125 114 493.83203125 86 470.83203125 64 c 0
 449.83203125 42 426.83203125 23 400.83203125 10 c 0
 374.83203125 -3 348.83203125 -10 322.83203125 -10 c 0
 289.83203125 -10 260.83203125 -3 237.83203125 12 c 0
 214.83203125 27 198.83203125 48 188.83203125 75 c 0
 178.83203125 102 172.83203125 134 172.83203125 171 c 0
 172.83203125 213 179.83203125 260 192.83203125 313 c 0
 205.83203125 370 222.83203125 421 243.83203125 465 c 0
 264.83203125 509 286.83203125 547 308.83203125 578 c 0
 329.83203125 609 353.83203125 635 379.83203125 656 c 0
 405.83203125 677 433.83203125 693 461.83203125 704 c 0
 491.83203125 715 524.83203125 722 561.83203125 725 c 2
 568.83203125 725 l 2
 577.83203125 725 585.83203125 723 590.83203125 720 c 0
 592.83203125 719 593.83203125 716 594.83203125 714 c 0
 595.83203125 712 596.83203125 709 596.83203125 708 c 2
 596.83203125 704 l 2
 596.83203125 699 591.83203125 692 582.83203125 684 c 0
 573.83203125 676 565.83203125 670 556.83203125 668 c 0
 549.83203125 667 538.83203125 664 523.83203125 661 c 0
 508.83203125 658 495.83203125 654 484.83203125 651 c 0
 474.83203125 648 462.83203125 643 449.83203125 637 c 0
 422.83203125 624 392.83203125 601 361.83203125 567 c 0
 345.83203125 549 329.83203125 525 312.83203125 494 c 0
 295.83203125 463 282.83203125 436 273.83203125 412 c 2
 255.83203125 362 l 1
 293.83203125 399 l 2
 314.83203125 422 339.83203125 440 367.83203125 452 c 0
 395.83203125 464 426.83203125 469 458.83203125 469 c 0
 483.83203125 469 505.83203125 466 524.83203125 458 c 0
 543.83203125 450 556.83203125 438 567.83203125 421 c 0
 580.83203125 401 586.83203125 375 586.83203125 341 c 0
 586.83203125 314 582.83203125 283 574.83203125 248 c 0
331.83203125 378 m 0
 302.83203125 360 275.83203125 337 251.83203125 309 c 2
 249.83203125 307 l 1
 241.83203125 276 235.83203125 251 233.83203125 232 c 0
 231.83203125 221 230.83203125 209 230.83203125 197 c 0
 230.83203125 176 233.83203125 156 239.83203125 136 c 0
 244.83203125 120 250.83203125 105 259.83203125 92 c 0
 268.83203125 79 279.83203125 69 294.83203125 61 c 0
 307.83203125 54 322.83203125 50 338.83203125 50 c 2
 340.83203125 50 l 2
 362.83203125 50 386.83203125 59 408.83203125 78 c 0
 430.83203125 97 450.83203125 119 467.83203125 147 c 0
 486.83203125 175 498.83203125 203 505.83203125 232 c 0
 512.83203125 262 515.83203125 288 515.83203125 310 c 0
 515.83203125 335 510.83203125 355 500.83203125 369 c 0
 490.83203125 382 478.83203125 392 465.83203125 397 c 0
 452.83203125 402 437.83203125 405 418.83203125 405 c 0
 389.83203125 405 360.83203125 396 331.83203125 378 c 0
EndSplineSet
Validated: 524289
EndChar

StartChar: seven
Encoding: 55 55 33
Width: 650
GlyphClass: 2
Flags: HMW
HStem: 634 68
LayerCount: 2
Fore
SplineSet
647.108398438 631 m 0
 634.108398438 611 611.108398438 581 579.108398438 541 c 0
 548.108398438 501 515.108398438 459 484.108398438 417 c 0
 453.108398438 375 413.108398438 319 366.108398438 249 c 0
 319.108398438 179 272.108398438 107 225.108398438 33 c 0
 214.108398438 16 203.108398438 4 191.108398438 -3 c 0
 182.108398438 -8 175.108398438 -11 168.108398438 -11 c 2
 163.108398438 -11 l 2
 159.108398438 -10 155.108398438 -7 153.108398438 -4 c 0
 151.108398438 -1 150.108398438 3 150.108398438 9 c 0
 150.108398438 15 153.108398438 24 159.108398438 37 c 0
 206.108398438 105 255.108398438 173 304.108398438 241 c 0
 351.108398438 309 391.108398438 362 422.108398438 403 c 0
 453.108398438 444 480.108398438 483 507.108398438 522 c 0
 534.108398438 561 555.108398438 592 568.108398438 616 c 2
 576.108398438 633 l 1
 556.108398438 634 l 2
 531.108398438 634.5 505.608398438 634.75 479.233398438 634.75 c 0
 452.858398438 634.75 425.608398438 634.5 397.108398438 634 c 0
 340.108398438 633 302.108398438 629 282.108398438 624 c 0
 280.108398438 624 278.108398438 623 277.108398438 623 c 0
 276.108398438 623 274.108398438 624 273.108398438 624 c 0
 271.108398438 625 268.108398438 628 267.108398438 630 c 0
 265.108398438 637 263.108398438 646 264.108398438 658 c 0
 266.108398438 666 271.108398438 673 276.108398438 679 c 0
 281.108398438 685 288.108398438 690 301.108398438 692 c 0
 332.108398438 699 384.108398438 702 454.108398438 702 c 0
 476.108398438 702 521.108398438 700 587.108398438 697 c 0
 619.108398438 696 636.108398438 695 638.108398438 695 c 0
 648.108398438 695 655.108398438 691 660.108398438 682 c 0
 661.108398438 680 663.108398438 676 663.108398438 673 c 0
 663.108398438 670 662.108398438 667 662.108398438 665 c 0
 661.108398438 656 656.108398438 644 647.108398438 631 c 0
EndSplineSet
Validated: 524289
EndChar

StartChar: eight
Encoding: 56 56 34
Width: 650
GlyphClass: 2
Flags: HMW
HStem: -16 61<321.405 325.905> 658 48<438.405 478.405 452.905 478.405>
VStem: 153.905 58<122.5 164> 260.905 60 510.905 67<217.5 249.5> 549.905 62<550 586>
LayerCount: 2
Fore
SplineSet
577.905273438 244 m 0xf8
 577.905273438 233 575.905273438 221 572.905273438 207 c 0
 562.905273438 163 542.905273438 122 511.905273438 85 c 0
 494.905273438 65 478.905273438 49 459.905273438 34 c 0
 440.905273438 19 418.905273438 7 392.905273438 -2 c 0
 366.905273438 -11 339.905273438 -16 311.905273438 -16 c 0
 282.905273438 -16 256.905273438 -12 235.905273438 -3 c 0
 214.905273438 6 197.905273438 16 186.905273438 29 c 0
 175.905273438 42 166.905273438 58 161.905273438 77 c 0
 156.905273438 96 153.905273438 113 153.905273438 132 c 0
 153.905273438 151 155.905273438 172 160.905273438 194 c 0
 165.905273438 215 175.905273438 237 191.905273438 262 c 0
 207.905273438 287 228.905273438 310 252.905273438 331 c 0
 274.905273438 353 298.905273438 368 320.905273438 376 c 2
 344.905273438 384 l 1
 322.905273438 398 l 2
 298.905273438 413 281.905273438 432 271.905273438 457 c 0
 264.905273438 473 260.905273438 489 260.905273438 505 c 0
 260.905273438 514 261.905273438 523 263.905273438 531 c 0
 265.905273438 539 268.905273438 547 271.905273438 556 c 0
 273.905273438 565 278.905273438 574 284.905273438 586 c 0
 290.905273438 598 295.905273438 609 302.905273438 620 c 0
 309.905273438 631 319.905273438 641 330.905273438 652 c 0
 341.905273438 663 352.905273438 672 365.905273438 680 c 0
 378.905273438 688 393.905273438 694 411.905273438 699 c 0
 429.905273438 704 447.905273438 706 467.905273438 706 c 0
 488.905273438 706 506.905273438 704 524.905273438 699 c 0
 542.905273438 694 556.905273438 688 566.905273438 681 c 0
 576.905273438 674 584.905273438 664 591.905273438 654 c 0
 598.905273438 644 604.905273438 634 606.905273438 624 c 0
 609.905273438 611 611.905273438 595 611.905273438 577 c 0xf4
 611.905273438 563 609.905273438 548 606.905273438 533 c 0
 605.905273438 526 602.905273438 519 599.905273438 512 c 0
 596.905273438 505 592.905273438 499 588.905273438 493 c 0
 584.905273438 487 578.905273438 481 572.905273438 475 c 0
 566.905273438 469 560.905273438 464 555.905273438 459 c 0
 547.905273438 452 531.905273438 441 508.905273438 426 c 2
 463.905273438 396 l 1
 481.905273438 386 l 2
 500.905273438 376 516.905273438 365 529.905273438 352 c 0
 542.905273438 339 552.905273438 327 559.905273438 315 c 0
 566.905273438 303 571.905273438 292 573.905273438 279 c 0
 575.905273438 266 577.905273438 255 577.905273438 244 c 0xf8
509.905273438 638 m 0
 492.905273438 651 474.905273438 658 453.905273438 658 c 2
 452.905273438 658 l 2
 423.905273438 658 397.905273438 646 371.905273438 622 c 0
 345.905273438 598 329.905273438 570 323.905273438 541 c 0
 321.905273438 534 320.905273438 527 320.905273438 521 c 0
 320.905273438 502 326.905273438 486 338.905273438 471 c 0
 353.905273438 453 379.905273438 435 416.905273438 417 c 2
 420.905273438 415 l 1
 424.905273438 416 l 1
 451.905273438 428 476.905273438 444 500.905273438 465 c 0
 527.905273438 486 542.905273438 506 546.905273438 526 c 0
 548.905273438 535 549.905273438 545 549.905273438 555 c 0
 549.905273438 565 547.905273438 576 544.905273438 587 c 0
 538.905273438 608 526.905273438 625 509.905273438 638 c 0
221.905273438 114 m 0
 232.905273438 92 247.905273438 74 268.905273438 63 c 0
 288.905273438 51 309.905273438 45 332.905273438 45 c 0
 349.905273438 45 366.905273438 49 384.905273438 55 c 0
 402.905273438 61 419.905273438 70 435.905273438 81 c 0
 451.905273438 92 465.905273438 107 478.905273438 126 c 0
 491.905273438 145 500.905273438 165 505.905273438 186 c 0
 508.905273438 199 510.905273438 212 510.905273438 223 c 0xf8
 510.905273438 233 508.905273438 244 505.905273438 257 c 0
 502.905273438 270 497.905273438 282 489.905273438 294 c 0
 482.905273438 306 471.905273438 318 457.905273438 330 c 0
 443.905273438 342 426.905273438 353 405.905273438 363 c 2
 402.905273438 365 l 1
 398.905273438 364 l 2
 354.905273438 351 315.905273438 328 282.905273438 295 c 0
 246.905273438 262 223.905273438 227 214.905273438 189 c 0
 212.905273438 179 211.905273438 169 211.905273438 159 c 0
 211.905273438 143 214.905273438 128 221.905273438 114 c 0
EndSplineSet
Validated: 524289
EndChar

StartChar: nine
Encoding: 57 57 35
Width: 650
GlyphClass: 2
Flags: HMW
HStem: 248 64<339.433 403.433> 667 60<447.433 492.933 458.433 492.933>
VStem: 219.433 68<412.5 427> 568.433 57<522.5 530.5>
LayerCount: 2
Fore
SplineSet
602.432617188 382 m 0
 589.432617188 330 572.432617188 283 551.432617188 241 c 0
 530.432617188 199 506.432617188 162 482.432617188 133 c 0
 459.432617188 104 433.432617188 79 405.432617188 58 c 0
 377.432617188 37 348.432617188 22 318.432617188 11 c 0
 286.432617188 0 252.432617188 -7 215.432617188 -10 c 0
 213.432617188 -10 211.432617188 -11 209.432617188 -11 c 0
 200.432617188 -11 193.432617188 -8 187.432617188 -5 c 0
 185.432617188 -4 182.432617188 -2 181.432617188 0 c 0
 180.432617188 2 180.432617188 6 180.432617188 10 c 0
 180.432617188 16 185.432617188 22 193.432617188 30 c 0
 201.432617188 38 211.432617188 44 220.432617188 46 c 0
 227.432617188 48 238.432617188 51 254.432617188 55 c 0
 270.432617188 59 286.432617188 62 299.432617188 65 c 0
 310.432617188 68 324.432617188 73 339.432617188 79 c 0
 372.432617188 92 402.432617188 114 431.432617188 145 c 0
 449.432617188 165 465.432617188 188 482.432617188 214 c 0
 499.432617188 241 513.432617188 265 522.432617188 286 c 2
 544.432617188 341 l 1
 502.432617188 300 l 2
 483.432617188 280 462.432617188 266 438.432617188 259 c 0
 414.432617188 252 385.432617188 248 350.432617188 248 c 0
 328.432617188 248 307.432617188 253 289.432617188 266 c 0
 269.432617188 279 254.432617188 295 243.432617188 316 c 0
 232.432617188 337 224.432617188 362 221.432617188 390 c 0
 220.432617188 399 219.432617188 408 219.432617188 417 c 0
 219.432617188 437 221.432617188 456 226.432617188 476 c 0
 235.432617188 512 247.432617188 546 266.432617188 577 c 0
 285.432617188 608 305.432617188 635 327.432617188 657 c 0
 348.432617188 679 371.432617188 696 397.432617188 708 c 0
 423.432617188 720 451.432617188 727 478.432617188 727 c 0
 507.432617188 727 532.432617188 721 553.432617188 710 c 0
 579.432617188 696 598.432617188 673 610.432617188 642 c 0
 620.432617188 615 625.432617188 583 625.432617188 546 c 0
 625.432617188 499 617.432617188 444 602.432617188 382 c 0
559.432617188 581 m 0
 554.432617188 597 548.432617188 611 539.432617188 624 c 0
 530.432617188 637 518.432617188 647 503.432617188 655 c 0
 490.432617188 663 475.432617188 667 459.432617188 667 c 2
 458.432617188 667 l 2
 436.432617188 667 412.432617188 659 389.432617188 642 c 0
 366.432617188 625 347.432617188 603 330.432617188 577 c 0
 313.432617188 551 301.432617188 523 295.432617188 494 c 0
 289.432617188 468 287.432617188 445 287.432617188 425 c 0
 287.432617188 400 292.432617188 378 301.432617188 361 c 0
 318.432617188 328 348.432617188 312 390.432617188 312 c 0
 416.432617188 312 443.432617188 319 470.432617188 333 c 0
 498.432617188 347 522.432617188 366 544.432617188 391 c 1
 547.432617188 393 l 1
 552.432617188 415 557.432617188 445 564.432617188 485 c 0
 566.432617188 496 568.432617188 508 568.432617188 520 c 0
 568.432617188 541 565.432617188 561 559.432617188 581 c 0
EndSplineSet
Validated: 524289
EndChar

StartChar: colon
Encoding: 58 58 36
Width: 650
GlyphClass: 2
Flags: HMW
HStem: 52 131<322.271 366.771 326.771 366.771> 319 131<391.771 427.771 391.771 427.771>
VStem: 292.771 108<80 151.5 84 151.5> 353.771 109<343 424 351 424>
LayerCount: 2
Fore
SplineSet
353.771484375 351 m 2xd0
 355.771484375 369 361.771484375 392 368.771484375 419 c 0
 369.771484375 426 372.771484375 432 376.771484375 436 c 0
 380.771484375 440 386.771484375 443 392.771484375 445 c 0
 402.771484375 448 411.771484375 450 420.771484375 450 c 2
 427.771484375 450 l 2
 437.771484375 450 446.771484375 448 454.771484375 443 c 0
 459.771484375 440 462.771484375 433 462.771484375 424 c 2
 462.771484375 419 l 1
 458.771484375 398 450.771484375 376 439.771484375 352 c 0
 434.771484375 341 427.771484375 332 417.771484375 327 c 0
 407.771484375 322 400.771484375 319 393.771484375 319 c 2
 391.771484375 319 l 2
 379.771484375 320 370.771484375 323 363.771484375 327 c 0
 359.771484375 329 356.771484375 331 355.771484375 334 c 0
 354.771484375 337 353.771484375 340 353.771484375 343 c 2
 353.771484375 351 l 2xd0
292.771484375 80 m 2xe0
 292.771484375 84 l 1
 297.771484375 110 l 2
 297.771484375 112 300.771484375 117 301.771484375 122 c 0
 302.771484375 127 305.771484375 137 310.771484375 152 c 0
 311.771484375 158 314.771484375 163 318.771484375 167 c 0
 322.771484375 171 327.771484375 175 332.771484375 177 c 0
 343.771484375 181 352.771484375 183 360.771484375 183 c 2
 366.771484375 183 l 2
 372.771484375 183 378.771484375 182 383.771484375 180 c 0
 388.771484375 178 391.771484375 175 395.771484375 170 c 0
 399.771484375 165 401.771484375 160 401.771484375 153 c 2
 401.771484375 153 400.771484375 152 400.771484375 151 c 0
 399.771484375 129 392.771484375 106 381.771484375 83 c 0
 376.771484375 73 368.771484375 65 357.771484375 60 c 0
 346.771484375 55 337.771484375 52 329.771484375 52 c 2
 326.771484375 52 l 2
 317.771484375 52 308.771484375 56 300.771484375 62 c 0
 295.771484375 67 292.771484375 73 292.771484375 80 c 2xe0
EndSplineSet
Validated: 524289
EndChar

StartChar: semicolon
Encoding: 59 59 37
Width: 650
GlyphClass: 2
Flags: HMW
HStem: 277 131<413.863 447.863 413.863 447.863>
VStem: 374.863 109<306 382 310 382>
LayerCount: 2
Fore
SplineSet
447.86328125 408 m 2
 456.86328125 408 466.86328125 406 475.86328125 401 c 0
 477.86328125 400 480.86328125 398 481.86328125 394 c 0
 482.86328125 390 483.86328125 386 483.86328125 382 c 2
 483.86328125 377 l 1
 479.86328125 356 471.86328125 334 460.86328125 310 c 0
 455.86328125 299 447.86328125 290 438.86328125 285 c 0
 429.86328125 280 421.86328125 277 414.86328125 277 c 2
 413.86328125 277 l 2
 397.86328125 279 385.86328125 285 378.86328125 294 c 0
 376.86328125 297 374.86328125 301 374.86328125 306 c 2
 374.86328125 310 l 2
 376.86328125 328 381.86328125 351 388.86328125 378 c 0
 390.86328125 384 394.86328125 390 398.86328125 394 c 0
 402.86328125 398 408.86328125 401 414.86328125 403 c 0
 420.86328125 405 425.86328125 407 430.86328125 407 c 0
 435.86328125 407 440.86328125 408 442.86328125 408 c 2
 447.86328125 408 l 2
395.86328125 77 m 0
 389.86328125 56 349.86328125 -30 275.86328125 -182 c 0
 270.86328125 -193 263.86328125 -201 255.86328125 -206 c 0
 247.86328125 -211 240.86328125 -213 233.86328125 -213 c 2
 231.86328125 -213 l 2
 222.86328125 -213 214.86328125 -210 208.86328125 -204 c 0
 206.86328125 -202 204.86328125 -198 204.86328125 -194 c 0
 204.86328125 -190 205.86328125 -187 206.86328125 -183 c 0
 211.86328125 -168 226.86328125 -129 252.86328125 -67 c 0
 278.86328125 -5 298.86328125 41 313.86328125 74 c 0
 317.86328125 83 320.86328125 90 324.86328125 95 c 0
 328.86328125 100 333.86328125 103 335.86328125 104 c 0
 342.86328125 106 348.86328125 107 353.86328125 107 c 0
 354.86328125 107 357.86328125 106 359.86328125 106 c 0
 370.86328125 106 380.86328125 104 389.86328125 99 c 0
 394.86328125 97 397.86328125 92 397.86328125 87 c 0
 397.86328125 85 396.86328125 81 395.86328125 77 c 0
EndSplineSet
Validated: 524289
EndChar

StartChar: less
Encoding: 60 60 38
Width: 650
GlyphClass: 2
Flags: HMW
HStem: 680 20G<655.046 661.046>
LayerCount: 2
Fore
SplineSet
684.045898438 669 m 0
 684.045898438 663 681.045898438 657 676.045898438 650 c 0
 667.045898438 639 650.045898438 626 627.045898438 611 c 0
 587.045898438 585 524.045898438 543 440.045898438 483 c 0
 356.045898438 423 297.045898438 383 266.045898438 362 c 1
 276.045898438 352 l 2
 296.045898438 332 317.045898438 307 340.045898438 279 c 0
 363.045898438 251 383.045898438 226 400.045898438 203 c 0
 417.045898438 180 435.045898438 155 456.045898438 131 c 0
 477.045898438 107 496.045898438 88 513.045898438 74 c 0
 533.045898438 58 542.045898438 45 542.045898438 35 c 0
 542.045898438 32 540.045898438 27 537.045898438 20 c 0
 534.045898438 15 530.045898438 10 524.045898438 7 c 0
 518.045898438 4 510.045898438 1 501.045898438 0 c 2
 495.045898438 0 l 2
 488.045898438 0 480.045898438 2 471.045898438 5 c 0
 458.045898438 10 443.045898438 21 425.045898438 38 c 0
 407.045898438 55 388.045898438 77 367.045898438 102 c 0
 346.045898438 127 327.045898438 152 307.045898438 178 c 0
 287.045898438 204 265.045898438 230 242.045898438 258 c 0
 219.045898438 286 200.045898438 308 183.045898438 324 c 0
 180.045898438 327 178.045898438 333 178.045898438 341 c 0
 178.045898438 351 180.045898438 361 185.045898438 370 c 0
 190.045898438 379 195.045898438 385 202.045898438 389 c 0
 244.045898438 418 294.045898438 454 351.045898438 496 c 0
 408.045898438 538 461.045898438 576 508.045898438 610 c 0
 555.045898438 644 596.045898438 671 631.045898438 691 c 0
 642.045898438 697 651.045898438 700 659.045898438 700 c 0
 663.045898438 700 667.045898438 700 669.045898438 698 c 0
 677.045898438 692 682.045898438 684 683.045898438 675 c 0
 683.045898438 673 684.045898438 671 684.045898438 669 c 0
EndSplineSet
Validated: 524289
EndChar

StartChar: equal
Encoding: 61 61 39
Width: 650
GlyphClass: 2
Flags: HMW
HStem: 259 50 259 58 455 61<296.581 301.581>
LayerCount: 2
Fore
SplineSet
302.081054688 516 m 2x20
 304.081054688 516.000976562 l 2
 340.399414062 514.829101562 380.149414062 514.34375 423.331054688 514.34375 c 0
 453.865234375 514.34375 486.115234375 514.5859375 520.081054688 515 c 0
 552.081054688 515 570.081054688 516 577.081054688 516 c 0
 587.081054688 516 594.081054688 515 595.081054688 513 c 0
 596.081054688 511 597.081054688 507 597.081054688 502 c 0
 597.081054688 495 595.081054688 487 592.081054688 479 c 0
 588.081054688 470 583.081054688 463 576.081054688 461 c 0
 573.081054688 460 570.081054688 459 568.081054688 459 c 2
 561.081054688 459 l 2
 547.081054688 459 534.081054688 460 522.081054688 460 c 2
 488.081054688 460 l 1
 385.081054688 457 l 2
 343.081054688 456 312.081054688 455 291.081054688 455 c 0
 280.081054688 455 271.081054688 458 266.081054688 463 c 0
 263.081054688 466 261.081054688 470 261.081054688 475 c 0
 261.081054688 477 262.081054688 480 262.081054688 482 c 0
 264.081054688 492 270.081054688 500 277.081054688 507 c 0
 284.081054688 513 291.081054688 516 302.081054688 516 c 2x20
262.081054688 317.000976562 m 2x60
 282.081054688 317.000976562 305.081054688 316.000976562 333.081054688 316.000976562 c 0
 361.081054688 316.000976562 394.081054688 318.000976562 434.081054688 318.000976562 c 2
 532.081054688 320.000976562 l 2
 543.081054688 320.000976562 549.081054688 318.000976562 550.081054688 316.000976562 c 0
 552.081054688 313.000976562 552.081054688 307.000976562 551.081054688 298.000976562 c 0
 549.081054688 288.000976562 546.081054688 280.000976562 541.081054688 273.000976562 c 0
 539.081054688 269.000976562 535.081054688 266.000976562 531.081054688 265.000976562 c 0
 527.081054688 264.000976562 524.081054688 264.000976562 522.081054688 264.000976562 c 2
 515.081054688 264.000976562 l 2
 500.081054688 264.000976562 483.081054688 265.000976562 463.081054688 265.000976562 c 0
 443.081054688 265.000976562 402.081054688 263.000976562 338.081054688 261.000976562 c 0
 294.081054688 260.000976562 261.081054688 259.000976562 241.081054688 259.000976562 c 0
 230.081054688 259.000976562 222.081054688 261.000976562 219.081054688 266.000976562 c 0
 217.081054688 269.000976562 216.081054688 273.000976562 216.081054688 278.000976562 c 0
 216.081054688 281.000976562 217.081054688 285.000976562 217.081054688 288.000976562 c 0
 218.081054688 296.000976562 223.081054688 303.000976562 231.081054688 309.000976562 c 0xa0
 239.081054688 315.000976562 248.081054688 317.000976562 260.081054688 317.000976562 c 2
 262.081054688 317.000976562 l 2x60
EndSplineSet
Validated: 524289
EndChar

StartChar: greater
Encoding: 62 62 40
Width: 650
GlyphClass: 2
Flags: HMW
HStem: 687 20G<296.654 302.654 302.654 306.154>
LayerCount: 2
Fore
SplineSet
302.654296875 707 m 2
 309.654296875 707 317.654296875 705 326.654296875 702 c 0
 339.654296875 697 354.654296875 686 373.654296875 669 c 0
 392.654296875 652 410.654296875 631 430.654296875 606 c 0
 450.654296875 581 470.654296875 555 490.654296875 529 c 0
 510.654296875 503 532.654296875 477 554.654296875 449 c 0
 576.654296875 421 597.654296875 399 614.654296875 383 c 0
 617.654296875 380 619.654296875 374 619.654296875 366 c 0
 619.654296875 356 617.654296875 346 612.654296875 337 c 0
 607.654296875 328 602.654296875 322 595.654296875 318 c 0
 553.654296875 290 503.654296875 254 446.654296875 212 c 0
 389.654296875 170 337.654296875 131 290.654296875 97 c 0
 243.654296875 63 201.654296875 36 166.654296875 16 c 0
 155.654296875 10 146.654296875 7 138.654296875 7 c 0
 133.654296875 7 130.654296875 7 128.654296875 9 c 0
 124.654296875 12 120.654296875 16 118.654296875 20 c 0
 116.654296875 24 114.654296875 26 114.654296875 30 c 0
 114.654296875 34 113.654296875 37 113.654296875 38 c 0
 113.654296875 44 116.654296875 50 121.654296875 57 c 0
 130.654296875 68 146.654296875 81 170.654296875 96 c 0
 211.654296875 122 274.654296875 164 358.654296875 224 c 0
 442.654296875 284 501.654296875 324 532.654296875 345 c 1
 521.654296875 355 l 2
 501.654296875 375 481.654296875 400 458.654296875 428 c 0
 435.654296875 456 415.654296875 481 398.654296875 504 c 0
 381.654296875 527 362.654296875 552 341.654296875 576 c 0
 320.654296875 600 302.654296875 619 284.654296875 633 c 0
 264.654296875 649 255.654296875 662 255.654296875 672 c 0
 255.654296875 677 257.654296875 682 260.654296875 687 c 0
 263.654296875 692 268.654296875 697 274.654296875 700 c 0
 280.654296875 703 287.654296875 706 296.654296875 707 c 2
 302.654296875 707 l 2
EndSplineSet
Validated: 524289
EndChar

StartChar: question
Encoding: 63 63 41
Width: 650
GlyphClass: 2
Flags: HMW
HStem: -2 130<274.602 338.602 282.102 338.602> 650 60<458.102 471.102>
VStem: 241.102 132<37.5 90.5> 554.102 69<578.5 582>
LayerCount: 2
Fore
SplineSet
623.102539062 588 m 0
 623.102539062 569 620.102539062 548 615.102539062 525 c 0
 611.102539062 508 604.102539062 493 596.102539062 479 c 0
 588.102539062 465 579.102539062 453 569.102539062 443 c 0
 559.102539062 433 547.102539062 424 534.102539062 415 c 0
 521.102539062 406 508.102539062 396 494.102539062 387 c 0
 480.102539062 378 468.102539062 368 455.102539062 357 c 0
 442.102539062 346 431.102539062 333 419.102539062 318 c 0
 407.102539062 303 398.102539062 286 391.102539062 267 c 0
 385.102539062 252 377.102539062 240 368.102539062 232 c 0
 363.102539062 227 357.102539062 225 350.102539062 225 c 0
 348.102539062 225 344.102539062 227 339.102539062 227 c 0
 334.102539062 228 329.102539062 231 326.102539062 233 c 0
 321.102539062 237 319.102539062 242 319.102539062 249 c 0
 319.102539062 259 323.102539062 272 330.102539062 287 c 0
 338.102539062 304 348.102539062 320 360.102539062 335 c 0
 372.102539062 350 382.102539062 364 394.102539062 375 c 0
 406.102539062 386 419.102539062 397 432.102539062 407 c 0
 445.102539062 417 458.102539062 427 470.102539062 436 c 0
 482.102539062 445 494.102539062 454 505.102539062 464 c 0
 516.102539062 474 525.102539062 485 533.102539062 497 c 0
 541.102539062 509 547.102539062 522 550.102539062 535 c 0
 553.102539062 548 554.102539062 560 554.102539062 571 c 0
 554.102539062 593 548.102539062 610 536.102539062 623 c 0
 518.102539062 641 490.102539062 650 452.102539062 650 c 0
 442.102539062 650 432.102539062 648 421.102539062 643 c 0
 410.102539062 638 400.102539062 633 392.102539062 627 c 0
 384.102539062 621 375.102539062 613 365.102539062 604 c 0
 355.102539062 595 347.102539062 587 342.102539062 581 c 0
 337.102539062 575 330.102539062 567 322.102539062 558 c 0
 309.102539062 543 299.102539062 534 292.102539062 534 c 0
 291.102539062 534 288.102539062 533 287.102539062 533 c 0
 286.102539062 533 283.102539062 534 281.102539062 535 c 0
 279.102539062 536 274.102539062 538 269.102539062 540 c 0
 264.102539062 543 261.102539062 548 261.102539062 555 c 0
 261.102539062 564 266.102539062 576 277.102539062 592 c 0
 297.102539062 619 323.102539062 645 354.102539062 669 c 0
 370.102539062 681 388.102539062 691 408.102539062 699 c 0
 428.102539062 707 448.102539062 710 468.102539062 710 c 0
 531.102539062 710 575.102539062 695 600.102539062 664 c 0
 615.102539062 645 623.102539062 620 623.102539062 588 c 0
373.102539062 85 m 0
 373.102539062 80 372.102539062 74 371.102539062 68 c 0
 367.102539062 49 358.102539062 34 343.102539062 21 c 0
 328.102539062 8 310.102539062 0 290.102539062 -2 c 2
 282.102539062 -2 l 2
 267.102539062 -2 257.102539062 3 250.102539062 13 c 0
 244.102539062 22 241.102539062 32 241.102539062 43 c 0
 241.102539062 48 242.102539062 54 243.102539062 61 c 0
 248.102539062 79 258.102539062 94 275.102539062 107 c 0
 293.102539062 121 311.102539062 128 331.102539062 128 c 0
 346.102539062 128 358.102539062 123 365.102539062 113 c 0
 370.102539062 105 373.102539062 96 373.102539062 85 c 0
EndSplineSet
Validated: 524289
EndChar

StartChar: at
Encoding: 64 64 42
Width: 650
GlyphClass: 2
Flags: HMW
HStem: -117 61<267.823 315.323 282.823 315.323> 114 53<481.323 512.323> 130 56<346.323 354.323> 394 52<414.823 444.323 414.823 444.323> 625 65<467.323 503.823 480.823 496.823>
VStem: 128.822 60<100 118.5> 259.823 53<198 229> 444.823 33 595.823 51<460 533.5>
LayerCount: 2
Fore
SplineSet
518.823242188 49 m 2xdf80
 518.823242188 47 516.823242188 42 514.823242188 36 c 0
 512.823242188 30 508.823242188 22 502.823242188 12 c 0
 497.823242188 3 492.823242188 -6 487.823242188 -13 c 0
 482.823242188 -20 476.823242188 -28 468.823242188 -38 c 0
 460.823242188 -48 452.823242188 -55 444.823242188 -62 c 0
 436.823242188 -69 427.823242188 -77 415.823242188 -84 c 0
 403.823242188 -91 391.823242188 -97 379.823242188 -102 c 0
 367.823242188 -107 352.823242188 -111 336.823242188 -113 c 0
 320.823242188 -115 304.823242188 -117 287.823242188 -117 c 2
 282.823242188 -117 l 2
 252.823242188 -117 225.823242188 -109 203.823242188 -93 c 0
 181.823242188 -77 163.823242188 -55 150.823242188 -26 c 0
 135.823242188 8 128.823242188 50 128.823242188 99 c 0
 128.823242188 138 132.823242188 180 143.823242188 225 c 0
 157.823242188 283 174.823242188 338 194.823242188 388 c 0
 214.823242188 438 235.823242188 481 258.823242188 518 c 0
 281.823242188 555 308.823242188 586 334.823242188 612 c 0
 360.823242188 638 387.823242188 658 414.823242188 671 c 0
 441.823242188 684 467.823242188 690 493.823242188 690 c 0
 513.823242188 690 531.823242188 689 546.823242188 686 c 0
 561.823242188 683 576.823242188 677 588.823242188 669 c 0
 600.823242188 661 610.823242188 652 618.823242188 640 c 0
 626.823242188 628 633.823242188 611 638.823242188 591 c 0
 643.823242188 571 646.823242188 547 646.823242188 520 c 0
 646.823242188 463 635.823242188 388 614.823242188 295 c 0
 603.823242188 248 587.823242188 206 566.823242188 171 c 0
 555.823242188 153 543.823242188 139 530.823242188 129 c 0
 517.823242188 119 503.823242188 114 489.823242188 114 c 0
 472.823242188 114 460.823242188 119 453.823242188 128 c 0
 447.823242188 136 444.823242188 148 444.823242188 163 c 0
 444.823242188 169 444.823242188 176 445.823242188 184 c 2
 454.823242188 251 l 1
 422.823242188 192 l 2
 400.823242188 150 371.823242188 130 336.823242188 130 c 0xbf80
 304.823242188 130 282.823242188 140 270.823242188 161 c 0
 263.823242188 173 259.823242188 188 259.823242188 208 c 0
 259.823242188 225 262.823242188 245 267.823242188 268 c 0
 272.823242188 291 280.823242188 312 290.823242188 333 c 0
 300.823242188 354 310.823242188 370 322.823242188 384 c 0
 334.823242188 398 347.823242188 410 360.823242188 420 c 0
 373.823242188 430 387.823242188 436 400.823242188 440 c 0
 413.823242188 444 425.823242188 446 436.823242188 446 c 0
 451.823242188 446 466.823242188 443 480.823242188 436 c 0
 491.823242188 431 499.823242188 425 504.823242188 417 c 0
 505.823242188 414 506.823242188 411 506.823242188 409 c 0
 506.823242188 407 505.823242188 405 504.823242188 403 c 0
 498.823242188 394 492.823242188 389 486.823242188 387 c 0
 481.823242188 386 476.823242188 385 473.823242188 385 c 0
 468.823242188 385 457.823242188 387 441.823242188 392 c 0
 434.823242188 393 428.823242188 394 424.823242188 394 c 2
 414.823242188 394 l 2
 404.823242188 393 394.823242188 389 384.823242188 383 c 0
 374.823242188 377 365.823242188 371 357.823242188 362 c 0
 349.823242188 353 341.823242188 343 334.823242188 329 c 0
 327.823242188 315 322.823242188 300 318.823242188 283 c 0
 314.823242188 266 312.823242188 252 312.823242188 241 c 2
 312.823242188 229 l 2
 312.823242188 217 316.823242188 207 322.823242188 199 c 0
 329.823242188 190 339.823242188 186 352.823242188 186 c 0
 375.823242188 186 394.823242188 195 409.823242188 215 c 0
 422.823242188 233 434.823242188 261 444.823242188 301 c 0
 445.823242188 307 453.823242188 313 466.823242188 318 c 0
 476.823242188 322 484.823242188 324 491.823242188 324 c 0
 495.823242188 324 499.823242188 323 501.823242188 322 c 2
 502.823242188 321 l 1
 502.823242188 321 501.823242188 319 501.823242188 317 c 0
 489.823242188 281 481.823242188 253 479.823242188 232 c 0
 478.823242188 222 477.823242188 213 477.823242188 205 c 0
 477.823242188 197 478.823242188 191 480.823242188 186 c 0
 482.823242188 179 487.823242188 174 492.823242188 171 c 0
 497.823242188 169 502.823242188 167 507.823242188 167 c 0xdf80
 516.823242188 167 525.823242188 173 533.823242188 186 c 0xbf80
 539.823242188 196 545.823242188 208 550.823242188 223 c 0
 559.823242188 248 566.823242188 272 571.823242188 293 c 0
 578.823242188 327 585.823242188 360 589.823242188 391 c 0
 593.823242188 422 595.823242188 449 595.823242188 471 c 0
 595.823242188 489 593.823242188 506 590.823242188 522 c 0
 587.823242188 538 584.823242188 552 580.823242188 563 c 0
 576.823242188 574 570.823242188 584 562.823242188 592 c 0
 554.823242188 600 547.823242188 607 540.823242188 611 c 0
 533.823242188 615 526.823242188 619 517.823242188 621 c 0
 508.823242188 623 501.823242188 625 496.823242188 625 c 2
 480.823242188 625 l 2
 453.823242188 625 426.823242188 617 399.823242188 599 c 0
 372.823242188 581 346.823242188 557 322.823242188 526 c 0
 298.823242188 495 276.823242188 457 256.823242188 413 c 0
 236.823242188 369 220.823242188 320 208.823242188 267 c 0
 195.823242188 208 188.823242188 156 188.823242188 112 c 0
 188.823242188 88 190.823242188 68 194.823242188 51 c 0
 200.823242188 27 209.823242188 6 220.823242188 -11 c 0
 231.823242188 -28 244.823242188 -39 258.823242188 -46 c 0
 272.823242188 -53 289.823242188 -56 306.823242188 -56 c 0
 323.823242188 -56 340.823242188 -54 355.823242188 -51 c 0
 370.823242188 -48 382.823242188 -43 393.823242188 -38 c 0
 404.823242188 -33 414.823242188 -26 425.823242188 -18 c 0
 436.823242188 -10 444.823242188 -1 450.823242188 6 c 0
 456.823242188 13 464.823242188 22 472.823242188 32 c 0
 477.823242188 39 481.823242188 44 485.823242188 48 c 0
 490.823242188 54 494.823242188 58 496.823242188 59 c 0
 498.823242188 59 500.823242188 61 502.823242188 62 c 0
 504.823242188 63 507.823242188 63 509.823242188 62 c 0
 511.823242188 61 514.823242188 59 515.823242188 58 c 0
 516.823242188 57 518.823242188 53 518.823242188 51 c 2
 518.823242188 49 l 2xdf80
502.823242188 321 m 1024
EndSplineSet
Validated: 524289
EndChar

StartChar: A
Encoding: 65 65 43
Width: 650
GlyphClass: 2
Flags: HMW
HStem: 276 43<485.267 485.267 485.267 495.267>
VStem: 490.267 72<66 126> 495.267 57 509.267 62
LayerCount: 2
Fore
SplineSet
482.266601562 276 m 1xa0
 407.266601562 273 337.266601562 265 275.266601562 253 c 1
 242.266601562 196 208.266601562 131 173.266601562 58 c 0
 164.266601562 40 155.266601562 28 144.266601562 23 c 0
 139.266601562 21 133.266601562 19 129.266601562 19 c 0
 125.266601562 19 122.266601562 20 119.266601562 21 c 0
 116.266601562 22 113.266601562 25 112.266601562 28 c 0
 111.266601562 31 110.266601562 35 110.266601562 39 c 0
 110.266601562 49 115.266601562 63 123.266601562 81 c 0
 132.266601562 102 162.266601562 157 216.266601562 245 c 1
 214.266601562 256 211.266601562 258 209.266601562 252 c 1
 204.266601562 255 202.266601562 259 202.266601562 263 c 0
 202.266601562 264 203.266601562 266 203.266601562 268 c 0
 204.266601562 275 208.266601562 282 217.266601562 289 c 0
 226.266601562 296 237.266601562 301 248.266601562 305 c 1
 249.266601562 314 251.266601562 315 252.266601562 307 c 1
 361.266601562 499 442.266601562 627 495.266601562 691 c 0
 506.266601562 704 516.266601562 712 523.266601562 717 c 0
 530.266601562 722 537.266601562 725 543.266601562 725 c 2
 544.266601562 725 l 1
 548.266601562 725 l 2
 555.266601562 725 560.266601562 723 565.266601562 720 c 0
 569.266601562 718 571.266601562 712 571.266601562 705 c 2x90
 571.266601562 700 l 1
 564.266601562 617 560.266601562 500 556.266601562 348 c 0
 554.266601562 289 552.266601562 241 552.266601562 201 c 0xa0
 552.266601562 137 555.266601562 98 559.266601562 84 c 0
 561.266601562 78 562.266601562 72 562.266601562 68 c 0xc0
 562.266601562 64 561.266601562 60 560.266601562 56 c 0
 557.266601562 47 551.266601562 41 546.266601562 35 c 0
 541.266601562 29 535.266601562 24 528.266601562 22 c 0
 523.266601562 20 520.266601562 19 517.266601562 19 c 0
 513.266601562 19 508.266601562 20 505.266601562 22 c 0
 498.266601562 26 493.266601562 37 491.266601562 54 c 0
 491.266601562 62 490.266601562 81 490.266601562 111 c 0
 490.266601562 141 493.266601562 197 495.266601562 276 c 1
 491.266601562 285 487.266601562 285 482.266601562 276 c 1xa0
486.266601562 610 m 2
 449.266601562 565 393.266601562 470 318.266601562 324 c 1
 308.266601562 303 l 1
 330.266601562 306 l 2
 388.266601562 313 439.266601562 318 485.266601562 319 c 2
 497.266601562 320 l 1
 509.266601562 637 l 1
 486.266601562 610 l 2
EndSplineSet
Validated: 524289
EndChar

StartChar: B
Encoding: 66 66 44
Width: 650
GlyphClass: 2
Flags: HMW
HStem: 310 47<339.212 343.212 343.212 344.212> 642 43<415.212 432.212 432.212 435.212>
VStem: 499.212 72<211 215.5 211 215.5> 541.212 62<533.5 538.5>
LayerCount: 2
Fore
SplineSet
569.211914062 201 m 2xd0
 564.211914062 177 553.211914062 153 536.211914062 130 c 0
 519.211914062 107 497.211914062 85 472.211914062 65 c 0
 448.211914062 45 418.211914062 28 384.211914062 14 c 0
 350.211914062 0 314.211914062 -10 275.211914062 -14 c 1
 269.024414062 -19.0625 262.836914062 -21.59375 256.649414062 -21.59375 c 2
 242.211914062 -17 l 1
 236.024414062 -22.0625 230.153320312 -24.59375 224.243164062 -24.59375 c 0
 219.645507812 -24.59375 215.024414062 -23.0625 210.211914062 -20 c 0
 190.211914062 -22 176.211914062 -23 166.211914062 -23 c 0
 160.211914062 -23 154.211914062 -22 148.211914062 -21 c 2
 146.211914062 -21 l 1
 143.211914062 -21 l 2
 135.211914062 -21 129.211914062 -18 126.211914062 -13 c 0
 124.211914062 -11 123.211914062 -7 123.211914062 -2 c 0
 123.211914062 3 124.211914062 8 126.211914062 14 c 0
 135.211914062 42 148.211914062 95 165.211914062 174 c 0
 182.211914062 253 199.211914062 335 215.211914062 419 c 0
 224.211914062 463 231.211914062 493 234.211914062 508 c 0
 237.211914062 523 242.211914062 544 249.211914062 570 c 0
 254.211914062 579 258.211914062 597 263.211914062 623 c 0
 266.211914062 639 272.211914062 651 280.211914062 658 c 0
 288.211914062 665 296.211914062 669 305.211914062 669 c 2
 309.211914062 669 l 1
 310.211914062 669 l 2
 321.211914062 672 331.211914062 675 341.211914062 677 c 0
 360.211914062 681 377.211914062 684 394.211914062 684 c 0
 403.211914062 684 410.211914062 685 415.211914062 685 c 2
 432.211914062 685 l 1
 442.211914062 685 l 2
 479.211914062 685 511.211914062 678 538.211914062 662 c 0
 565.211914062 646 583.211914062 624 594.211914062 595 c 0
 600.211914062 578 603.211914062 561 603.211914062 541 c 0
 603.211914062 526 601.211914062 509 597.211914062 492 c 0
 589.211914062 455 574.211914062 423 552.211914062 397 c 0
 530.211914062 371 504.211914062 352 475.211914062 340 c 1
 466.211914062 329 458.211914062 325 449.211914062 329 c 1
 455.671875 320.38671875 461.6171875 315.89453125 467.786132812 315.89453125 c 0
 470.211914062 315.89453125 472.671875 316.588867188 475.211914062 318 c 0
 492.211914062 311 509.211914062 300 525.211914062 287 c 0
 541.211914062 274 553.211914062 259 562.211914062 242 c 0
 568.211914062 231 571.211914062 220 571.211914062 211 c 2xe0
 569.211914062 201 l 2xd0
329.211914062 629 m 2
 323.211914062 627 l 1
 305.211914062 553 293.211914062 501 286.211914062 470 c 0
 279.211914062 439 272.211914062 402 263.211914062 360 c 1
 298.211914062 358 327.211914062 357 351.211914062 357 c 0
 369.211914062 357 386.211914062 359 401.211914062 362 c 0
 416.211914062 365 430.211914062 369 441.211914062 375 c 0
 452.211914062 381 463.211914062 388 473.211914062 397 c 0
 483.211914062 406 492.211914062 414 499.211914062 423 c 0
 506.211914062 432 512.211914062 441 517.211914062 451 c 0
 522.211914062 461 526.211914062 471 529.211914062 479 c 0
 532.211914062 487 536.211914062 496 538.211914062 506 c 0
 540.211914062 516 541.211914062 525 541.211914062 534 c 0xd0
 541.211914062 543 540.211914062 550 539.211914062 557 c 0
 536.211914062 574 530.211914062 587 521.211914062 598 c 0
 512.211914062 609 502.211914062 617 489.211914062 624 c 0
 469.211914062 636 447.211914062 642 423.211914062 642 c 0
 392.211914062 642 360.211914062 638 329.211914062 629 c 2
467.211914062 261 m 0
 456.211914062 271 440.211914062 280 419.211914062 289 c 0
 398.211914062 298 373.211914062 305 344.211914062 310 c 1
 343.211914062 310 l 2
 301.211914062 310 272.211914062 308 253.211914062 308 c 1
 231.211914062 194 214.211914062 109 203.211914062 54 c 1
 220.211914062 55 236.211914062 56 251.211914062 56 c 0
 266.211914062 56 277.211914062 57 284.211914062 57 c 0
 311.211914062 58 337.211914062 64 363.211914062 74 c 0
 389.211914062 84 411.211914062 94 429.211914062 108 c 0
 447.211914062 122 462.211914062 137 474.211914062 152 c 0
 487.211914062 167 495.211914062 182 498.211914062 196 c 0
 498.211914062 199 499.211914062 203 499.211914062 206 c 0xe0
 499.211914062 225 488.211914062 243 467.211914062 261 c 0
EndSplineSet
Validated: 524289
EndChar

StartChar: C
Encoding: 67 67 45
Width: 650
GlyphClass: 2
Flags: HMW
HStem: -31 67<276.505 326.505 287.505 326.505> 654 59<539.505 544.005> 701 21G
VStem: 141.505 77<126.5 190.5>
LayerCount: 2
Fore
SplineSet
294.504882812 -31 m 2xd0
 287.504882812 -31 l 2
 265.504882812 -31 245.504882812 -27 226.504882812 -18 c 0
 207.504882812 -9 192.504882812 2 180.504882812 17 c 0
 168.504882812 32 159.504882812 49 152.504882812 70 c 0
 145.504882812 91 141.504882812 114 141.504882812 139 c 0
 141.504882812 159 143.504882812 179 148.504882812 200 c 0
 159.504882812 249 174.504882812 297 194.504882812 343 c 0
 214.504882812 389 235.504882812 432 259.504882812 469 c 0
 281.504882812 506 305.504882812 540 331.504882812 571 c 0
 357.504882812 602 383.504882812 627 408.504882812 648 c 0
 433.504882812 669 459.504882812 685 483.504882812 696 c 0
 507.504882812 707 529.504882812 713 549.504882812 713 c 0
 570.504882812 713 588.504882812 710 605.504882812 705 c 1
 608.504882812 711 612.504882812 710 615.504882812 701 c 1xb0
 617.504882812 712 619.504882812 716 620.504882812 711 c 1
 624.504882812 720 629.504882812 727 636.504882812 732 c 0
 643.504882812 737 649.504882812 740 656.504882812 740 c 2
 661.504882812 741 l 2
 666.504882812 741 671.504882812 739 676.504882812 735 c 0
 682.504882812 730 685.504882812 723 685.504882812 713 c 0
 685.504882812 697 683.504882812 678 679.504882812 656 c 0
 678.504882812 647 676.504882812 635 672.504882812 621 c 0
 668.504882812 607 665.504882812 598 665.504882812 596 c 0
 663.504882812 583 655.504882812 570 644.504882812 557 c 0
 633.504882812 544 624.504882812 537 617.504882812 537 c 2
 612.504882812 537 l 2
 605.504882812 537 599.504882812 539 594.504882812 544 c 0
 590.504882812 547 588.504882812 552 588.504882812 558 c 0
 588.504882812 559 589.504882812 562 589.504882812 565 c 0
 590.504882812 571 595.504882812 588 602.504882812 616 c 0
 601.504882812 623 599.504882812 625 597.504882812 621 c 1
 594.504882812 623 588.504882812 629 579.504882812 637 c 0
 577.504882812 639 573.504882812 642 568.504882812 645 c 0
 559.504882812 651 549.504882812 654 538.504882812 654 c 0
 518.504882812 654 495.504882812 647 471.504882812 632 c 0
 447.504882812 617 423.504882812 596 399.504882812 570 c 0
 375.504882812 544 350.504882812 514 328.504882812 481 c 0
 306.504882812 448 285.504882812 409 267.504882812 367 c 0
 247.504882812 325 233.504882812 281 224.504882812 239 c 0
 220.504882812 219 218.504882812 200 218.504882812 181 c 0
 218.504882812 169 219.504882812 157 221.504882812 145 c 0
 225.504882812 114 235.504882812 88 253.504882812 68 c 0
 270.504882812 47 291.504882812 36 316.504882812 36 c 0
 336.504882812 36 354.504882812 38 374.504882812 43 c 0
 394.504882812 48 411.504882812 54 427.504882812 62 c 0
 443.504882812 70 457.504882812 76 469.504882812 84 c 0
 481.504882812 92 492.504882812 100 503.504882812 109 c 0
 511.504882812 114 518.504882812 119 523.504882812 121 c 0
 528.504882812 123 533.504882812 125 538.504882812 125 c 0
 541.504882812 125 544.504882812 124 546.504882812 122 c 0
 550.504882812 117 552.504882812 113 552.504882812 108 c 0
 552.504882812 97 544.504882812 82 527.504882812 64 c 0
 467.504882812 1 390.504882812 -31 294.504882812 -31 c 2xd0
EndSplineSet
Validated: 524289
EndChar

StartChar: D
Encoding: 68 68 46
Width: 650
GlyphClass: 2
Flags: HMW
HStem: -31 61<324.56 371.06 337.06 371.06> 712 21G<321.06 325.06 321.06 321.06>
VStem: 321.06 4<688 688 712 712> 540.06 65<341 379>
LayerCount: 2
Fore
SplineSet
325.059570312 712 m 1
 321.059570312 712 l 1
 322.059570312 726 324.059570312 732 325.059570312 730 c 2
 325.059570312 712 l 1
325.059570312 687 m 1
 336.059570312 686 349.059570312 683 362.059570312 680 c 0
 379.059570312 676 395.059570312 671 412.059570312 664 c 0
 429.059570312 657 446.059570312 647 465.059570312 635 c 0
 484.059570312 623 501.059570312 609 518.059570312 593 c 0
 535.059570312 577 549.059570312 557 563.059570312 533 c 0
 577.059570312 509 587.059570312 484 594.059570312 457 c 0
 601.059570312 430 605.059570312 398 605.059570312 363 c 0
 605.059570312 319 600.059570312 272 588.059570312 222 c 0
 582.059570312 200 574.059570312 176 563.059570312 153 c 0
 552.059570312 130 539.059570312 107 522.059570312 85 c 0
 505.059570312 63 488.059570312 43 469.059570312 26 c 0
 451.059570312 9 431.059570312 -6 410.059570312 -16 c 0
 389.059570312 -26 366.059570312 -31 345.059570312 -31 c 2
 337.059570312 -31 l 2
 312.059570312 -31 287.059570312 -29 262.059570312 -27 c 0
 237.059570312 -25 217.059570312 -21 201.059570312 -17 c 0
 185.059570312 -13 170.059570312 -9 157.059570312 -5 c 0
 144.059570312 -1 136.059570312 0 133.059570312 0 c 0
 125.059570312 0 119.059570312 3 116.059570312 8 c 0
 114.059570312 10 113.059570312 15 113.059570312 20 c 0
 113.059570312 25 114.059570312 30 116.059570312 36 c 0
 125.059570312 68 139.059570312 125 158.059570312 207 c 0
 177.059570312 289 194.059570312 377 213.059570312 472 c 0
 220.059570312 509 226.059570312 533 229.059570312 545 c 0
 232.059570312 557 236.059570312 575 242.059570312 600 c 0
 248.059570312 625 252.059570312 640 253.059570312 645 c 0
 256.059570312 660 262.059570312 672 270.059570312 679 c 0
 278.059570312 686 286.059570312 690 295.059570312 690 c 0
 303.059570312 690 312.059570312 689 321.059570312 688 c 1
 316.059570312 654 310.059570312 628 304.059570312 611 c 0
 283.059570312 525 264.059570312 433 247.059570312 338 c 0
 239.059570312 287 231.059570312 243 222.059570312 208 c 0
 210.059570312 151 201.059570312 104 194.059570312 69 c 0
 196.059570312 60 200.059570312 58 202.059570312 65 c 1
 225.059570312 52 249.059570312 43 274.059570312 38 c 0
 299.059570312 33 329.059570312 30 362.059570312 30 c 0
 380.059570312 30 398.059570312 36 416.059570312 50 c 0
 434.059570312 64 450.059570312 81 464.059570312 102 c 0
 478.059570312 123 490.059570312 145 502.059570312 169 c 0
 514.059570312 193 523.059570312 218 528.059570312 241 c 0
 536.059570312 275 540.059570312 307 540.059570312 337 c 0
 540.059570312 421 511.059570312 489 451.059570312 540 c 0
 426.059570312 562 387.059570312 586 336.059570312 611 c 1
 336.059570312 616 l 1
 333.059570312 616 l 1
 333.059570312 617 l 1
 331.059570312 617 l 1
 331.059570312 618 l 1
 329.059570312 618 l 1
 329.059570312 619 l 1
 325.059570312 619 l 1
 325.059570312 687 l 1
EndSplineSet
Validated: 524289
EndChar

StartChar: E
Encoding: 69 69 47
Width: 650
GlyphClass: 2
Flags: HMW
HStem: -20 63<200.7 281.2> -6 66<470.2 516.7 476.7 516.7> 312 62<257.7 295.7> 332 57<549.2 578.7> 615 59<501.7 523.2 477.7 529.7>
VStem: 122.7 77<27.5 74.5>
LayerCount: 2
Fore
SplineSet
488.700195312 -6 m 2x4c
 476.700195312 -6 l 2
 463.700195312 -6 442.700195312 -7 411.700195312 -9 c 0
 316.700195312 -16 248.700195312 -20 210.700195312 -20 c 0xac
 190.700195312 -20 176.700195312 -19 163.700195312 -18 c 0
 152.700195312 -18 143.700195312 -11 134.700195312 0 c 0
 127.700195312 9 122.700195312 21 122.700195312 34 c 0
 122.700195312 47 129.700195312 81 142.700195312 136 c 0
 152.700195312 180 163.700195312 228 176.700195312 279 c 0
 189.700195312 330 200.700195312 388 213.700195312 451 c 0
 221.700195312 491 227.700195312 517 230.700195312 530 c 0
 233.700195312 543 238.700195312 562 245.700195312 587 c 0
 252.700195312 612 255.700195312 627 256.700195312 634 c 0
 260.700195312 649 266.700195312 660 274.700195312 668 c 0
 282.700195312 676 291.700195312 680 300.700195312 680 c 1
 301.700195312 672 303.700195312 672 304.700195312 680 c 0
 308.700195312 680 311.700195312 679 314.700195312 678 c 0
 317.700195312 677 320.700195312 674 321.700195312 670 c 0
 322.700195312 659 324.700195312 656 325.700195312 661 c 1
 327.700195312 654 330.700195312 654 332.700195312 663 c 1
 380.700195312 670 441.700195312 674 513.700195312 674 c 0
 532.700195312 674 548.700195312 673 565.700195312 673 c 0
 601.700195312 672 629.700195312 669 650.700195312 667 c 0
 661.700195312 665 668.700195312 662 670.700195312 659 c 0
 670.700195312 658 671.700195312 655 671.700195312 653 c 0
 671.700195312 651 670.700195312 647 670.700195312 643 c 0
 670.700195312 639 668.700195312 634 666.700195312 630 c 0
 661.700195312 621 656.700195312 614 649.700195312 612 c 0
 646.700195312 610 643.700195312 609 641.700195312 609 c 0
 639.700195312 609 637.700195312 610 635.700195312 610 c 0
 592.700195312 613 550.700195312 615 508.700195312 615 c 0
 494.700195312 615 479.700195312 614 464.700195312 614 c 0
 409.700195312 613 362.700195312 609 320.700195312 602 c 1
 318.700195312 593 314.700195312 593 312.700195312 601 c 1
 292.700195312 526 276.700195312 450 260.700195312 373 c 1
 265.700195312 366 269.700195312 366 274.700195312 374 c 1
 316.700195312 374 375.700195312 376 448.700195312 381 c 0
 522.700195312 386 563.700195312 389 573.700195312 389 c 0x1c
 583.700195312 389 589.700195312 386 591.700195312 384 c 0
 593.700195312 380 593.700195312 374 592.700195312 366 c 0
 590.700195312 355 585.700195312 346 580.700195312 341 c 0
 574.700195312 335 565.700195312 332 554.700195312 332 c 0
 543.700195312 332 497.700195312 329 418.700195312 322 c 0
 339.700195312 315 286.700195312 312 257.700195312 312 c 1xac
 254.700195312 303 249.700195312 303 247.700195312 311 c 1
 237.700195312 267 229.700195312 225 220.700195312 184 c 0
 206.700195312 122 199.700195312 82 199.700195312 67 c 0
 199.700195312 63 200.700195312 57 200.700195312 50 c 0
 202.700195312 41 205.700195312 41 207.700195312 48 c 1
 212.700195312 46 219.700195312 44 229.700195312 44 c 0
 238.700195312 44 252.700195312 43 271.700195312 43 c 0
 290.700195312 43 316.700195312 44 348.700195312 45 c 0
 423.700195312 49 473.700195312 53 496.700195312 58 c 0
 504.700195312 59 510.700195312 60 514.700195312 60 c 0
 518.700195312 60 522.700195312 59 524.700195312 58 c 0
 526.700195312 57 528.700195312 55 529.700195312 54 c 0
 530.700195312 53 531.700195312 50 531.700195312 47 c 0
 531.700195312 44 532.700195312 41 532.700195312 39 c 0
 532.700195312 37 531.700195312 33 531.700195312 31 c 0
 529.700195312 20 524.700195312 11 516.700195312 3 c 0
 511.700195312 -4 503.700195312 -7 494.700195312 -7 c 0
 492.700195312 -7 490.700195312 -6 488.700195312 -6 c 2x4c
EndSplineSet
Validated: 524289
EndChar

StartChar: F
Encoding: 70 70 48
Width: 650
GlyphClass: 2
Flags: HMW
HStem: 323 60<356.53 369.53> 619 63
LayerCount: 2
Fore
SplineSet
653.530273438 677 m 0
 664.530273438 676 670.530273438 673 671.530273438 671 c 0
 673.530273438 668 674.530273438 662 673.530273438 654 c 0
 671.530273438 645 665.530273438 636 658.530273438 629 c 0
 652.530273438 622 644.530273438 619 633.530273438 619 c 2
 631.530273438 619 l 2
 598.530273438 621 564.530273438 622 529.530273438 622 c 0
 464.530273438 622 392.530273438 618 313.530273438 611 c 1
 297.530273438 544 286.530273438 498 280.530273438 472 c 0
 274.530273438 446 267.530273438 414 259.530273438 376 c 1
 264.530273438 369 270.530273438 369 275.530273438 378 c 1
 300.530273438 381 327.530273438 383 356.530273438 383 c 2
 377.530273438 383 l 2
 414.530273438 382 447.530273438 379 477.530273438 376 c 0
 507.530273438 373 530.530273438 370 547.530273438 367 c 0
 553.530273438 366 557.530273438 363 560.530273438 362 c 0
 563.530273438 361 566.530273438 359 566.530273438 359 c 2
 567.530273438 357 568.530273438 354 568.530273438 350 c 2
 568.530273438 344 l 2
 566.530273438 335 561.530273438 326 555.530273438 319 c 0
 551.530273438 313 544.530273438 310 535.530273438 310 c 2
 533.530273438 310 l 2
 516.530273438 313 490.530273438 317 458.530273438 319 c 0
 426.530273438 321 389.530273438 323 349.530273438 323 c 0
 311.530273438 323 280.530273438 320 254.530273438 316 c 1
 252.530273438 307 249.530273438 307 247.530273438 315 c 1
 227.530273438 207 207.530273438 107 187.530273438 15 c 0
 183.530273438 4 176.530273438 -5 166.530273438 -12 c 0
 156.530273438 -19 146.530273438 -22 136.530273438 -22 c 0
 135.530273438 -22 133.530273438 -21 133.530273438 -21 c 2
 125.530273438 -21 119.530273438 -18 116.530273438 -13 c 0
 114.530273438 -11 113.530273438 -7 113.530273438 -2 c 0
 113.530273438 3 114.530273438 8 116.530273438 14 c 0
 125.530273438 43 137.530273438 100 156.530273438 183 c 0
 175.530273438 266 193.530273438 352 210.530273438 440 c 0
 219.530273438 484 226.530273438 515 229.530273438 530 c 0
 232.530273438 545 236.530273438 565 243.530273438 591 c 0
 248.530273438 601 253.530273438 619 258.530273438 645 c 0
 261.530273438 660 267.530273438 672 275.530273438 679 c 0
 283.530273438 686 292.530273438 690 301.530273438 690 c 2
 305.530273438 690 l 2
 310.530273438 690 313.530273438 689 316.530273438 688 c 0
 319.530273438 687 322.530273438 684 323.530273438 680 c 0
 323.530273438 669 325.530273438 667 326.530273438 672 c 1
 402.530273438 679 473.530273438 682 539.530273438 682 c 0
 584.530273438 682 622.530273438 680 653.530273438 677 c 0
EndSplineSet
Validated: 524289
EndChar

StartChar: G
Encoding: 71 71 49
Width: 650
GlyphClass: 2
Flags: HMW
HStem: -31 67<274.646 323.646 285.646 323.646> 289 59<536.146 576.646> 666 58<541.146 545.146>
VStem: 139.646 78<126.5 190.5>
LayerCount: 2
Fore
SplineSet
661.645507812 687 m 0
 669.645507812 682 674.645507812 677 676.645507812 674 c 0
 679.645507812 669 680.645507812 664 680.645507812 658 c 0
 680.645507812 650 678.645507812 640 672.645507812 629 c 0
 670.645507812 623 663.645507812 618 656.645507812 615 c 0
 652.645507812 614 649.645507812 613 647.645507812 613 c 0
 645.645507812 613 641.645507812 615 637.645507812 615 c 0
 634.645507812 616 627.645507812 621 616.645507812 630 c 0
 605.645507812 639 592.645507812 647 578.645507812 654 c 0
 564.645507812 662 551.645507812 666 538.645507812 666 c 0
 518.645507812 666 496.645507812 658 472.645507812 643 c 0
 448.645507812 628 424.645507812 607 399.645507812 580 c 0
 374.645507812 553 349.645507812 522 327.645507812 487 c 0
 305.645507812 452 284.645507812 413 266.645507812 370 c 0
 246.645507812 327 231.645507812 283 222.645507812 239 c 0
 218.645507812 219 217.645507812 200 217.645507812 181 c 0
 217.645507812 169 217.645507812 157 219.645507812 145 c 0
 223.645507812 114 235.645507812 89 252.645507812 68 c 0
 270.645507812 47 290.645507812 36 315.645507812 36 c 0
 331.645507812 36 347.645507812 42 365.645507812 54 c 0
 383.645507812 66 401.645507812 80 416.645507812 97 c 0
 431.645507812 114 446.645507812 132 461.645507812 153 c 0
 476.645507812 174 489.645507812 195 500.645507812 215 c 0
 511.645507812 235 521.645507812 253 528.645507812 270 c 0
 530.645507812 275 533.645507812 281 535.645507812 289 c 1
 528.645507812 287 522.645507812 287 516.645507812 288 c 0
 479.645507812 286 443.645507812 282 406.645507812 276 c 0
 369.645507812 270 343.645507812 263 327.645507812 254 c 0
 324.645507812 252 321.645507812 250 319.645507812 250 c 0
 317.645507812 250 315.645507812 251 313.645507812 253 c 0
 309.645507812 257 306.645507812 262 306.645507812 268 c 2
 306.645507812 270 l 2
 307.645507812 291 320.645507812 308 345.645507812 320 c 0
 362.645507812 329 398.645507812 337 451.645507812 342 c 0
 491.645507812 346 523.645507812 348 548.645507812 348 c 0
 574.645507812 348 589.645507812 347 595.645507812 345 c 2
 601.645507812 341 l 2
 603.645507812 339 605.645507812 336 605.645507812 331 c 2
 605.645507812 328 l 2
 604.645507812 318 601.645507812 310 597.645507812 304 c 0
 593.645507812 298 588.645507812 293 581.645507812 291 c 0
 579.645507812 289 577.645507812 289 575.645507812 289 c 0
 574.645507812 282 572.645507812 275 569.645507812 266 c 0
 566.645507812 257 564.645507812 249 563.645507812 244 c 0
 558.645507812 230 551.645507812 214 542.645507812 195 c 0
 533.645507812 176 521.645507812 157 507.645507812 136 c 0
 493.645507812 115 478.645507812 94 460.645507812 74 c 0
 442.645507812 54 424.645507812 36 405.645507812 20 c 0
 386.645507812 4 367.645507812 -9 346.645507812 -18 c 0
 325.645507812 -27 306.645507812 -31 287.645507812 -31 c 2
 285.645507812 -31 l 2
 263.645507812 -31 243.645507812 -27 224.645507812 -18 c 0
 205.645507812 -9 191.645507812 2 179.645507812 17 c 0
 167.645507812 32 158.645507812 49 151.645507812 70 c 0
 144.645507812 91 139.645507812 114 139.645507812 139 c 0
 139.645507812 159 142.645507812 179 147.645507812 200 c 0
 159.645507812 251 174.645507812 300 194.645507812 347 c 0
 214.645507812 394 235.645507812 437 259.645507812 475 c 0
 281.645507812 513 305.645507812 548 331.645507812 580 c 0
 357.645507812 612 382.645507812 638 408.645507812 659 c 0
 434.645507812 680 459.645507812 696 483.645507812 707 c 0
 507.645507812 718 530.645507812 724 551.645507812 724 c 0
 573.645507812 724 600.645507812 718 627.645507812 705 c 0
 642.645507812 698 653.645507812 692 661.645507812 687 c 0
EndSplineSet
Validated: 524289
EndChar

StartChar: H
Encoding: 72 72 50
Width: 650
GlyphClass: 2
Flags: HMW
HStem: 312 62<263.897 306.397 263.897 306.397>
LayerCount: 2
Fore
SplineSet
263.896484375 312 m 1
 261.896484375 304 259.896484375 297 258.896484375 293 c 0
 257.896484375 289 255.896484375 285 255.896484375 282 c 0
 236.896484375 215 216.896484375 126 194.896484375 15 c 0
 190.896484375 4 183.896484375 -5 173.896484375 -12 c 0
 163.896484375 -19 152.896484375 -22 143.896484375 -22 c 0
 142.896484375 -22 140.896484375 -21 140.896484375 -21 c 2
 133.896484375 -21 127.896484375 -18 123.896484375 -13 c 0
 121.896484375 -11 120.896484375 -7 120.896484375 -2 c 0
 120.896484375 3 121.896484375 8 123.896484375 14 c 0
 128.896484375 31 139.896484375 76 156.896484375 148 c 0
 165.896484375 186 179.896484375 248 201.896484375 334 c 0
 212.896484375 376 220.896484375 407 225.896484375 428 c 0
 230.896484375 449 236.896484375 479 245.896484375 520 c 0
 252.896484375 554 257.896484375 573 257.896484375 577 c 0
 259.896484375 586 261.896484375 597 265.896484375 612 c 0
 269.896484375 627 271.896484375 638 273.896484375 645 c 0
 277.896484375 660 284.896484375 672 292.896484375 679 c 0
 300.896484375 686 309.896484375 690 318.896484375 690 c 1
 318.896484375 682 320.896484375 682 320.896484375 690 c 1
 328.896484375 690 334.896484375 688 338.896484375 683 c 0
 340.896484375 680 342.896484375 675 342.896484375 670 c 0
 342.896484375 665 341.896484375 659 340.896484375 653 c 0
 339.896484375 647 334.896484375 633 328.896484375 611 c 0
 322.896484375 589 317.896484375 569 313.896484375 550 c 0
 309.896484375 531 304.896484375 506 297.896484375 470 c 0
 290.896484375 434 284.896484375 402 277.896484375 373 c 1
 282.896484375 366 285.896484375 366 290.896484375 374 c 1
 321.896484375 374 353.896484375 375 386.896484375 379 c 0
 419.896484375 383 448.896484375 388 475.896484375 392 c 0
 502.896484375 396 523.896484375 399 538.896484375 400 c 1
 540.896484375 411 542.896484375 421 543.896484375 430 c 0
 544.896484375 439 547.896484375 445 548.896484375 450 c 0
 554.896484375 470 559.896484375 497 565.896484375 533 c 0
 568.896484375 546 574.896484375 566 581.896484375 594 c 0
 588.896484375 622 594.896484375 639 595.896484375 645 c 0
 599.896484375 660 605.896484375 672 614.896484375 679 c 0
 623.896484375 686 631.896484375 690 640.896484375 690 c 1
 640.896484375 682 642.896484375 682 643.896484375 690 c 1
 652.896484375 690 659.896484375 688 663.896484375 683 c 0
 665.896484375 680 667.896484375 675 667.896484375 670 c 0
 667.896484375 665 666.896484375 657 664.896484375 648 c 0
 662.896484375 639 656.896484375 616 646.896484375 576 c 0
 636.896484375 536 628.896484375 502 621.896484375 472 c 0
 614.896484375 442 605.896484375 399 593.896484375 343 c 0
 584.896484375 297 569.896484375 236 549.896484375 161 c 0
 530.896484375 85 519.896484375 36 514.896484375 15 c 0
 511.896484375 4 504.896484375 -5 495.896484375 -12 c 0
 486.896484375 -19 477.896484375 -22 468.896484375 -22 c 0
 467.896484375 -22 465.896484375 -21 465.896484375 -21 c 2
 458.896484375 -21 452.896484375 -18 449.896484375 -13 c 0
 448.896484375 -11 446.896484375 -7 446.896484375 -2 c 0
 446.896484375 3 447.896484375 8 449.896484375 14 c 0
 475.896484375 107 499.896484375 211 523.896484375 327 c 1
 523.896484375 325 526.896484375 330 527.896484375 343 c 1
 522.896484375 334 517.896484375 334 512.896484375 342 c 1
 502.896484375 342 465.896484375 337 403.896484375 327 c 0
 341.896484375 317 295.896484375 312 270.896484375 312 c 2
 263.896484375 312 l 1
EndSplineSet
Validated: 524289
EndChar

StartChar: I
Encoding: 73 73 51
Width: 650
GlyphClass: 2
Flags: HMW
HStem: -14 56<133.327 156.327> -6 53<385.828 387.827 363.327 402.828> 625 59<298.827 300.327 300.327 305.327 298.827 343.327>
LayerCount: 2
Fore
SplineSet
426.327148438 -7 m 0x60
 422.327148438 -7 411.328125 -6 394.328125 -6 c 0
 377.328125 -6 355.328125 -7 326.328125 -8 c 1
 305.583984375 -13.333984375 284.83984375 -16.208984375 264.095703125 -16.208984375 c 2
 221.327148438 -12 l 1
 181.327148438 -13 154.327148438 -14 140.327148438 -14 c 0xa0
 126.327148438 -14 118.327148438 -12 114.327148438 -8 c 0
 112.327148438 -6 111.327148438 -2 111.327148438 1 c 0
 111.327148438 3 112.327148438 6 112.327148438 8 c 0
 113.327148438 17 117.327148438 26 124.327148438 32 c 0
 131.327148438 38 143.327148438 42 156.327148438 42 c 0
 183.327148438 43 230.327148438 45 298.327148438 47 c 1x60
 330.327148438 166 358.327148438 290 383.327148438 418 c 0
 389.327148438 448 392.327148438 465 392.327148438 470 c 0
 394.327148438 481 399.327148438 501 406.327148438 532 c 0
 408.327148438 541 411.327148438 555 416.327148438 575 c 0
 421.327148438 595 426.327148438 607 426.327148438 610 c 1
 426.327148438 607 428.327148438 611 429.327148438 624 c 1
 393.327148438 624 364.327148438 625 343.327148438 625 c 2
 300.327148438 625 l 2
 292.327148438 625 286.327148438 624 286.327148438 624 c 2
 276.327148438 624 269.327148438 626 266.327148438 631 c 0
 264.327148438 633 263.327148438 637 263.327148438 642 c 2
 263.327148438 649 l 2
 264.327148438 658 269.327148438 666 276.327148438 673 c 0
 283.327148438 680 292.327148438 684 305.327148438 684 c 0
 354.327148438 685 399.327148438 686 441.327148438 686 c 0
 524.327148438 686 594.327148438 683 652.327148438 676 c 0
 660.327148438 676 666.327148438 673 670.327148438 670 c 0
 674.327148438 667 676.327148438 663 676.327148438 657 c 0
 676.327148438 655 675.327148438 652 675.327148438 650 c 0
 673.327148438 641 667.327148438 631 659.327148438 622 c 0
 656.327148438 618 652.327148438 615 647.327148438 613 c 0
 644.327148438 612 641.327148438 611 639.327148438 611 c 0
 637.327148438 611 636.327148438 612 634.327148438 612 c 0
 617.327148438 614 569.327148438 618 492.327148438 623 c 1
 487.327148438 596 483.327148438 578 479.327148438 568 c 0
 463.327148438 504 448.327148438 436 435.327148438 365 c 0
 426.327148438 318 413.327148438 258 396.327148438 188 c 0
 379.327148438 118 368.327148438 71 363.327148438 47 c 1
 376.327148438 47 l 2
 399.327148438 47 446.327148438 46 515.327148438 46 c 0
 524.327148438 46 531.327148438 44 532.327148438 42 c 0xa0
 533.327148438 40 534.327148438 36 534.327148438 31 c 2
 534.327148438 23 l 2
 532.327148438 13 527.327148438 5 522.327148438 -2 c 0
 520.327148438 -6 517.327148438 -8 514.327148438 -9 c 0
 511.327148438 -10 508.327148438 -12 506.327148438 -12 c 0
 504.327148438 -12 501.327148438 -11 499.327148438 -11 c 0
 484.327148438 -9 461.327148438 -7 426.327148438 -7 c 0x60
EndSplineSet
Validated: 524289
EndChar

StartChar: J
Encoding: 74 74 52
Width: 650
GlyphClass: 2
Flags: HMW
HStem: -35 77<299.767 307.267> 611 65<640.767 658.767> 625 59<303.767 307.767 307.767 309.767 303.767 365.767>
VStem: 142.767 63<150 170.5 159.5 161.5>
LayerCount: 2
Fore
SplineSet
330.766601562 52 m 0xb0
 336.766601562 59 342.766601562 69 349.766601562 83 c 0
 362.766601562 112 377.766601562 159 392.766601562 224 c 0
 395.766601562 237 406.766601562 284 422.766601562 366 c 0
 438.766601562 445 455.766601562 531 476.766601562 623 c 1
 429.766601562 625 393.766601562 625 365.766601562 625 c 2
 307.766601562 625 l 2
 296.766601562 625 291.766601562 624 291.766601562 624 c 2
 281.766601562 624 274.766601562 626 271.766601562 631 c 0
 269.766601562 633 266.766601562 637 266.766601562 642 c 0
 266.766601562 644 267.766601562 647 267.766601562 649 c 0
 268.766601562 658 273.766601562 666 280.766601562 673 c 0
 287.766601562 680 297.766601562 684 309.766601562 684 c 0
 358.766601562 685 403.766601562 686 444.766601562 686 c 0
 526.766601562 686 596.766601562 683 654.766601562 676 c 0xd0
 662.766601562 676 668.766601562 673 672.766601562 670 c 0
 676.766601562 667 677.766601562 663 677.766601562 657 c 0
 677.766601562 655 676.766601562 652 676.766601562 650 c 0
 674.766601562 641 669.766601562 631 661.766601562 622 c 0
 657.766601562 618 654.766601562 615 649.766601562 613 c 0
 647.766601562 612 643.766601562 611 641.766601562 611 c 0
 639.766601562 611 636.766601562 612 634.766601562 612 c 0
 613.766601562 615 579.766601562 619 528.766601562 621 c 1
 522.766601562 595 515.766601562 563 508.766601562 523 c 0
 502.766601562 479 495.766601562 443 488.766601562 416 c 0
 482.766601562 384 475.766601562 349 467.766601562 309 c 0
 459.766601562 269 451.766601562 235 443.766601562 206 c 0
 426.766601562 146 408.766601562 98 391.766601562 62 c 0
 374.766601562 26 359.766601562 0 344.766601562 -14 c 0
 329.766601562 -28 314.766601562 -35 299.766601562 -35 c 0
 281.766601562 -35 263.766601562 -31 247.766601562 -24 c 0
 230.766601562 -17 216.766601562 -7 205.766601562 5 c 0
 194.766601562 17 184.766601562 31 175.766601562 46 c 0
 166.766601562 61 160.766601562 76 155.766601562 91 c 0
 150.766601562 106 146.766601562 118 145.766601562 129 c 0
 144.766601562 140 142.766601562 146 142.766601562 150 c 2
 142.766601562 159 l 2
 142.766601562 164 144.766601562 170 146.766601562 177 c 0
 148.766601562 184 151.766601562 191 154.766601562 197 c 0
 157.766601562 203 161.766601562 209 167.766601562 213 c 0
 173.766601562 217 180.766601562 221 187.766601562 222 c 0
 190.766601562 222 193.766601562 223 195.766601562 223 c 0
 200.766601562 223 204.766601562 221 206.766601562 218 c 0
 208.766601562 215 210.766601562 210 210.766601562 205 c 0
 210.766601562 203 209.766601562 199 209.766601562 196 c 0
 207.766601562 187 205.766601562 176 205.766601562 165 c 0
 205.766601562 154 207.766601562 142 210.766601562 128 c 0
 213.766601562 114 218.766601562 100 225.766601562 87 c 0
 232.766601562 74 244.766601562 64 259.766601562 55 c 0
 273.766601562 46 289.766601562 42 309.766601562 42 c 0
 316.766601562 42 324.766601562 45 330.766601562 52 c 0xb0
EndSplineSet
Validated: 524289
EndChar

StartChar: K
Encoding: 75 75 53
Width: 650
GlyphClass: 2
Flags: HMW
HStem: -22 21G<146.563 152.063> 695 20G<633.062 636.062>
LayerCount: 2
Fore
SplineSet
124.063476562 10 m 0
 124.063476562 13 125.0625 18 127.0625 23 c 0
 136.0625 53 149.0625 110 168.0625 193 c 0
 186.0625 277 203.0625 363 221.0625 452 c 0
 230.0625 496 237.0625 526 240.0625 541 c 0
 242.0625 556 248.0625 578 255.0625 607 c 0
 262.0625 635 267.0625 653 268.0625 660 c 0
 272.0625 678 278.0625 691 286.0625 700 c 0
 294.0625 709 302.0625 714 311.0625 714 c 1
 312.0625 722 314.0625 722 314.0625 714 c 1
 322.0625 714 328.0625 711 332.0625 703 c 0
 334.0625 698 335.0625 692 335.0625 683 c 0
 335.0625 678 334.0625 674 333.0625 669 c 0
 330.0625 653 322.0625 618 309.0625 564 c 0
 296.0625 509 283.0625 452 270.0625 391 c 1
 412.0625 530 l 2
 453.0625 573 493.0625 611 535.0625 642 c 0
 568.0625 670 589.0625 688 598.0625 695 c 0
 607.0625 704 616.0625 710 623.0625 712 c 0
 628.0625 714 632.0625 715 634.0625 715 c 0
 638.0625 715 642.0625 711 645.0625 703 c 0
 647.0625 698 648.0625 692 648.0625 685 c 0
 648.0625 676 639.0625 665 622.0625 651 c 0
 610.0625 639 570.0625 603 501.0625 542 c 1
 437.0625 478 377.0625 419 322.0625 366 c 1
 327.0625 357 l 2
 341.0625 334 366.0625 296 402.0625 245 c 0
 438.0625 191 468.0625 145 493.0625 106 c 0
 518.041015625 71.0302734375 533.041992188 48.0400390625 535.063476562 39.0234375 c 0
 534.948242188 28.3505859375 532.916015625 17.7333984375 528.063476562 9 c 0
 524.063476562 0 519.063476562 -8 512.063476562 -13 c 0
 505.063476562 -18 500.063476562 -21 495.063476562 -21 c 0
 487.063476562 -21 480.063476562 -13 474.063476562 4 c 0
 470.063476562 13 454.063476562 36 427.063476562 73 c 0
 400.063476562 110 371.063476562 152 340.063476562 196 c 0
 309.063476562 245 287.063476562 283 274.063476562 310 c 2
 260.063476562 337 l 1
 249.063476562 286 l 1
 198.063476562 24 l 2
 194.063476562 9 187.063476562 -2 177.063476562 -10 c 0
 167.063476562 -18 157.063476562 -22 147.063476562 -22 c 0
 146.063476562 -22 144.063476562 -21 144.063476562 -21 c 2
 136.063476562 -21 130.063476562 -17 127.063476562 -8 c 0
 125.063476562 -3 124.063476562 3 124.063476562 10 c 0
EndSplineSet
Validated: 524289
EndChar

StartChar: L
Encoding: 76 76 54
Width: 650
GlyphClass: 2
Flags: HMW
HStem: -15 62.9962
LayerCount: 2
Fore
SplineSet
537.440429688 72 m 0
 540.440429688 63 541.439453125 54 540.439453125 44 c 0
 538.439453125 35 533.439453125 27 528.439453125 22 c 0
 523.439453125 17 513.439453125 12 499.439453125 10 c 0
 456.439453125 1 396.439453125 -5 319.439453125 -9 c 0
 240.439453125 -13 180.439453125 -15 140.439453125 -15 c 0
 132.439453125 -15 126.439453125 -12 123.439453125 -7 c 0
 121.439453125 -5 120.439453125 -1 120.439453125 4 c 0
 120.439453125 9 121.439453125 14 123.439453125 20 c 0
 136.439453125 51 148.439453125 89 161.439453125 135 c 0
 184.439453125 206 205.439453125 275 223.439453125 341 c 0
 232.439453125 372 244.439453125 427 259.439453125 506 c 0
 274.439453125 585 282.439453125 629 283.439453125 636 c 0
 287.439453125 652 293.439453125 664 301.439453125 671 c 0
 309.439453125 678 317.439453125 682 325.439453125 682 c 1
 326.439453125 674 328.439453125 674 328.439453125 682 c 1
 335.439453125 682 341.439453125 679 345.439453125 674 c 0
 347.439453125 672 348.439453125 668 348.439453125 662 c 0
 348.439453125 656 347.439453125 650 346.439453125 645 c 0
 342.439453125 626 337.439453125 600 329.439453125 567 c 0
 320.439453125 517 310.439453125 475 300.439453125 441 c 0
 289.439453125 389 279.439453125 345 269.439453125 309 c 0
 263.439453125 281 253.439453125 240 238.439453125 187 c 0
 222.439453125 134 211.439453125 92 204.439453125 62 c 0
 203.8515625 54.35546875 202.91796875 49.8232421875 202.044921875 47.99609375 c 1
 216.0859375 47.9287109375 224.62109375 47 229.440429688 47 c 0
 273.440429688 47 325.440429688 51 385.440429688 58 c 0
 449.440429688 65 495.440429688 72 520.440429688 78 c 1
 527.440429688 78 l 2
 532.440429688 78 535.440429688 76 537.440429688 72 c 0
EndSplineSet
Validated: 524289
EndChar

StartChar: M
Encoding: 77 77 55
Width: 650
GlyphClass: 2
Flags: HMW
HStem: 664 20G
VStem: 119.735 1<-14.5 -10> 496.736 62<39 84 51.5 71>
LayerCount: 2
Fore
SplineSet
316.736328125 -7 m 1
 309.736328125 -7 304.736328125 -5 301.736328125 -1 c 0
 298.736328125 4 295.736328125 11 295.736328125 19 c 0
 295.736328125 51 300.736328125 124 309.736328125 239 c 0
 318.736328125 354 326.736328125 464 335.736328125 570 c 0
 337.736328125 610 342.736328125 648 345.736328125 684 c 1
 335.736328125 651 324.736328125 616 313.736328125 578 c 0
 298.736328125 529 283.736328125 470 265.736328125 403 c 0
 255.736328125 364 242.736328125 316 226.736328125 257 c 0
 217.736328125 224 208.736328125 194 200.736328125 167 c 0
 190.736328125 137 182.736328125 113 177.736328125 95 c 0
 172.736328125 78 167.736328125 65 166.736328125 58 c 0
 162.736328125 37 155.736328125 20 145.736328125 8 c 0
 136.736328125 -4 129.736328125 -10 120.736328125 -10 c 1
 120.736328125 -19 119.736328125 -19 119.736328125 -10 c 1
 118.736328125 -10 116.736328125 -8 115.736328125 -7 c 0
 111.736328125 -5 108.736328125 6 108.736328125 25 c 0
 108.736328125 33 111.736328125 44 114.736328125 58 c 0
 116.736328125 66 119.736328125 79 125.736328125 98 c 0
 131.736328125 118 140.736328125 144 151.736328125 178 c 0
 162.736328125 214 172.736328125 241 177.736328125 260 c 2
 224.736328125 412 l 2
 232.736328125 441 241.736328125 477 254.736328125 519 c 0
 278.736328125 601 296.736328125 649 307.736328125 666 c 0
 314.736328125 679 322.736328125 689 333.736328125 695 c 0
 344.736328125 701 354.736328125 704 362.736328125 704 c 2
 366.736328125 704 l 1
 367.736328125 704 l 2
 376.736328125 704 383.736328125 702 388.736328125 697 c 0
 393.736328125 691 394.736328125 681 394.736328125 667 c 2
 394.736328125 659 l 2
 394.736328125 606 383.736328125 483 361.736328125 291 c 0
 351.736328125 198 345.736328125 137 343.736328125 107 c 1
 350.736328125 97 358.736328125 95 365.736328125 102 c 1
 391.736328125 201 415.736328125 289 438.736328125 368 c 0
 455.736328125 425 474.736328125 482 495.736328125 539 c 0
 516.736328125 595 532.736328125 638 546.736328125 668 c 0
 550.736328125 678 556.736328125 686 563.736328125 692 c 0
 571.736328125 698 578.736328125 702 584.736328125 703 c 0
 590.736328125 703 596.736328125 704 599.736328125 704 c 2
 607.736328125 704 l 1
 611.736328125 704 l 1
 623.736328125 704 l 2
 625.736328125 704 630.736328125 703 634.736328125 702 c 0
 638.736328125 700 641.736328125 697 642.736328125 695 c 0
 643.736328125 693 644.736328125 689 645.736328125 683 c 0
 646.736328125 679 647.736328125 674 647.736328125 668 c 2
 647.736328125 665 l 2
 645.736328125 644 630.736328125 546 601.736328125 370 c 0
 573.736328125 195 558.736328125 96 558.736328125 72 c 0
 558.736328125 31 547.736328125 6 527.736328125 -4 c 0
 523.736328125 -6 520.736328125 -7 517.736328125 -7 c 0
 514.736328125 -7 509.736328125 -5 506.736328125 -2 c 0
 499.736328125 3 496.736328125 17 496.736328125 39 c 2
 496.736328125 44 l 2
 496.736328125 98 529.736328125 294 594.736328125 632 c 1
 587.736328125 642 578.736328125 644 570.736328125 639 c 1
 530.736328125 537 500.736328125 446 478.736328125 363 c 0
 456.736328125 286 434.736328125 212 411.736328125 143 c 0
 388.736328125 74 373.736328125 32 365.736328125 17 c 0
 358.736328125 1 342.736328125 -7 320.736328125 -7 c 1
 319.736328125 -15 317.736328125 -15 316.736328125 -7 c 1
EndSplineSet
Validated: 524289
EndChar

StartChar: N
Encoding: 78 78 56
Width: 650
GlyphClass: 2
Flags: HMW
HStem: -12 21G<132.241 138.741> 685 20G<316.741 319.741 646.741 653.741>
LayerCount: 2
Fore
SplineSet
563.241210938 190 m 0
 549.241210938 133 538.241210938 90 530.241210938 63 c 0
 521.241210938 35 515.241210938 18 512.241210938 11 c 0
 505.241210938 -6 491.241210938 -14 469.241210938 -14 c 1
 468.241210938 -22 466.241210938 -22 465.241210938 -14 c 1
 458.241210938 -14 453.241210938 -12 450.241210938 -7 c 0
 446.241210938 -2 443.241210938 5 443.241210938 13 c 0
 441.241210938 26 434.241210938 56 421.241210938 101 c 2
 382.241210938 246 l 2
 369.241210938 295 355.241210938 349 342.241210938 410 c 0
 329.241210938 471 321.241210938 523 317.241210938 565 c 0
 315.241210938 595 311.241210938 624 309.241210938 653 c 1
 304.241210938 626 299.241210938 597 294.241210938 567 c 0
 282.241210938 494 269.241210938 425 255.241210938 362 c 0
 240.241210938 298 224.241210938 233 207.241210938 167 c 0
 190.241210938 103 180.241210938 63 178.241210938 49 c 0
 175.241210938 27 168.241210938 11 159.241210938 2 c 0
 151.241210938 -7 143.241210938 -12 134.241210938 -12 c 0
 130.241210938 -12 127.241210938 -10 125.241210938 -8 c 0
 123.241210938 -6 121.241210938 3 121.241210938 17 c 0
 121.241210938 25 123.241210938 35 126.241210938 48 c 0
 128.241210938 62 142.241210938 114 164.241210938 204 c 2
 223.241210938 443 l 2
 239.241210938 512 253.241210938 578 264.241210938 640 c 0
 266.241210938 653 269.241210938 664 274.241210938 673 c 0
 278.241210938 683 283.241210938 690 289.241210938 695 c 0
 296.241210938 699 301.241210938 702 306.241210938 703 c 0
 311.241210938 704 315.241210938 705 318.241210938 705 c 0
 321.241210938 705 325.241210938 704 327.241210938 704 c 0
 336.241210938 704 343.241210938 702 348.241210938 697 c 0
 352.241210938 692 355.241210938 682 355.241210938 668 c 0
 357.241210938 625 374.241210938 543 404.241210938 422 c 0
 433.241210938 301 459.241210938 204 481.241210938 130 c 0
 485.241210938 115 489.241210938 102 493.241210938 92 c 1
 496.241210938 103 500.241210938 116 503.241210938 132 c 0
 518.241210938 195 539.241210938 288 564.241210938 409 c 0
 591.241210938 530 606.241210938 609 610.241210938 649 c 0
 612.241210938 664 617.241210938 677 625.241210938 688 c 0
 634.241210938 699 642.241210938 705 651.241210938 705 c 0
 656.241210938 705 661.241210938 704 663.241210938 703 c 0
 665.241210938 702 668.241210938 700 669.241210938 698 c 0
 670.241210938 693 671.241210938 685 671.241210938 673 c 0
 671.241210938 671 670.241210938 664 669.241210938 654 c 0
 669.241210938 643 657.241210938 590 635.241210938 495 c 0
 614.241210938 397 590.241210938 295 563.241210938 190 c 0
EndSplineSet
Validated: 524289
EndChar

StartChar: O
Encoding: 79 79 57
Width: 650
GlyphClass: 2
Flags: HMW
HStem: -24 72<299.379 300.379> 649 44<473.379 474.879>
VStem: 158.379 70<138.5 181.5> 565.379 65<517 533 517 534>
LayerCount: 2
Fore
SplineSet
605.37890625 367 m 0
 597.37890625 329 587.37890625 291 576.37890625 252 c 0
 565.37890625 213 554.37890625 183 543.37890625 161 c 0
 529.37890625 130 514.37890625 104 498.37890625 82 c 0
 483.37890625 61 467.37890625 43 452.37890625 29 c 0
 437.37890625 15 421.37890625 5 403.37890625 -3 c 0
 385.37890625 -11 367.37890625 -17 349.37890625 -20 c 0
 331.37890625 -23 311.37890625 -24 289.37890625 -24 c 0
 256.37890625 -24 227.37890625 -12 205.37890625 10 c 0
 183.37890625 32 168.37890625 62 161.37890625 101 c 0
 159.37890625 116 158.37890625 131 158.37890625 146 c 0
 158.37890625 161 162.37890625 189 169.37890625 231 c 0
 170.37890625 234 172.37890625 240 173.37890625 248 c 0
 180.37890625 278 185.37890625 302 190.37890625 320 c 0
 195.37890625 338 201.37890625 362 210.37890625 392 c 0
 227.37890625 448 249.37890625 501 278.37890625 551 c 0
 300.37890625 593 330.37890625 627 370.37890625 653 c 0
 410.37890625 679 452.37890625 693 494.37890625 693 c 0
 515.37890625 693 535.37890625 688 554.37890625 679 c 0
 573.37890625 670 588.37890625 657 601.37890625 639 c 0
 614.37890625 621 622.37890625 598 627.37890625 570 c 0
 629.37890625 556 630.37890625 541 630.37890625 525 c 0
 630.37890625 509 628.37890625 492 626.37890625 473 c 0
 621.37890625 440 613.37890625 405 605.37890625 367 c 0
354.37890625 55 m 0
 370.37890625 60 386.37890625 67 402.37890625 77 c 0
 418.37890625 87 432.37890625 101 446.37890625 118 c 0
 460.37890625 135 472.37890625 154 483.37890625 176 c 0
 488.37890625 184 495.37890625 204 504.37890625 237 c 0
 513.37890625 269 524.37890625 307 535.37890625 351 c 0
 546.37890625 395 555.37890625 439 562.37890625 481 c 0
 564.37890625 494 565.37890625 507 565.37890625 519 c 0
 565.37890625 549 560.37890625 576 547.37890625 598 c 0
 536.37890625 617 523.37890625 630 507.37890625 639 c 0
 496.37890625 646 482.37890625 649 467.37890625 649 c 0
 434.37890625 649 403.37890625 635 375.37890625 606 c 0
 348.37890625 579 325.37890625 541 305.37890625 492 c 0
 278.37890625 428 256.37890625 352 239.37890625 265 c 0
 232.37890625 225 228.37890625 194 228.37890625 169 c 0
 228.37890625 140 232.37890625 116 239.37890625 97 c 0
 244.37890625 83 253.37890625 71 265.37890625 62 c 0
 277.37890625 53 291.37890625 48 307.37890625 48 c 0
 323.37890625 48 338.37890625 50 354.37890625 55 c 0
EndSplineSet
Validated: 524289
EndChar

StartChar: P
Encoding: 80 80 58
Width: 650
GlyphClass: 2
Flags: HMW
HStem: 230 69<334.42 357.42 332.42 370.42> 642 45<435.92 481.42>
VStem: 267.92 3 563.92 62<538.5 539.5>
LayerCount: 2
Fore
SplineSet
328.919921875 633 m 1
 324.919921875 614 318.919921875 587 309.919921875 551 c 0
 300.919921875 515 291.919921875 478 283.919921875 440 c 0
 275.919921875 402 266.919921875 361 257.919921875 319 c 1
 266.919921875 315 l 2
 288.919921875 304 315.919921875 299 348.919921875 299 c 0
 365.919921875 299 380.919921875 301 395.919921875 304 c 0
 410.919921875 307 423.919921875 311 435.919921875 316 c 0
 447.919921875 321 457.919921875 328 467.919921875 336 c 0
 477.919921875 344 487.919921875 352 494.919921875 360 c 0
 501.919921875 368 508.919921875 378 515.919921875 389 c 0
 522.919921875 400 527.919921875 409 531.919921875 418 c 0
 535.919921875 427 539.919921875 437 543.919921875 448 c 0
 547.919921875 459 551.919921875 469 553.919921875 476 c 0
 555.919921875 483 558.919921875 493 560.919921875 504 c 0
 562.919921875 515 563.919921875 526 563.919921875 535 c 0
 563.919921875 544 563.919921875 551 562.919921875 558 c 0
 559.919921875 575 552.919921875 588 543.919921875 599 c 0
 534.919921875 610 525.919921875 618 512.919921875 625 c 0
 501.919921875 632 489.919921875 637 478.919921875 639 c 0
 467.919921875 641 456.919921875 642 445.919921875 642 c 0
 425.919921875 642 387.919921875 639 328.919921875 633 c 1
166.919921875 141 m 0
 173.919921875 163 179.920898438 193 185.920898438 231 c 0
 192.920898438 258 200.920898438 294 207.920898438 337 c 0
 216.920898438 379 222.920898438 414 228.920898438 442 c 0
 239.706054688 490.04296875 253.375 547.69921875 269.927734375 614.96875 c 0
 269.279296875 615.579101562 268.456054688 618.640625 267.919921875 624 c 1
 266.919921875 617 264.919921875 619 264.919921875 628 c 0
 264.919921875 630 263.919921875 632 263.919921875 634 c 0
 263.919921875 636 264.919921875 640 265.919921875 642 c 0
 267.919921875 649 270.919921875 655 275.919921875 660 c 0
 280.919921875 665 285.919921875 668 289.919921875 669 c 0
 310.919921875 674 340.919921875 679 380.919921875 682 c 0
 420.919921875 685 447.919921875 687 462.919921875 687 c 0
 499.919921875 687 533.919921875 680 560.919921875 665 c 0
 587.919921875 650 606.919921875 627 617.919921875 598 c 0
 623.919921875 581 625.919921875 563 625.919921875 543 c 0
 625.919921875 534 624.919921875 516 620.919921875 489 c 0
 611.919921875 453 598.919921875 420 579.919921875 388 c 0
 560.919921875 356 540.919921875 328 516.919921875 305 c 0
 494.919921875 282 468.919921875 263 440.919921875 250 c 0
 412.919921875 237 384.919921875 230 355.919921875 230 c 0
 312.919921875 230 278.919921875 233 256.919921875 240 c 1
 251.919921875 233 248.919921875 235 244.919921875 244 c 1
 237.919921875 207 232.919921875 176 228.919921875 151 c 0
 224.919921875 126 217.919921875 81 206.919921875 14 c 0
 204.919921875 4 197.919921875 -4 187.919921875 -10 c 0
 177.919921875 -16 168.919921875 -19 158.919921875 -19 c 0
 148.919921875 -19 141.919921875 -16 136.919921875 -11 c 0
 134.919921875 -9 132.919921875 -5 132.919921875 -1 c 0
 132.919921875 3 134.919921875 7 136.919921875 14 c 0
 143.919921875 42 153.919921875 84 166.919921875 141 c 0
EndSplineSet
Validated: 524289
EndChar

StartChar: Q
Encoding: 81 81 59
Width: 650
GlyphClass: 2
Flags: HMW
HStem: -39 20G -24 72 649 44
VStem: 161.617 71 333.617 46<146.5 196.5> 564.617 65
LayerCount: 2
Fore
SplineSet
337.6171875 48 m 1x7c
 351.6171875 48 l 1
 348.6171875 63 l 2
 341.6171875 92 336.6171875 115 334.6171875 132 c 0
 334.6171875 138 333.6171875 144 333.6171875 149 c 0
 333.6171875 174 340.6171875 193 355.6171875 204 c 0
 360.6171875 208 365.6171875 210 369.6171875 210 c 0
 371.6171875 210 372.6171875 210 374.6171875 208 c 0
 376.6171875 206 379.6171875 200 379.6171875 193 c 0
 381.6171875 160 390.6171875 123 402.6171875 82 c 2
 406.6171875 67 l 1
 417.6171875 75 l 2
 447.6171875 96 472.6171875 129 489.6171875 173 c 0
 494.6171875 183 500.6171875 203 508.6171875 234 c 0
 517.6171875 265 526.6171875 303 537.6171875 349 c 0
 548.6171875 395 556.6171875 439 561.6171875 481 c 0
 563.6171875 494 564.6171875 507 564.6171875 519 c 0
 564.6171875 552 558.6171875 579 545.6171875 601 c 0
 535.6171875 618 523.6171875 631 507.6171875 639 c 0
 496.6171875 646 482.6171875 649 467.6171875 649 c 0
 434.6171875 649 403.6171875 635 375.6171875 608 c 0
 347.6171875 581 325.6171875 543 305.6171875 494 c 0
 274.6171875 423 252.6171875 347 239.6171875 264 c 0
 235.6171875 240 232.6171875 218 232.6171875 197 c 0
 232.6171875 184 234.6171875 171 236.6171875 158 c 0
 241.6171875 125 250.6171875 99 266.6171875 79 c 0
 283.6171875 58 303.6171875 48 328.6171875 48 c 2
 337.6171875 48 l 1x7c
446.6171875 -211 m 0
 439.6171875 -209 434.618164062 -203.999023438 431.618164062 -194.999023438 c 0
 426.618164062 -182.999023438 417.618164062 -159.999023438 405.618164062 -127.999023438 c 0
 393.618164062 -95.9990234375 381.618164062 -59.9990234375 368.618164062 -18.9990234375 c 1xbc
 366.618164062 -27.9990234375 361.618164062 -27.9990234375 358.618164062 -20.9990234375 c 1
 343.618164062 -22.9990234375 327.618164062 -23.9990234375 310.618164062 -23.9990234375 c 0
 287.618164062 -23.9990234375 266.618164062 -19.9990234375 246.618164062 -10.9990234375 c 0
 226.618164062 -1.9990234375 211.618164062 10.0009765625 199.618164062 25.0009765625 c 0
 187.618164062 40.0009765625 177.618164062 60.0009765625 170.618164062 81.0009765625 c 0
 163.618164062 102.000976562 161.618164062 126.000976562 161.618164062 152.000976562 c 0
 161.618164062 178.000976562 163.618164062 205.000976562 168.618164062 232.000976562 c 0
 193.618164062 360.000976562 231.618164062 465.000976562 278.618164062 547.000976562 c 0
 300.618164062 589.000976562 331.618164062 623.000976562 371.618164062 651.000976562 c 0
 411.618164062 679.000976562 452.618164062 693.000976562 494.618164062 693.000976562 c 0
 539.618164062 693.000976562 574.618164062 677.000976562 599.618164062 644.000976562 c 0
 612.618164062 627.000976562 620.618164062 605.000976562 625.618164062 576.000976562 c 0
 627.618164062 561.000976562 629.618164062 545.000976562 629.618164062 528.000976562 c 0
 629.618164062 511.000976562 627.618164062 493.000976562 625.618164062 473.000976562 c 0
 619.618164062 427.000976562 608.618164062 372.000976562 592.618164062 307.000976562 c 0
 576.618164062 242.000976562 559.618164062 191.000976562 544.618164062 155.000976562 c 0
 516.618164062 86.0009765625 479.618164062 36.0009765625 432.618164062 7.0009765625 c 1
 430.044921875 -1.5751953125 426.736328125 -4.267578125 424.584960938 -0.4453125 c 1
 441.262695312 -42.5927734375 457.958984375 -83.77734375 475.6171875 -124 c 0
 480.6171875 -144 486.6171875 -155 491.6171875 -158 c 0
 491.6171875 -160 492.6171875 -163 492.6171875 -165 c 0
 492.6171875 -167 492.6171875 -170 491.6171875 -173 c 0
 489.6171875 -180 484.6171875 -187 479.6171875 -193 c 0
 474.6171875 -199 471.6171875 -205 467.6171875 -207 c 0
 462.6171875 -210 457.6171875 -212 452.6171875 -212 c 0
 450.6171875 -212 448.6171875 -211 446.6171875 -211 c 0
EndSplineSet
Validated: 524289
EndChar

StartChar: R
Encoding: 82 82 60
Width: 650
GlyphClass: 2
Flags: HMW
VStem: 154.886 1<-21 -19> 334.886 3 337.886 4<682 682> 563.886 64<459.5 483>
LayerCount: 2
Fore
SplineSet
491.885742188 -17 m 0xd0
 485.885742188 -15 480.885742188 -9 476.885742188 0 c 0
 469.885742188 15 460.885742188 32 447.885742188 53 c 0
 434.885742188 74 419.885742188 97 400.885742188 122 c 0
 381.885742188 147 360.885742188 172 334.885742188 197 c 0
 308.885742188 222 283.885742188 242 257.885742188 257 c 0
 256.182617188 255.296875 254.595703125 254.40625 253.045898438 254.40625 c 0
 250.044921875 254.40625 247.182617188 257.74609375 243.885742188 265 c 1
 243.885742188 253.838867188 242.411132812 248.57421875 241.361328125 248.57421875 c 0
 241.188476562 248.57421875 241.02734375 248.716796875 240.885742188 249 c 1
 233.885742188 210 225.885742188 165 218.885742188 112 c 0
 211.885742188 59 207.885742188 27 205.885742188 14 c 0
 203.885742188 4 197.885742188 -4 187.885742188 -10 c 0
 177.885742188 -16 168.885742188 -19 157.885742188 -19 c 2
 155.885742188 -19 l 1
 155.885742188 -23 155.635742188 -25 155.385742188 -25 c 0
 155.135742188 -25 154.885742188 -23 154.885742188 -19 c 1
 145.885742188 -19 138.885742188 -16 134.885742188 -11 c 0
 133.885742188 -9 131.885742188 -5 131.885742188 -1 c 0
 131.885742188 3 132.885742188 8 134.885742188 14 c 0
 145.885742188 49 153.885742188 79 159.885742188 104 c 0
 165.885742188 129 179.885742188 189 200.885742188 284 c 0
 202.885742188 298 209.885742188 325 220.885742188 365 c 0
 231.885742188 407 241.885742188 446 248.885742188 483 c 0
 252.885742188 505 256.885742188 537 262.885742188 576 c 0
 268.885742188 615 272.885742188 638 274.885742188 645 c 1
 222.922851562 468.625 196.922851562 380.375 196.885742188 380.375 c 1
 196.885742188 380.375 222.848632812 468.875 274.885742188 646 c 1
 274.885742188 643.215820312 275.043945312 641.85546875 275.234375 641.85546875 c 0
 275.522460938 641.85546875 275.885742188 644.9765625 275.885742188 651 c 0
 276.885742188 661 281.885742188 670 290.885742188 678 c 0
 297.885742188 686 306.885742188 690 316.885742188 690 c 0
 325.885742188 690 331.885742188 688 334.885742188 685 c 0
 335.448242188 679.9375 336.327148438 677.40625 336.98828125 677.40625 c 0
 337.502929688 677.40625 337.885742188 678.9375 337.885742188 682 c 1
 338.385742188 678 339.135742188 676 339.885742188 676 c 0
 340.635742188 676 341.385742188 678 341.885742188 682 c 1xb0
 385.885742188 680 426.885742188 672 461.885742188 661 c 0
 496.885742188 649 526.885742188 635 548.885742188 619 c 0
 570.885742188 603 589.885742188 584 602.885742188 563 c 0
 615.885742188 542 624.885742188 523 626.885742188 502 c 0
 626.885742188 495 627.885742188 487 627.885742188 479 c 0
 627.885742188 466 625.885742188 453 623.885742188 440 c 0
 616.885742188 409 603.885742188 383 583.885742188 363 c 0
 574.885742188 354 563.885742188 345 550.885742188 337 c 0
 537.885742188 329 524.885742188 323 510.885742188 318 c 0
 497.885742188 313 482.885742188 308 465.885742188 304 c 0
 448.885742188 300 432.885742188 295 415.885742188 293 c 0
 398.885742188 291 379.885742188 289 358.885742188 287 c 1
 352.698242188 281.9375 346.510742188 279.40625 340.323242188 279.40625 c 2
 325.885742188 284 l 1
 334.249023438 270.060546875 343.4765625 263.893554688 351.961914062 263.893554688 c 0
 352.607421875 263.893554688 353.249023438 263.9296875 353.885742188 264 c 0
 402.885742188 230 442.885742188 190 475.885742188 146 c 0
 509.885742188 102 530.885742188 64 537.885742188 33 c 1
 537.885742188 30 l 2
 537.885742188 22 535.885742188 15 531.885742188 8 c 0
 526.885742188 -1 519.885742188 -7 512.885742188 -12 c 0
 506.885742188 -16 501.885742188 -18 496.885742188 -18 c 0
 495.885742188 -18 493.885742188 -17 491.885742188 -17 c 0xd0
483.885742188 368 m 0
 495.885742188 372 506.885742188 377 517.885742188 384 c 0
 539.885742188 397 554.885742188 417 560.885742188 442 c 0
 562.885742188 449 563.885742188 456 563.885742188 463 c 0
 563.885742188 477 560.885742188 491 553.885742188 504 c 0
 543.885742188 524 529.885742188 540 512.885742188 554 c 0
 496.885742188 568 477.885742188 581 456.885742188 592 c 0
 416.885742188 613 378.885742188 628 338.885742188 636 c 2
 328.885742188 638 l 1
 317.885742188 581 308.885742188 535 302.885742188 500 c 0
 301.885742188 493 298.885742188 480 293.885742188 462 c 0
 288.885742188 444 278.885742188 407 261.885742188 350 c 1
 273.885742188 347 l 2
 280.885742188 346 290.885742188 345 301.885742188 345 c 2
 304.885742188 345 l 2
 306.885742188 345 316.885742188 346 335.885742188 347 c 0
 405.885742188 350 454.885742188 357 483.885742188 368 c 0
EndSplineSet
Validated: 524289
EndChar

StartChar: S
Encoding: 83 83 61
Width: 650
GlyphClass: 2
Flags: HMW
HStem: -29 62<291.911 295.911> 668 56<500.911 545.911>
VStem: 252.411 70<474 520.5> 516.411 71<234.5 287.5>
LayerCount: 2
Fore
SplineSet
155.411132812 117 m 0
 162.411132812 120 168.411132812 123 171.411132812 123 c 0
 174.411132812 123 178.411132812 124 179.411132812 124 c 2
 184.411132812 124 l 2
 185.411132812 124 187.411132812 122 189.411132812 119 c 0
 191.411132812 116 195.411132812 110 198.411132812 103 c 0
 206.411132812 82 219.411132812 65 239.411132812 52 c 0
 257.411132812 39 279.411132812 33 304.411132812 33 c 0
 319.411132812 33 335.411132812 36 352.411132812 41 c 0
 369.411132812 46 385.411132812 52 402.411132812 62 c 0
 419.411132812 72 435.411132812 84 450.411132812 97 c 0
 465.411132812 110 477.411132812 125 488.411132812 143 c 0
 499.411132812 161 507.411132812 180 511.411132812 200 c 0
 514.411132812 216 516.411132812 229 516.411132812 240 c 0
 516.411132812 259 513.411132812 275 506.411132812 290 c 0
 501.411132812 299 494.411132812 308 485.411132812 317 c 0
 476.411132812 326 466.411132812 334 453.411132812 341 c 0
 440.411132812 348 425.411132812 353 406.411132812 358 c 0
 387.411132812 363 366.411132812 368 343.411132812 371 c 0
 325.411132812 373 309.411132812 380 296.411132812 389 c 0
 283.411132812 398 274.411132812 409 267.411132812 422 c 0
 257.411132812 442 252.411132812 463 252.411132812 485 c 0
 252.411132812 492 252.411132812 499 254.411132812 508 c 0
 259.411132812 530 266.411132812 551 277.411132812 572 c 0
 288.411132812 593 302.411132812 612 319.411132812 631 c 0
 336.411132812 650 356.411132812 666 377.411132812 680 c 0
 398.411132812 694 423.411132812 704 451.411132812 712 c 0
 479.411132812 720 507.411132812 724 538.411132812 724 c 0
 553.411132812 724 575.411132812 722 602.411132812 719 c 0
 629.411132812 716 648.411132812 712 657.411132812 708 c 0
 664.411132812 706 669.411132812 701 671.411132812 694 c 0
 671.411132812 691 672.411132812 687 672.411132812 683 c 0
 672.411132812 679 671.411132812 673 669.411132812 667 c 0
 667.411132812 661 664.411132812 656 661.411132812 654 c 0
 658.411132812 652 654.411132812 649 650.411132812 649 c 0
 646.411132812 649 643.411132812 648 639.411132812 648 c 0
 635.411132812 648 631.411132812 649 626.411132812 650 c 0
 624.411132812 650 620.411132812 652 618.411132812 653 c 0
 607.411132812 656 599.411132812 660 592.411132812 661 c 0
 585.411132812 662 575.411132812 664 561.411132812 665 c 0
 547.411132812 667 531.411132812 668 514.411132812 668 c 0
 487.411132812 668 460.411132812 663 434.411132812 653 c 0
 408.411132812 643 384.411132812 628 363.411132812 608 c 0
 342.411132812 588 330.411132812 566 325.411132812 540 c 0
 323.411132812 532 322.411132812 524 322.411132812 517 c 0
 322.411132812 495 330.411132812 476 343.411132812 460 c 0
 360.411132812 439 388.411132812 428 426.411132812 426 c 0
 456.411132812 424 482.411132812 418 503.411132812 409 c 0
 524.411132812 400 541.411132812 389 552.411132812 376 c 0
 564.411132812 363 573.411132812 348 579.411132812 331 c 0
 585.411132812 314 587.411132812 296 587.411132812 279 c 0
 587.411132812 262 586.411132812 243 581.411132812 223 c 0
 574.411132812 192 563.411132812 164 548.411132812 137 c 0
 533.411132812 110 517.411132812 87 497.411132812 67 c 0
 477.411132812 47 456.411132812 30 433.411132812 15 c 0
 410.411132812 0 384.411132812 -11 359.411132812 -18 c 0
 334.411132812 -25 308.411132812 -29 283.411132812 -29 c 0
 243.411132812 -29 211.411132812 -20 184.411132812 -2 c 0
 157.411132812 16 140.411132812 36 134.411132812 60 c 0
 133.411132812 67 132.411132812 74 132.411132812 80 c 0
 132.411132812 86 134.411132812 92 136.411132812 97 c 0
 140.411132812 106 146.411132812 112 155.411132812 117 c 0
EndSplineSet
Validated: 524289
EndChar

StartChar: T
Encoding: 84 84 62
Width: 650
GlyphClass: 2
Flags: HMW
HStem: 612 64<625.9 653.4 625.9 653.4>
LayerCount: 2
Fore
SplineSet
366.900390625 303 m 0
 394.900390625 459 412.900390625 560 421.900390625 606 c 1
 421.900390625 603 423.900390625 607 424.900390625 620 c 1
 340.900390625 625 293.900390625 628 281.900390625 630 c 0
 261.900390625 633 251.900390625 640 251.900390625 649 c 0
 251.900390625 651 252.900390625 653 252.900390625 655 c 0
 253.900390625 665 259.900390625 674 268.900390625 682 c 0
 274.900390625 687 281.900390625 690 288.900390625 690 c 0
 290.900390625 690 292.900390625 689 294.900390625 689 c 0
 327.900390625 682 444.900390625 678 647.900390625 676 c 0
 658.900390625 676 665.900390625 674 667.900390625 670 c 0
 669.900390625 666 670.900390625 662 670.900390625 657 c 0
 670.900390625 655 669.900390625 652 669.900390625 650 c 0
 667.900390625 640 661.900390625 631 653.900390625 622 c 0
 646.900390625 615 638.900390625 612 629.900390625 612 c 2
 625.900390625 612 l 2
 607.150390625 609.75 588.822265625 608.625 570.916015625 608.625 c 0
 541.072265625 608.625 512.400390625 611.75 484.900390625 618 c 1
 456.900390625 475 419.900390625 277 374.900390625 24 c 0
 371.900390625 13 364.900390625 4 354.900390625 -3 c 0
 344.900390625 -10 334.900390625 -13 325.900390625 -13 c 2
 322.900390625 -13 l 2
 314.900390625 -13 308.900390625 -10 304.900390625 -5 c 0
 303.900390625 -3 302.900390625 1 302.900390625 6 c 0
 302.900390625 11 303.900390625 16 305.900390625 23 c 0
 314.900390625 54 335.900390625 147 366.900390625 303 c 0
EndSplineSet
Validated: 524289
EndChar

StartChar: U
Encoding: 85 85 63
Width: 650
GlyphClass: 2
Flags: HMW
HStem: -29 67<290.28 347.28>
VStem: 150.28 68<141.5 183.5> 250.28 62
LayerCount: 2
Fore
SplineSet
582.280273438 251 m 0
 575.280273438 222 566.280273438 194 553.280273438 168 c 0
 542.280273438 143 529.280273438 121 516.280273438 102 c 0
 503.280273438 83 490.280273438 66 475.280273438 51 c 0
 460.280273438 36 445.280273438 24 430.280273438 14 c 0
 415.280273438 4 400.280273438 -5 384.280273438 -11 c 0
 368.280273438 -17 354.280273438 -21 340.280273438 -24 c 0
 326.280273438 -27 311.280273438 -29 297.280273438 -29 c 0
 283.280273438 -29 268.280273438 -27 253.280273438 -22 c 0
 237.280273438 -17 221.280273438 -8 206.280273438 4 c 0
 191.280273438 16 179.280273438 31 169.280273438 49 c 0
 159.280273438 67 153.280273438 91 151.280273438 121 c 0
 151.280273438 129 150.280273438 137 150.280273438 146 c 0
 150.280273438 170 152.280273438 196 157.280273438 224 c 0
 199.280273438 427 230.280273438 564 250.280273438 637 c 0
 254.280273438 653 261.280273438 665 270.280273438 673 c 0
 279.280273438 681 288.280273438 685 297.280273438 685 c 0
 303.280273438 685 307.280273438 684 309.280273438 681 c 0
 311.280273438 678 312.280273438 673 312.280273438 667 c 0
 312.280273438 661 310.280273438 655 309.280273438 648 c 0
 259.280273438 422 230.280273438 285 223.280273438 238 c 0
 219.280273438 214 218.280273438 193 218.280273438 174 c 0
 218.280273438 160 219.280273438 146 221.280273438 131 c 0
 224.280273438 113 231.280273438 97 239.280273438 83 c 0
 247.280273438 69 259.280273438 59 274.280273438 50 c 0
 289.280273438 42 305.280273438 38 325.280273438 38 c 0
 369.280273438 38 408.280273438 54 442.280273438 88 c 0
 476.280273438 122 501.280273438 172 519.280273438 239 c 0
 528.280273438 267 538.280273438 303 547.280273438 345 c 0
 557.280273438 387 566.280273438 426 573.280273438 459 c 0
 596.280273438 566 609.280273438 623 610.280273438 629 c 0
 617.280273438 656 625.280273438 673 633.280273438 679 c 0
 637.280273438 682 640.280273438 685 643.280273438 685 c 0
 646.280273438 685 650.280273438 686 655.280273438 686 c 0
 660.280273438 686 663.280273438 685 665.280273438 684 c 0
 667.280273438 683 670.280273438 680 672.280273438 676 c 0
 674.280273438 672 675.280273438 669 675.280273438 664 c 0
 675.280273438 659 674.280273438 652 673.280273438 645 c 0
 654.280273438 541 624.280273438 410 582.280273438 251 c 0
EndSplineSet
Validated: 524289
EndChar

StartChar: V
Encoding: 86 86 64
Width: 650
GlyphClass: 2
Flags: HMW
VStem: 237.874 64<623 664 631 664>
LayerCount: 2
Fore
SplineSet
687.874023438 674 m 2
 687.874023438 668 l 2
 686.874023438 662 681.874023438 654 674.874023438 645 c 0
 652.874023438 610 600.874023438 512 517.874023438 352 c 1
 440.874023438 193 389.874023438 85 365.874023438 27 c 0
 361.874023438 15 356.874023438 6 349.874023438 -1 c 0
 342.874023438 -8 334.874023438 -12 325.874023438 -12 c 2
 319.874023438 -12 l 2
 309.874023438 -12 301.874023438 -10 296.874023438 -5 c 0
 290.874023438 0 286.874023438 10 285.874023438 24 c 0
 276.874023438 96 265.874023438 204 254.874023438 350 c 0
 243.874023438 494 237.874023438 585 237.874023438 623 c 2
 237.874023438 631 l 2
 237.874023438 672 246.874023438 697 266.874023438 707 c 0
 271.874023438 709 274.874023438 711 278.874023438 711 c 0
 282.874023438 711 286.874023438 709 289.874023438 706 c 0
 296.874023438 700 300.874023438 686 301.874023438 664 c 0
 301.874023438 659 304.874023438 599 310.874023438 486 c 2
 318.874023438 359 l 1
 326.874023438 226 l 2
 329.874023438 184 332.874023438 151 334.874023438 126 c 0
 334.874023438 109 336.874023438 94 337.874023438 82 c 1
 344.874023438 90 350.874023438 102 357.874023438 117 c 0
 393.874023438 192 445.874023438 301 512.874023438 445 c 2
 619.874023438 664 l 2
 629.874023438 685 640.874023438 699 651.874023438 705 c 0
 656.874023438 709 661.874023438 711 666.874023438 711 c 0
 668.874023438 711 671.874023438 710 676.874023438 708 c 0
 679.874023438 704 682.874023438 699 684.874023438 692 c 0
 686.874023438 687 687.874023438 681 687.874023438 674 c 2
EndSplineSet
Validated: 524289
EndChar

StartChar: W
Encoding: 87 87 65
Width: 650
GlyphClass: 2
Flags: HMW
VStem: 628.24 57
LayerCount: 2
Fore
SplineSet
159.240234375 27 m 2
 159.240234375 30 l 1
 159.240234375 30 160.240234375 31 160.240234375 32 c 0
 160.240234375 34 161.240234375 58 164.240234375 105 c 0
 166.240234375 136 170.240234375 168 174.240234375 199 c 0
 184.240234375 276 205.240234375 420 236.240234375 632 c 0
 242.240234375 675 254.240234375 702 274.240234375 711 c 0
 276.240234375 713 281.240234375 714 283.240234375 714 c 2
 285.240234375 714 l 2
 289.240234375 713 292.240234375 710 295.240234375 708 c 0
 297.240234375 707 299.240234375 702 299.240234375 693 c 0
 299.240234375 690 300.240234375 686 300.240234375 681 c 0
 300.240234375 679 299.240234375 676 298.240234375 672 c 0
 289.240234375 633 267.240234375 490 232.240234375 242 c 0
 229.240234375 219 226.240234375 187 221.240234375 147 c 0
 216.240234375 103 212.240234375 75 211.240234375 65 c 1
 218.240234375 55 226.240234375 53 234.240234375 59 c 1
 241.240234375 81 251.240234375 108 261.240234375 140 c 0
 270.240234375 169 291.240234375 237 324.240234375 342 c 2
 324.240234375 342 338.240234375 392 370.240234375 493 c 0
 387.240234375 545 402.240234375 588 414.240234375 622 c 0
 426.240234375 657 434.240234375 678 439.240234375 687 c 0
 446.240234375 703 461.240234375 711 482.240234375 711 c 1
 483.240234375 720 485.240234375 720 486.240234375 712 c 1
 501.240234375 712 508.240234375 703 508.240234375 685 c 0
 508.240234375 668 504.240234375 621 496.240234375 544 c 0
 494.240234375 517 489.240234375 479 483.240234375 428 c 0
 478.240234375 378 474.240234375 340 472.240234375 313 c 0
 467.240234375 273 460.240234375 208 454.240234375 116 c 0
 452.240234375 81 451.240234375 49 449.240234375 18 c 1
 458.240234375 45 467.240234375 75 476.240234375 108 c 0
 506.240234375 204 543.240234375 332 586.240234375 493 c 0
 610.240234375 572 624.240234375 623 628.240234375 645 c 0
 631.240234375 667 638.240234375 684 648.240234375 696 c 0
 657.240234375 707 665.240234375 713 673.240234375 713 c 0
 675.240234375 713 679.240234375 712 680.240234375 711 c 0
 684.240234375 708 685.240234375 697 685.240234375 678 c 0
 685.240234375 670 684.240234375 659 681.240234375 645 c 0
 673.240234375 611 658.240234375 560 636.240234375 491 c 2
 591.240234375 347 l 1
 591.240234375 347 580.240234375 303 553.240234375 217 c 0
 536.240234375 161 523.240234375 118 512.240234375 89 c 0
 501.240234375 59 492.240234375 39 485.240234375 28 c 0
 478.240234375 14 468.240234375 4 457.240234375 -3 c 0
 446.240234375 -8 438.240234375 -11 431.240234375 -11 c 2
 427.240234375 -11 l 1
 425.240234375 -11 l 2
 416.240234375 -11 409.240234375 -8 404.240234375 -3 c 0
 399.240234375 2 397.240234375 12 397.240234375 26 c 2
 397.240234375 30 l 2
 397.240234375 92 404.240234375 175 418.240234375 279 c 2
 436.240234375 411 l 2
 448.240234375 504 456.240234375 566 459.240234375 595 c 1
 452.240234375 605 444.240234375 607 437.240234375 601 c 1
 406.240234375 490 372.240234375 374 336.240234375 255 c 0
 301.240234375 137 276.240234375 61 261.240234375 26 c 0
 258.240234375 15 252.240234375 7 244.240234375 1 c 0
 236.240234375 -4 228.240234375 -8 220.240234375 -9 c 0
 212.240234375 -10 206.240234375 -11 199.240234375 -11 c 0
 188.240234375 -10 178.240234375 -9 170.240234375 -8 c 0
 167.240234375 -6 165.240234375 -4 164.240234375 -2 c 0
 162.240234375 0 161.240234375 4 160.240234375 11 c 0
 159.240234375 16 159.240234375 21 159.240234375 27 c 2
193.240234375 -11 m 1024
EndSplineSet
Validated: 524289
EndChar

StartChar: X
Encoding: 88 88 66
Width: 650
GlyphClass: 2
Flags: HMW
VStem: 269.902 66
LayerCount: 2
Fore
SplineSet
498.90234375 -18 m 0
 491.90234375 -15 485.90234375 -7 479.90234375 5 c 0
 472.90234375 19 463.90234375 41 454.90234375 71 c 0
 445.90234375 100 434.90234375 137 422.90234375 183 c 0
 410.90234375 230 399.90234375 271 390.90234375 305 c 1
 377.90234375 288 l 2
 352.90234375 255 312.90234375 200 259.90234375 123 c 0
 203.90234375 48 172.90234375 7 165.90234375 0 c 0
 156.90234375 -11 148.90234375 -18 141.90234375 -21 c 0
 137.90234375 -23 133.90234375 -24 131.90234375 -24 c 0
 126.90234375 -24 122.90234375 -19 117.90234375 -9 c 0
 114.90234375 -3 112.90234375 4 112.90234375 11 c 0
 112.90234375 18 119.90234375 31 131.90234375 48 c 0
 138.90234375 56 174.90234375 98 238.90234375 175 c 1
 298.90234375 255 341.90234375 315 370.90234375 357 c 1
 274.90234375 627 l 2
 271.90234375 635 269.90234375 642 269.90234375 649 c 0
 269.90234375 667 275.90234375 682 286.90234375 693 c 0
 294.90234375 702 302.90234375 706 310.90234375 706 c 0
 312.90234375 706 316.90234375 704 320.90234375 702 c 0
 326.90234375 698 331.90234375 690 335.90234375 679 c 0
 348.90234375 651 375.90234375 567 417.90234375 427 c 2
 424.90234375 405 l 1
 437.90234375 424 l 2
 535.90234375 568 597.90234375 654 623.90234375 683 c 0
 631.90234375 694 639.90234375 701 647.90234375 705 c 0
 652.90234375 707 657.90234375 709 661.90234375 709 c 0
 666.90234375 709 670.90234375 707 674.90234375 700 c 0
 676.90234375 695 679.90234375 689 679.90234375 683 c 0
 679.90234375 682 680.90234375 679 680.90234375 676 c 2
 677.90234375 667 l 2
 675.90234375 661 671.90234375 655 664.90234375 648 c 2
 570.90234375 532 l 1
 511.90234375 450 472.90234375 395 451.90234375 364 c 0
 449.90234375 362 446.90234375 358 442.90234375 351 c 1
 452.90234375 321 468.90234375 269 489.90234375 195 c 0
 510.90234375 121 525.90234375 75 534.90234375 55 c 0
 539.90234375 45 541.90234375 36 541.90234375 28 c 0
 541.90234375 22 540.90234375 16 539.90234375 11 c 0
 538.90234375 6 535.90234375 1 531.90234375 -5 c 0
 523.90234375 -16 515.90234375 -22 508.90234375 -22 c 0
 506.90234375 -22 502.90234375 -20 498.90234375 -18 c 0
EndSplineSet
Validated: 524289
EndChar

StartChar: Y
Encoding: 89 89 67
Width: 650
GlyphClass: 2
Flags: HMW
VStem: 240.756 76<613 653.5 626 653.5>
LayerCount: 2
Fore
SplineSet
663.755859375 623 m 0
 658.755859375 615 649.755859375 601.999023438 636.755859375 582.999023438 c 0
 623.755859375 563.999023438 611.755859375 546.999023438 603.755859375 533.999023438 c 0
 595.755859375 520.999023438 578.755859375 496.999023438 553.755859375 461.999023438 c 0
 531.755859375 426.999023438 511.755859375 396.999023438 497.755859375 374.999023438 c 0
 465.713867188 324.647460938 430.103515625 298.091796875 401.755859375 209 c 0
 380.755859375 143 385.576171875 95.607421875 337.755859375 -17 c 0
 332.659179688 -29.0009765625 311.755859375 -35 300.755859375 -38 c 0
 298.755859375 -38 294.755859375 -39 292.755859375 -39 c 0
 287.755859375 -39 282.755859375 -37 277.755859375 -33 c 0
 272.755859375 -28 268.755859375 -21 268.755859375 -13 c 0
 268.755859375 -10 270.755859375 -6 270.755859375 -4 c 0
 271.755859375 3 277.061523438 8.7080078125 280.755859375 18 c 0
 313.755859375 101 280.755859375 18 344.755859375 231 c 1
 338.755859375 258 330.755859375 291 319.755859375 329 c 0
 308.755859375 367 301.755859375 393 297.755859375 407 c 0
 293.755859375 421 286.755859375 443 276.755859375 475 c 0
 267.755859375 504 259.755859375 530 253.755859375 551 c 0
 247.755859375 572 242.755859375 593 240.755859375 613 c 2
 240.755859375 626 l 2
 240.755859375 634 241.755859375 641 243.755859375 647 c 0
 246.755859375 657 251.755859375 665 256.755859375 670 c 0
 261.755859375 675 266.755859375 680 273.755859375 682 c 0
 279.755859375 684 284.755859375 686 289.755859375 686 c 0
 293.755859375 686 297.755859375 685 301.755859375 684 c 0
 305.755859375 683 308.755859375 679 310.755859375 673 c 0
 312.755859375 667 316.755859375 659 316.755859375 648 c 0
 317.755859375 625 320.755859375 600 324.755859375 573 c 0
 325.755859375 564 327.755859375 552 331.755859375 536 c 0
 335.755859375 520 338.755859375 510 339.755859375 506 c 0
 350.755859375 464 357.755859375 442 357.755859375 442 c 2
 368.755859375 403 376.755859375 365 382.755859375 328 c 0
 383.755859375 311 385.755859375 301 386.755859375 300 c 0
 391.755859375 300 397.755859375 308 402.755859375 323 c 0
 404.755859375 327 413.755859375 340 426.755859375 362 c 0
 439.755859375 384 461.755859375 418 490.755859375 465 c 0
 519.755859375 512 540.755859375 548 555.755859375 574 c 0
 560.755859375 583 568.755859375 595 579.755859375 611 c 0
 591.755859375 627 601.755859375 640 606.755859375 649 c 0
 612.755859375 660 618.755859375 668 624.755859375 675 c 0
 630.755859375 682 636.755859375 686 641.755859375 688 c 0
 651.755859375 692 659.755859375 692 666.755859375 689 c 0
 668.755859375 687 672.755859375 684 674.755859375 682 c 0
 677.755859375 677 678.755859375 670 678.755859375 663 c 0
 678.755859375 661 678.755859375 656 677.755859375 651 c 0
 675.755859375 642 669.755859375 633 663.755859375 623 c 0
EndSplineSet
Validated: 524289
EndChar

StartChar: Z
Encoding: 90 90 68
Width: 650
GlyphClass: 2
Flags: HMW
HStem: 9 63 627 69<285.856 332.356 289.356 332.356> 629 55
LayerCount: 2
Fore
SplineSet
540.35546875 40 m 2xa0
 538.35546875 29 533.35546875 21 526.35546875 14 c 0
 519.35546875 7 510.35546875 3 496.35546875 3 c 0
 493.35546875 3 460.35546875 4 400.35546875 6 c 0
 340.35546875 8 284.35546875 9 231.35546875 9 c 0
 208.35546875 9 178.35546875 8 139.35546875 7 c 2
 138.35546875 7 l 2
 136.35546875 7 132.35546875 8 131.35546875 9 c 0
 130.35546875 10 127.35546875 15 125.35546875 20 c 0
 123.35546875 25 123.35546875 31 123.35546875 36 c 2
 123.35546875 49 l 2
 124.35546875 55 130.35546875 66 139.35546875 81 c 0
 148.35546875 96 163.35546875 117 184.35546875 144 c 0
 212.35546875 181 270.35546875 256 360.35546875 368 c 0
 449.35546875 480 517.35546875 561 561.35546875 612 c 2
 581.35546875 634 l 1
 532.35546875 632 477.35546875 630 415.35546875 629 c 0
 353.35546875 628 311.35546875 627 290.35546875 627 c 2xc0
 289.35546875 627 l 2
 282.35546875 627 276.35546875 628 275.35546875 632 c 0
 274.35546875 636 272.35546875 640 272.35546875 644 c 0
 272.35546875 648 273.35546875 651 273.35546875 655 c 0
 275.35546875 664 282.35546875 674 292.35546875 683 c 0
 302.35546875 692 314.35546875 696 326.35546875 696 c 0
 338.35546875 696 355.35546875 694 376.35546875 690 c 0
 397.35546875 686 416.35546875 684 431.35546875 684 c 2
 448.35546875 684 l 2
 487.35546875 684 538.35546875 686 602.35546875 691 c 0
 640.35546875 693 661.35546875 695 661.35546875 695 c 2
 663.35546875 695 666.35546875 694 667.35546875 693 c 0
 668.35546875 692 670.35546875 689 671.35546875 687 c 0
 673.35546875 682 676.35546875 676 676.35546875 670 c 0
 676.35546875 667 674.35546875 663 674.35546875 658 c 0
 672.35546875 654 668.35546875 648 659.35546875 639 c 0
 650.35546875 630 637.35546875 618 623.35546875 605 c 0
 609.35546875 592 600.35546875 581 593.35546875 573 c 0
 566.35546875 540 527.35546875 493 477.35546875 431 c 0
 427.35546875 369 378.35546875 308 330.35546875 247 c 0
 282.35546875 186 240.35546875 131 207.35546875 84 c 2
 192.35546875 63 l 1
 219.35546875 65 l 2
 288.35546875 70 351.35546875 72 410.35546875 72 c 0
 457.35546875 72 492.35546875 70 514.35546875 66 c 0
 526.35546875 64 534.35546875 60 538.35546875 55 c 0
 540.35546875 53 540.35546875 50 540.35546875 46 c 2
 540.35546875 40 l 2xa0
EndSplineSet
Validated: 524289
EndChar

StartChar: bracketleft
Encoding: 91 91 69
Width: 650
GlyphClass: 2
Flags: HMW
HStem: -69 47 773 64<622.292 624.292>
LayerCount: 2
Fore
SplineSet
546.291992188 837 m 1
 617.291992188 837 l 2
 631.291992188 837 639.291992188 838 639.291992188 838 c 2
 648.291992188 838 654.291992188 837 656.291992188 833 c 0
 658.291992188 829 659.291992188 824 659.291992188 819 c 2
 659.291992188 812 l 2
 658.291992188 807 655.291992188 803 653.291992188 798 c 0
 647.291992188 786 640.291992188 778 631.291992188 775 c 0
 628.291992188 774 625.291992188 773 623.291992188 773 c 0
 621.291992188 773 618.291992188 774 617.291992188 774 c 0
 594.291992188 778 556.291992188 780 504.291992188 780 c 0
 481.291992188 780 451.291992188 779 416.291992188 778 c 1
 411.291992188 758 402.291992188 719 387.291992188 661 c 0
 372.291992188 603 360.291992188 555 350.291992188 516 c 0
 340.291992188 477 329.291992188 431 317.291992188 377 c 0
 310.291992188 337 294.291992188 268 270.291992188 170 c 0
 246.291992188 72 231.291992188 8 224.291992188 -22 c 1
 267.291992188 -22 l 2
 297.291992188 -22 333.291992188 -21 375.291992188 -20 c 0
 417.291992188 -19 440.291992188 -17 445.291992188 -17 c 0
 455.291992188 -17 461.291992188 -19 463.291992188 -21 c 0
 465.291992188 -25 465.291992188 -31 464.291992188 -39 c 0
 462.291992188 -49 458.291992188 -58 452.291992188 -65 c 0
 450.291992188 -68 446.291992188 -71 443.291992188 -72 c 0
 440.291992188 -73 437.291992188 -74 435.291992188 -74 c 0
 433.291992188 -74 430.291992188 -73 428.291992188 -73 c 0
 413.291992188 -71 393.291992188 -70 368.291992188 -70 c 0
 366.291992188 -70 358.291992188 -69 347.291992188 -69 c 0
 336.291992188 -69 321.291992188 -70 304.291992188 -71 c 0
 241.291992188 -75 198.291992188 -77 176.291992188 -77 c 0
 163.291992188 -77 155.291992188 -74 151.291992188 -70 c 0
 149.291992188 -68 148.291992188 -65 148.291992188 -61 c 0
 148.291992188 -55 150.291992188 -47 155.291992188 -37 c 1
 155.291992188 -36 l 1
 158.291992188 -27 l 2
 169.291992188 8 186.291992188 71 208.291992188 161 c 0
 230.291992188 251 251.291992188 341 270.291992188 431 c 0
 273.291992188 452 278.291992188 474 284.291992188 500 c 0
 290.291992188 526 302.291992188 579 322.291992188 660 c 0
 327.291992188 681 332.291992188 703 339.291992188 729 c 0
 346.291992188 755 350.291992188 772 352.291992188 781 c 2
 353.291992188 784 l 2
 353.291992188 788 352.291992188 791 352.291992188 793 c 0
 352.291992188 805 357.291992188 815 367.291992188 824 c 0
 374.291992188 831 385.291992188 835 398.291992188 835 c 0
 442.291992188 836 483.291992188 837 519.291992188 837 c 2
 546.291992188 837 l 1
EndSplineSet
Validated: 524289
EndChar

StartChar: backslash
Encoding: 92 92 70
Width: 650
GlyphClass: 2
Flags: HMW
VStem: 462.443 71<4.29497e+09 4.29497e+09>
LayerCount: 2
Fore
SplineSet
485.442382812 -45 m 0
 474.442382812 -39 467.442382812 -29 462.442382812 -14 c 0
 460.442382812 -3 452.442382812 27 441.442382812 76 c 0
 430.442382812 125 422.442382812 160 417.442382812 181 c 0
 408.442382812 214 381.442382812 296 338.442382812 429 c 0
 295.442382812 562 269.442382812 645 261.442382812 679 c 0
 260.442382812 684 259.442382812 689 259.442382812 694 c 0
 259.442382812 702 261.442382812 709 263.442382812 715 c 0
 268.442382812 724 275.442382812 731 285.442382812 736 c 0
 293.442382812 739 300.442382812 741 307.442382812 741 c 0
 312.442382812 741 318.442382812 739 322.442382812 735 c 0
 326.442382812 731 329.442382812 726 331.442382812 718 c 0
 354.442382812 621 378.442382812 535 400.442382812 458 c 0
 435.442382812 333 480.442382812 190 534.442382812 30 c 0
 536.442382812 24 537.442382812 17 537.442382812 10 c 0
 537.442382812 3 535.442382812 -6 533.442382812 -15 c 0
 528.442382812 -31 521.442382812 -41 513.442382812 -45 c 0
 508.442382812 -47 504.442382812 -49 499.442382812 -49 c 0
 494.442382812 -49 490.442382812 -47 485.442382812 -45 c 0
EndSplineSet
Validated: 524289
EndChar

StartChar: bracketright
Encoding: 93 93 71
Width: 650
GlyphClass: 2
Flags: HMW
HStem: -69 49 780 57<483.595 498.095>
LayerCount: 2
Fore
SplineSet
510.594726562 837 m 2
 547.594726562 837 587.594726562 836 629.594726562 835 c 0
 641.594726562 835 649.594726562 832 652.594726562 827 c 0
 654.594726562 824 656.594726562 820 656.594726562 816 c 0
 656.594726562 812 655.594726562 809 655.594726562 806 c 0
 653.594726562 801 651.594726562 796 649.594726562 792 c 2
 647.594726562 789 l 1
 647.594726562 787 l 1
 645.594726562 781 l 1
 645.594726562 780 l 2
 645.594726562 775 640.594726562 760 635.594726562 735 c 2
 605.594726562 591 l 2
 593.594726562 535 580.594726562 483 567.594726562 436 c 0
 545.594726562 346 524.594726562 256 504.594726562 166 c 0
 484.594726562 76 472.594726562 14 467.594726562 -21 c 2
 465.594726562 -30 l 1
 465.594726562 -32 l 2
 465.594726562 -39 464.594726562 -45 463.594726562 -50 c 0
 462.594726562 -58 457.594726562 -64 450.594726562 -69 c 0
 443.594726562 -74 433.594726562 -77 420.594726562 -77 c 0
 398.594726562 -77 356.594726562 -74 295.594726562 -71 c 0
 277.594726562 -71 256.594726562 -69 233.594726562 -69 c 0
 210.594726562 -69 190.594726562 -71 170.594726562 -73 c 0
 167.594726562 -73 163.594726562 -74 162.594726562 -74 c 0
 157.594726562 -74 153.594726562 -72 152.594726562 -70 c 0
 151.594726562 -63 151.594726562 -55 153.594726562 -44 c 0
 155.594726562 -35 160.594726562 -29 165.594726562 -24 c 0
 170.594726562 -19 179.594726562 -17 190.594726562 -17 c 0
 194.594726562 -17 216.594726562 -19 258.594726562 -20 c 0
 300.594726562 -21 335.594726562 -22 365.594726562 -22 c 2
 402.594726562 -22 l 1
 408.594726562 4 422.594726562 67 443.594726562 165 c 0
 464.594726562 263 480.594726562 331 491.594726562 371 c 1
 491.594726562 372 l 1
 504.594726562 425 516.594726562 472 524.594726562 511 c 0
 532.594726562 550 550.594726562 639 579.594726562 778 c 1
 540.594726562 779 509.594726562 780 486.594726562 780 c 0
 436.594726562 780 399.594726562 778 373.594726562 774 c 0
 371.594726562 774 367.594726562 773 365.594726562 773 c 0
 363.594726562 773 360.594726562 773 358.594726562 774 c 0
 356.594726562 775 354.594726562 778 354.594726562 780 c 0
 351.594726562 789 350.594726562 798 352.594726562 807 c 0
 354.594726562 816 358.594726562 823 365.594726562 830 c 0
 371.594726562 835 379.594726562 838 390.594726562 838 c 2
 391.594726562 838 l 2
 419.594726562 838 450.594726562 837 483.594726562 837 c 2
 510.594726562 837 l 2
EndSplineSet
Validated: 1
EndChar

StartChar: asciicircum
Encoding: 94 94 72
Width: 650
GlyphClass: 2
Flags: HMW
HStem: 607 326<248.613 531.113>
LayerCount: 2
Fore
SplineSet
641.112304688 614 m 0
 636.112304688 619 627.112304688 630 615.112304688 648 c 0
 613.112304688 650 609.112304688 654 607.112304688 658 c 0
 580.112304688 698 563.112304688 726 553.112304688 743 c 0
 543.112304688 760 531.112304688 787 514.112304688 824 c 2
 505.112304688 841 l 1
 493.112304688 828 l 2
 471.112304688 803 452.112304688 783 435.112304688 767 c 0
 418.112304688 751 405.112304688 739 395.112304688 731 c 0
 385.112304688 723 372.112304688 713 356.112304688 699 c 0
 340.112304688 685 324.112304688 670 306.112304688 653 c 0
 303.112304688 651 298.112304688 647 293.112304688 642 c 0
 275.112304688 625 262.112304688 615 255.112304688 610 c 0
 253.112304688 608 250.112304688 607 249.112304688 607 c 0
 248.112304688 607 247.112304688 609 245.112304688 609 c 0
 238.112304688 613 232.112304688 620 229.112304688 631 c 0
 229.112304688 632 228.112304688 634 228.112304688 636 c 0
 228.112304688 647 236.112304688 659 248.112304688 672 c 0
 263.112304688 689 284.112304688 709 310.112304688 734 c 0
 336.112304688 759 365.112304688 786 397.112304688 817 c 0
 429.112304688 848 461.112304688 882 494.112304688 918 c 0
 500.112304688 925 508.112304688 929 517.112304688 931 c 0
 521.112304688 932 525.112304688 933 529.112304688 933 c 0
 533.112304688 933 537.112304688 932 541.112304688 931 c 0
 546.112304688 929 551.112304688 926 552.112304688 922 c 2
 552.112304688 921 l 1
 568.112304688 886 582.112304688 857 594.112304688 834 c 0
 606.112304688 811 615.112304688 794 622.112304688 783 c 0
 629.112304688 772 639.112304688 756 652.112304688 735 c 0
 665.112304688 714 677.112304688 696 688.112304688 679 c 0
 691.112304688 674 693.112304688 668 693.112304688 663 c 0
 693.112304688 655 690.112304688 648 685.112304688 642 c 0
 675.112304688 629 664.112304688 621 652.112304688 616 c 0
 649.112304688 614 646.112304688 613 645.112304688 613 c 0
 644.112304688 613 642.112304688 614 641.112304688 614 c 0
EndSplineSet
Validated: 524289
EndChar

StartChar: underscore
Encoding: 95 95 73
Width: 650
GlyphClass: 2
Flags: HMW
HStem: -87 60<108.002 129.502>
LayerCount: 2
Fore
SplineSet
91.5029296875 -72 m 0
 91.5029296875 -68 92.5029296875 -64 93.5029296875 -59 c 0
 95.5029296875 -49 98.5029296875 -41 103.502929688 -36 c 0
 108.502929688 -30 116.502929688 -27 127.502929688 -27 c 2
 129.502929688 -27 l 2
 186.502929688 -28 234.502929688 -29 274.502929688 -29 c 0
 314.502929688 -29 363.502929688 -28 424.502929688 -27 c 0
 473.502929688 -27 502.502929688 -25 513.502929688 -25 c 0
 524.502929688 -25 530.502929688 -27 531.502929688 -30 c 0
 533.502929688 -35 534.502929688 -42 533.502929688 -51 c 0
 531.502929688 -62 526.502929688 -70 521.502929688 -75 c 0
 514.502929688 -82 505.502929688 -85 494.502929688 -85 c 0
 265.502929688 -86 138.502929688 -87 111.502929688 -87 c 0
 104.502929688 -87 99.5029296875 -86 96.5029296875 -84 c 0
 93.5029296875 -82 91.5029296875 -78 91.5029296875 -72 c 0
EndSplineSet
Validated: 524289
EndChar

StartChar: grave
Encoding: 96 96 74
Width: 650
GlyphClass: 2
Flags: HMW
HStem: 636 161<428.38 528.38>
LayerCount: 2
Fore
SplineSet
527.379882812 636 m 0
 519.379882812 636 511.379882812 639 502.379882812 644 c 0
 473.379882812 665 454.379882812 678 447.379882812 683 c 0
 440.379882812 688 431.379882812 695 420.379882812 704 c 0
 409.379882812 713 399.379882812 721 392.379882812 728 c 0
 387.379882812 734 384.379882812 743 384.379882812 754 c 0
 384.379882812 763 387.379882812 772 392.379882812 781 c 0
 399.379882812 788 409.379882812 794 420.379882812 796 c 0
 423.379882812 796 427.379882812 797 429.379882812 797 c 0
 435.379882812 797 440.379882812 796 445.379882812 792 c 0
 447.379882812 790 463.379882812 773 492.379882812 742 c 0
 497.379882812 736 505.379882812 729 515.379882812 720 c 0
 525.379882812 711 535.379882812 703 543.379882812 698 c 0
 553.379882812 692 559.379882812 684 561.379882812 673 c 0
 561.379882812 670 562.379882812 666 562.379882812 664 c 0
 562.379882812 658 559.379882812 653 556.379882812 649 c 0
 551.379882812 642 543.379882812 638 533.379882812 637 c 0
 531.379882812 637 529.379882812 636 527.379882812 636 c 0
EndSplineSet
Validated: 524289
EndChar

StartChar: a
Encoding: 97 97 75
Width: 650
GlyphClass: 2
Flags: HMW
HStem: -28 69 438 72
VStem: 455.886 51
LayerCount: 2
Fore
SplineSet
293.885742188 450 m 0
 318.885742188 471 353.885742188 486.999023438 396.885742188 499.999023438 c 0
 417.885742188 505.999023438 439.885742188 509.999023438 462.885742188 509.999023438 c 2
 470.885742188 509.999023438 l 2
 522.885742188 508.999023438 554.885742188 492.999023438 564.885742188 464.999023438 c 0
 572.086914062 444.74609375 575.641601562 420.64453125 575.641601562 392.51171875 c 0
 575.641601562 358.13671875 570.333984375 317.743164062 559.885742188 270.999023438 c 0
 559.885742188 268.999023438 557.885742188 260.999023438 554.885742188 247.999023438 c 0
 551.885742188 234.999023438 546.885742188 212.999023438 538.885742188 182.999023438 c 0
 530.885742188 152.999023438 527.885742188 136.999023438 527.885742188 135.999023438 c 0
 523.885742188 118.999023438 518.885742188 86.9990234375 512.885742188 36.9990234375 c 0
 511.885742188 21.9990234375 508.885742188 8.9990234375 506.885742188 -2.0009765625 c 0
 501.885742188 -26.0009765625 494.885742188 -38.0009765625 486.885742188 -38.0009765625 c 0
 465.885742188 -38.0009765625 455.885742188 -34.0009765625 455.885742188 -25.0009765625 c 0
 454.713867188 -7.427734375 454.228515625 12.205078125 454.228515625 34.09765625 c 0
 454.228515625 49.578125 454.470703125 66.1884765625 454.884765625 84 c 1
 447.884765625 71 442.884765625 64 438.884765625 64 c 0
 410.884765625 29 385.884765625 5 362.884765625 -10 c 0
 343.884765625 -22 316.884765625 -28 279.884765625 -28 c 0
 263.884765625 -28 246.884765625 -23 228.884765625 -12 c 0
 209.884765625 -1 194.884765625 17 183.884765625 40 c 0
 172.884765625 63 167.884765625 87 165.884765625 111 c 1
 169.884765625 128 175.884765625 146 183.884765625 165 c 0
 192.884765625 186 204.884765625 203 220.884765625 217 c 0
 243.884765625 238 259.884765625 251 267.884765625 255 c 0
 302.884765625 273 322.884765625 284 327.884765625 285 c 0
 369.884765625 298 392.884765625 306 397.884765625 307 c 0
 426.884765625 311 444.884765625 314 452.884765625 316 c 0
 455.884765625 317 473.884765625 323 505.884765625 335 c 0
 506.884765625 339 508.884765625 340 508.884765625 340 c 2
 511.884765625 346 513.884765625 353 514.884765625 359 c 0
 515.884765625 365 517.884765625 370 517.884765625 376 c 0
 517.884765625 382 516.884765625 389 512.884765625 398 c 0
 507.884765625 410 499.884765625 419 490.884765625 425 c 0
 483.884765625 431 469.884765625 436 450.884765625 437 c 0
 447.884765625 437 444.884765625 438 441.884765625 438 c 0
 428.884765625 438 415.884765625 435 399.884765625 430 c 0
 383.884765625 425 370.884765625 417 358.884765625 409 c 0
 336.884765625 395 319.884765625 383 308.884765625 373 c 0
 288.884765625 352 273.884765625 340 260.884765625 340 c 0
 254.884765625 340 248.884765625 343 243.884765625 348 c 0
 236.650390625 354.430664062 233.29296875 361.5078125 233.29296875 369.75 c 0
 233.29296875 371.76171875 233.493164062 373.842773438 233.885742188 376 c 0
 235.885742188 387 244.885742188 401 256.885742188 415 c 0
 267.885742188 428 279.885742188 439 293.885742188 450 c 0
382.885742188 67.9990234375 m 0
 395.885742188 77.9990234375 407.885742188 89.9990234375 418.885742188 103.999023438 c 0
 430.885742188 117.999023438 442.885742188 135.999023438 453.885742188 156.999023438 c 0
 464.885742188 177.999023438 474.885742188 200.999023438 481.885742188 225.999023438 c 2
 484.885742188 236.999023438 l 1
 473.885742188 235.999023438 l 2
 358.885742188 224.999023438 279.885742188 191.999023438 236.885742188 136.999023438 c 1
 233.885742188 131.999023438 l 1
 234.885742188 126.999023438 l 2
 242.885742188 94.9990234375 252.885742188 72.9990234375 266.885742188 59.9990234375 c 0
 278.885742188 46.9990234375 293.885742188 40.9990234375 312.885742188 40.9990234375 c 0
 334.885742188 40.9990234375 358.885742188 48.9990234375 382.885742188 67.9990234375 c 0
EndSplineSet
Validated: 524289
EndChar

StartChar: b
Encoding: 98 98 76
Width: 650
GlyphClass: 2
Flags: HMW
HStem: -14 74<318.521 341.021> 425 65<384.521 459.021>
VStem: 150.521 60 499.521 69<295.5 370.5>
LayerCount: 2
Fore
SplineSet
557.521484375 263 m 0
 550.521484375 227 539.521484375 194 526.521484375 164 c 0
 513.521484375 134 497.521484375 107 481.521484375 86 c 0
 465.521484375 65 448.521484375 46 431.521484375 31 c 0
 414.521484375 16 398.521484375 4 381.521484375 -3 c 0
 364.521484375 -10 348.521484375 -14 333.521484375 -14 c 0
 291.521484375 -14 256.521484375 2 230.521484375 31 c 1
 225.521484375 29 221.521484375 34 216.521484375 47 c 1
 214.521484375 32 212.521484375 26 210.521484375 26 c 0
 205.521484375 12 200.521484375 2 193.521484375 -3 c 0
 186.521484375 -8 178.521484375 -11 169.521484375 -11 c 0
 162.521484375 -11 156.521484375 -9 154.521484375 -6 c 0
 152.521484375 -3 150.521484375 2 150.521484375 8 c 0
 150.521484375 14 151.521484375 22 153.521484375 30 c 0
 171.521484375 115 198.521484375 237 234.521484375 396 c 0
 269.521484375 555 292.521484375 663 305.521484375 722 c 0
 309.521484375 741 314.521484375 753 320.521484375 759 c 0
 326.521484375 765 334.521484375 768 344.521484375 768 c 0
 350.521484375 768 355.521484375 766 358.521484375 761 c 0
 360.521484375 759 361.521484375 754 361.521484375 748 c 0
 361.521484375 742 360.521484375 733 358.521484375 723 c 0
 351.521484375 698 344.521484375 666 337.521484375 624 c 0
 324.521484375 564 311.521484375 499 298.521484375 428 c 1
 306.521484375 437 314.521484375 443 321.521484375 445 c 0
 358.521484375 475 399.521484375 490 442.521484375 490 c 0
 475.521484375 490 503.521484375 480 524.521484375 461 c 0
 553.521484375 436 568.521484375 397 568.521484375 344 c 0
 568.521484375 319 564.521484375 292 557.521484375 263 c 0
467.521484375 397 m 0
 450.521484375 416 428.521484375 425 402.521484375 425 c 0
 366.521484375 425 329.521484375 408 290.521484375 374 c 2
 287.521484375 371 l 1
 270.521484375 288 249.521484375 201 227.521484375 109 c 1
 230.521484375 105 l 2
 241.521484375 88 255.521484375 77 273.521484375 70 c 0
 288.521484375 63 307.521484375 60 329.521484375 60 c 0
 369.521484375 60 402.521484375 78 430.521484375 113 c 0
 459.521484375 147 480.521484375 193 493.521484375 251 c 0
 497.521484375 269 499.521484375 287 499.521484375 304 c 0
 499.521484375 344 488.521484375 375 467.521484375 397 c 0
EndSplineSet
Validated: 524289
EndChar

StartChar: c
Encoding: 99 99 77
Width: 650
GlyphClass: 2
Flags: HMW
HStem: -31 68<298.941 345.941> 458 69<436.941 492.941>
VStem: 186.941 70<123.5 126.5> 496.941 70<358.5 405>
LayerCount: 2
Fore
SplineSet
542.94140625 492 m 0
 559.94140625 468 566.94140625 440 566.94140625 407 c 2
 566.94140625 405 l 2
 566.94140625 389 564.94140625 376 559.94140625 365 c 0
 553.94140625 352 543.94140625 343 530.94140625 337 c 0
 524.94140625 335 519.94140625 333 514.94140625 333 c 0
 511.94140625 333 507.94140625 334 505.94140625 335 c 0
 503.94140625 335 501.94140625 338 499.94140625 343 c 0
 497.94140625 348 496.94140625 354 496.94140625 363 c 0
 496.94140625 366 494.94140625 377 494.94140625 397 c 0
 494.94140625 402 494.94140625 408 493.94140625 415 c 0
 492.94140625 422 490.94140625 428 488.94140625 432 c 0
 486.94140625 436 482.94140625 440 478.94140625 444 c 0
 470.94140625 453 458.94140625 458 441.94140625 458 c 0
 431.94140625 458 421.94140625 456 410.94140625 451 c 0
 399.94140625 446 387.94140625 438 374.94140625 426 c 0
 361.94140625 414 349.94140625 399 337.94140625 382 c 0
 325.94140625 365 313.94140625 343 302.94140625 315 c 0
 289.94140625 287 278.94140625 256 269.94140625 221 c 0
 260.94140625 189 256.94140625 161 256.94140625 137 c 0
 256.94140625 110 262.94140625 88 273.94140625 71 c 0
 288.94140625 50 309.94140625 39 336.94140625 37 c 2
 345.94140625 37 l 2
 368.94140625 37 389.94140625 42 407.94140625 52 c 0
 428.94140625 64 443.94140625 78 450.94140625 93 c 0
 456.94140625 104 462.94140625 112 468.94140625 118 c 0
 474.94140625 124 477.94140625 128 481.94140625 129 c 0
 485.94140625 130 489.94140625 131 492.94140625 131 c 0
 495.94140625 131 498.94140625 129 503.94140625 127 c 0
 506.94140625 125 509.94140625 122 511.94140625 120 c 0
 513.94140625 118 514.94140625 114 514.94140625 110 c 0
 514.94140625 100 509.94140625 86 498.94140625 69 c 0
 483.94140625 44 459.94140625 22 428.94140625 2 c 0
 413.94140625 -9 395.94140625 -17 375.94140625 -23 c 0
 355.94140625 -28 333.94140625 -31 311.94140625 -31 c 0
 285.94140625 -31 263.94140625 -26 243.94140625 -14 c 0
 225.94140625 -3 212.94140625 12 203.94140625 32 c 0
 192.94140625 57 186.94140625 85 186.94140625 116 c 0
 186.94140625 137 189.94140625 158 194.94140625 180 c 0
 205.94140625 227 219.94140625 269 236.94140625 308 c 0
 253.94140625 347 272.94140625 379 293.94140625 406 c 0
 313.94140625 433 332.94140625 455 352.94140625 474 c 0
 391.94140625 509 433.94140625 527 479.94140625 527 c 0
 505.94140625 527 526.94140625 515 542.94140625 492 c 0
EndSplineSet
Validated: 524289
EndChar

StartChar: d
Encoding: 100 100 78
Width: 650
GlyphClass: 2
Flags: HMW
HStem: -14 76<302.948 337.948> 436 75<409.948 413.948 409.948 409.948>
VStem: 182.948 62<171 182> 453.948 65<20.5 50>
LayerCount: 2
Fore
SplineSet
365.948242188 65 m 0
 374.948242188 67 382.948242188 71 389.948242188 74 c 0
 396.948242188 77 402.948242188 81 409.948242188 87 c 0
 416.948242188 93 421.948242188 99 426.948242188 103 c 0
 431.948242188 107 436.948242188 113 442.948242188 121 c 0
 448.948242188 129 454.948242188 135 456.948242188 139 c 0
 458.948242188 143 461.948242188 147 464.948242188 152 c 0
 467.948242188 157 470.948242188 162 472.948242188 164 c 0
 485.948242188 226 492.948242188 261 494.948242188 268 c 0
 495.948242188 275 497.948242188 286 501.948242188 301 c 0
 505.948242188 316 507.948242188 329 509.948242188 338 c 1
 508.948242188 341 l 2
 501.948242188 368 490.948242188 391 473.948242188 409 c 0
 456.948242188 427 436.948242188 436 413.948242188 436 c 2
 409.948242188 436 l 2
 385.948242188 435 362.948242188 426 341.948242188 410 c 0
 320.948242188 394 304.948242188 373 289.948242188 348 c 0
 274.948242188 323 262.948242188 296 255.948242188 267 c 0
 247.948242188 235 244.948242188 207 244.948242188 183 c 0
 244.948242188 159 246.948242188 137 253.948242188 120 c 0
 261.948242188 99 275.948242188 83 292.948242188 74 c 0
 305.948242188 66 319.948242188 62 336.948242188 62 c 2
 337.948242188 62 l 2
 346.948242188 62 356.948242188 63 365.948242188 65 c 0
182.948242188 166 m 0
 182.948242188 198 186.948242188 233 195.948242188 271 c 0
 204.948242188 316 221.948242188 358 243.948242188 394 c 0
 265.948242188 430 291.948242188 458 322.948242188 479 c 0
 351.948242188 500 383.948242188 511 415.948242188 511 c 0
 459.948242188 511 495.948242188 498 520.948242188 472 c 1
 525.948242188 475 529.948242188 471 534.948242188 458 c 1
 565.948242188 595 587.948242188 681 598.948242188 716 c 0
 603.948242188 733 610.948242188 745 617.948242188 754 c 0
 626.948242188 764 635.948242188 769 647.948242188 769 c 0
 654.948242188 769 661.948242188 766 663.948242188 761 c 0
 664.948242188 760 665.948242188 757 665.948242188 753 c 0
 665.948242188 746 662.948242188 736 659.948242188 723 c 0
 648.948242188 681 629.948242188 606 601.948242188 495 c 0
 573.948242188 384 554.948242188 299 541.948242188 242 c 1
 541.948242188 241 l 1
 534.948242188 202 528.948242188 168 524.948242188 139 c 0
 520.948242188 110 519.948242188 89 519.948242188 77 c 0
 519.948242188 65 518.948242188 54 518.948242188 46 c 0
 518.948242188 38 517.948242188 32 515.948242188 27 c 0
 511.948242188 16 506.948242188 8 499.948242188 2 c 0
 494.948242188 -3 487.948242188 -7 478.948242188 -9 c 0
 475.948242188 -9 470.948242188 -10 468.948242188 -10 c 0
 466.948242188 -10 463.948242188 -9 461.948242188 -8 c 0
 459.948242188 -7 458.948242188 -4 457.948242188 -1 c 0
 455.948242188 6 453.948242188 15 453.948242188 26 c 0
 453.948242188 34 454.948242188 43 455.948242188 52 c 0
 456.948242188 60 458.948242188 74 460.948242188 95 c 1
 452.948242188 78 444.948242188 67 436.948242188 62 c 0
 428.948242188 51 420.948242188 42 412.948242188 34 c 0
 404.948242188 26 395.948242188 17 384.948242188 10 c 0
 363.948242188 -6 339.948242188 -14 310.948242188 -14 c 0
 294.948242188 -14 278.948242188 -10 263.948242188 -3 c 0
 248.948242188 4 233.948242188 15 221.948242188 30 c 0
 209.948242188 45 199.948242188 64 192.948242188 85 c 0
 185.948242188 106 182.948242188 134 182.948242188 166 c 0
EndSplineSet
Validated: 524289
EndChar

StartChar: e
Encoding: 101 101 79
Width: 650
GlyphClass: 2
Flags: HMW
HStem: -28 60<310.568 343.568 310.568 343.568> 455 66<413.568 461.568>
VStem: 189.568 61<134 140.5>
LayerCount: 2
Fore
SplineSet
494.567382812 60 m 0
 482.567382812 45 470.567382812 33 459.567382812 24 c 0
 448.567382812 14 436.567382812 5 422.567382812 -4 c 0
 396.567382812 -20 361.567382812 -28 319.567382812 -28 c 2
 310.567382812 -28 l 2
 258.567382812 -27 223.567382812 -4 204.567382812 39 c 0
 194.567382812 63 189.567382812 91 189.567382812 124 c 0
 189.567382812 157 194.567382812 193 203.567382812 234 c 0
 213.567382812 279 228.567382812 320 248.567382812 356 c 0
 268.567382812 392 289.567382812 423 312.567382812 447 c 0
 333.567382812 471 355.567382812 489 379.567382812 502 c 0
 403.567382812 515 428.567382812 521 453.567382812 521 c 0
 469.567382812 521 485.567382812 516 502.567382812 505 c 0
 519.567382812 494 533.567382812 479 546.567382812 458 c 0
 559.567382812 437 566.567382812 416 567.567382812 393 c 0
 567.567382812 378 559.567382812 362 545.567382812 343 c 0
 531.567382812 324 517.567382812 310 504.567382812 300 c 0
 478.567382812 280 446.567382812 261 406.567382812 241 c 0
 386.567382812 232 370.567382812 224 356.567382812 217 c 0
 342.567382812 210 326.567382812 202 305.567382812 193 c 0
 287.567382812 184 269.567382812 178 252.567382812 173 c 1
 251.567382812 158 250.567382812 146 250.567382812 138 c 0
 250.567382812 130 251.567382812 123 251.567382812 116 c 0
 253.567382812 101 257.567382812 88 263.567382812 75 c 0
 269.567382812 62 277.567382812 51 290.567382812 44 c 0
 303.567382812 36 319.567382812 32 337.567382812 32 c 0
 349.567382812 32 362.567382812 35 376.567382812 40 c 0
 390.567382812 45 402.567382812 51 413.567382812 60 c 0
 433.567382812 77 447.567382812 89 454.567382812 98 c 0
 465.567382812 110 474.567382812 119 482.567382812 124 c 0
 487.567382812 127 493.567382812 129 497.567382812 129 c 0
 501.567382812 129 505.567382812 127 508.567382812 124 c 0
 513.567382812 119 516.567382812 112 516.567382812 105 c 0
 516.567382812 93 509.567382812 78 494.567382812 60 c 0
361.567382812 427 m 0
 350.567382812 417 339.567382812 405 329.567382812 391 c 0
 319.567382812 377 309.567382812 360 299.567382812 339 c 0
 288.567382812 318 279.567382812 295 272.567382812 270 c 2
 267.567382812 249 l 1
 287.567382812 255 l 2
 390.567382812 287 460.567382812 319 497.567382812 352 c 2
 503.567382812 357 l 1
 501.567382812 364 l 2
 494.567382812 396 485.567382812 419 472.567382812 433 c 0
 458.567382812 448 442.567382812 455 423.567382812 455 c 0
 403.567382812 455 382.567382812 446 361.567382812 427 c 0
EndSplineSet
Validated: 524289
EndChar

